<?xml version="1.0" encoding="utf-8"?>
<!-- Generator: Adobe Illustrator 27.9.0, SVG Export Plug-In . SVG Version: 6.00 Build 0)  -->
<svg version="1.1" id="Lag_1_kopi" xmlns="http://www.w3.org/2000/svg" xmlns:xlink="http://www.w3.org/1999/xlink" x="0px" y="0px"
	 viewBox="0 0 493.5 51.9" style="enable-background:new 0 0 493.5 51.9;" xml:space="preserve">
<style type="text/css">
	.st0{fill:#2454BA;}
</style>
<path class="st0" d="M12.6,51.5c-0.4,0-0.8-0.1-1.2-0.3s-0.6-0.5-0.7-0.9l-10.7-32c-0.2-1-0.1-1.7,0.1-2.1c0.3-0.5,0.7-0.7,1.4-0.7
	c0.4,0,0.7,0.1,1.1,0.3c0.3,0.2,0.6,0.5,0.8,0.9l9.8,29.4h-0.9l9-29c0.1-0.5,0.4-0.9,0.7-1.1c0.4-0.3,0.8-0.4,1.2-0.4
	s0.9,0.1,1.2,0.4c0.3,0.3,0.6,0.7,0.8,1.1l9.2,29h-1.2l9.8-29.4c0.3-0.8,1-1.2,1.8-1.2c0.8,0,1.3,0.3,1.6,0.9c0.3,0.6,0.3,1.2,0,1.9
	L36,50.3c-0.1,0.4-0.4,0.7-0.7,0.9c-0.3,0.2-0.7,0.3-1.2,0.3c-0.4,0-0.8-0.1-1.2-0.3s-0.6-0.5-0.7-0.9L22.8,21h0.9l-9.1,29.3
	c-0.2,0.4-0.4,0.8-0.8,1S13.1,51.5,12.6,51.5L12.6,51.5z"/>
<path class="st0" d="M54,35.7c-0.6,0-1-0.2-1.4-0.6c-0.4-0.4-0.6-0.8-0.6-1.4V2c0-0.6,0.2-1.1,0.6-1.5C53,0.2,53.4,0,54,0
	c0.6,0,1.1,0.2,1.5,0.5C55.8,0.9,56,1.4,56,2v31.8c0,0.6-0.2,1-0.5,1.4S54.6,35.7,54,35.7z M54,51.5c-0.6,0-1-0.2-1.4-0.6
	c-0.4-0.4-0.6-0.8-0.6-1.4V17.4c0-0.6,0.2-1.1,0.6-1.4c0.4-0.4,0.8-0.5,1.4-0.5c0.6,0,1.1,0.2,1.5,0.5c0.3,0.3,0.5,0.8,0.5,1.4v32.2
	c0,0.6-0.2,1-0.5,1.4C55.1,51.4,54.6,51.5,54,51.5z M83.2,51.5c-0.6,0-1.1-0.2-1.4-0.6c-0.4-0.4-0.6-0.8-0.6-1.4V31.8
	c0-2.9-0.6-5.3-1.7-7.2S77,21.3,75,20.4s-4.1-1.4-6.5-1.4s-4.5,0.5-6.4,1.4s-3.4,2.1-4.5,3.7S56,27.4,56,29.4h-3.3
	c0.2-2.7,1-5.2,2.4-7.4c1.5-2.2,3.3-3.9,5.7-5.1c2.3-1.2,4.9-1.9,7.7-1.9c3.2,0,6,0.6,8.6,1.9c2.5,1.3,4.5,3.2,6,5.7
	c1.4,2.5,2.2,5.6,2.2,9.2v17.8c0,0.6-0.2,1-0.6,1.4C84.3,51.4,83.8,51.5,83.2,51.5L83.2,51.5z"/>
<path class="st0" d="M94.7,7.8c-0.8,0-1.6-0.3-2.2-0.9s-0.9-1.3-0.9-2.2c0-1,0.3-1.8,1-2.3s1.3-0.8,2.2-0.8c0.8,0,1.4,0.2,2.1,0.8
	s1,1.3,1,2.3c0,0.9-0.3,1.6-0.9,2.2S95.6,7.8,94.7,7.8L94.7,7.8z M94.8,51.5c-0.6,0-1.1-0.2-1.4-0.6c-0.4-0.4-0.6-0.8-0.6-1.4V17.4
	c0-0.6,0.2-1.1,0.6-1.4c0.4-0.4,0.8-0.5,1.4-0.5c0.6,0,1.1,0.2,1.4,0.5s0.5,0.8,0.5,1.4v32.2c0,0.6-0.2,1-0.5,1.4
	C95.8,51.4,95.4,51.5,94.8,51.5L94.8,51.5z"/>
<path class="st0" d="M118.2,51.9c-2.3,0-4.7-0.4-7.2-1.2c-2.5-0.8-4.6-2.2-6.3-4.2c-0.3-0.4-0.5-0.9-0.4-1.4s0.3-0.9,0.8-1.3
	c0.4-0.3,0.9-0.4,1.4-0.3c0.5,0.1,0.9,0.3,1.2,0.7c1.3,1.5,2.8,2.5,4.7,3.1c1.8,0.6,3.8,0.9,6,0.9c3.7,0,6.3-0.7,7.8-2
	s2.3-2.9,2.3-4.6s-0.8-3.1-2.5-4.3s-4.2-1.9-7.6-2.4c-4.4-0.6-7.7-1.8-9.8-3.6s-3.2-3.8-3.2-6.1c0-2.2,0.6-4.1,1.7-5.6
	s2.6-2.7,4.5-3.4c1.9-0.8,4.1-1.2,6.6-1.2c3,0,5.5,0.5,7.6,1.6c2.1,1.1,3.7,2.5,5,4.3c0.4,0.4,0.5,0.9,0.4,1.4s-0.4,0.9-1,1.2
	c-0.4,0.2-0.9,0.3-1.4,0.2c-0.5-0.1-0.9-0.4-1.2-0.8c-1.1-1.4-2.4-2.5-4-3.2c-1.6-0.7-3.4-1.1-5.4-1.1c-2.8,0-4.9,0.6-6.5,1.8
	s-2.3,2.6-2.3,4.3c0,1.1,0.3,2.1,1,3c0.6,0.9,1.7,1.6,3.1,2.2c1.4,0.6,3.4,1.1,5.8,1.4c3.3,0.4,5.9,1.2,7.8,2.2
	c1.9,1.1,3.3,2.3,4.1,3.7c0.8,1.4,1.2,2.9,1.2,4.5c0,2.1-0.7,3.9-2,5.4c-1.3,1.5-3.1,2.7-5.2,3.5C123,51.5,120.7,51.9,118.2,51.9
	L118.2,51.9z"/>
<path class="st0" d="M136.5,20.3c-0.5,0-1-0.2-1.3-0.5s-0.5-0.8-0.5-1.3s0.2-1,0.5-1.3s0.8-0.5,1.3-0.5h17.9c0.5,0,1,0.2,1.3,0.5
	s0.5,0.8,0.5,1.3s-0.2,1-0.5,1.3s-0.8,0.5-1.3,0.5C154.4,20.3,136.5,20.3,136.5,20.3z M154.1,51.5c-2.4,0-4.6-0.6-6.5-1.7
	s-3.4-2.6-4.4-4.5s-1.6-4.1-1.6-6.5V6c0-0.6,0.2-1.1,0.6-1.5S143,4,143.6,4c0.6,0,1.1,0.2,1.5,0.6s0.6,0.9,0.6,1.5v32.9
	c0,2.5,0.8,4.6,2.4,6.2c1.6,1.6,3.6,2.4,6.1,2.4h1.4c0.6,0,1.1,0.2,1.5,0.6c0.4,0.4,0.6,0.9,0.6,1.5c0,0.6-0.2,1-0.6,1.4
	c-0.4,0.4-0.9,0.6-1.5,0.6L154.1,51.5L154.1,51.5z"/>
<path class="st0" d="M173.2,51.5c-1.7,0-3.2-0.5-4.5-1.4c-1.3-0.9-2.3-2.2-3-3.8s-1.1-3.5-1.1-5.7V2c0-0.6,0.2-1.1,0.6-1.5
	S166,0,166.6,0c0.6,0,1.1,0.2,1.4,0.5c0.4,0.4,0.5,0.8,0.5,1.5v38.7c0,2,0.4,3.7,1.3,5c0.9,1.3,2,2,3.3,2h1.6c0.5,0,0.9,0.2,1.2,0.5
	s0.5,0.8,0.5,1.5c0,0.6-0.2,1-0.5,1.4c-0.4,0.4-0.8,0.6-1.4,0.6H173.2L173.2,51.5z"/>
<path class="st0" d="M197.7,51.9c-3.5,0-6.6-0.8-9.3-2.3c-2.7-1.6-4.8-3.7-6.4-6.5s-2.3-5.9-2.3-9.5s0.7-6.8,2.2-9.5s3.4-4.9,6-6.5
	c2.6-1.6,5.5-2.4,8.8-2.4s6.1,0.8,8.6,2.3s4.5,3.6,5.9,6.3c1.4,2.7,2.1,5.7,2.1,9.2c0,0.6-0.2,1-0.5,1.3c-0.4,0.3-0.8,0.5-1.4,0.5
	h-29v-3.4h30.1l-2.9,2.2c0.1-2.9-0.4-5.4-1.4-7.6c-1.1-2.2-2.6-3.9-4.5-5.2s-4.3-1.9-6.9-1.9s-4.7,0.6-6.7,1.9c-2,1.2-3.5,3-4.6,5.2
	s-1.7,4.8-1.7,7.7s0.6,5.4,1.8,7.6s2.8,3.9,4.9,5.2s4.5,1.9,7.3,1.9c1.7,0,3.4-0.3,5.2-0.9c1.7-0.6,3.1-1.4,4.1-2.3
	c0.4-0.3,0.8-0.5,1.3-0.6c0.5,0,0.9,0.1,1.3,0.4c0.5,0.4,0.7,0.8,0.8,1.3c0,0.5-0.2,0.9-0.6,1.3c-1.4,1.3-3.2,2.3-5.5,3.2
	C201.9,51.5,199.8,51.9,197.7,51.9L197.7,51.9z"/>
<path class="st0" d="M238.4,51.9c-3.4,0-6.5-0.8-9.3-2.4c-2.8-1.6-5-3.7-6.6-6.5s-2.4-5.8-2.5-9.2V2c0-0.6,0.2-1.1,0.6-1.5
	s0.9-0.5,1.4-0.5c0.6,0,1.1,0.2,1.4,0.5c0.4,0.4,0.5,0.8,0.5,1.5v20.6c1.4-2.3,3.4-4.1,5.9-5.5c2.5-1.4,5.4-2.1,8.6-2.1
	c3.5,0,6.7,0.8,9.5,2.4c2.8,1.6,5,3.8,6.6,6.6c1.6,2.8,2.4,5.9,2.4,9.4s-0.8,6.7-2.4,9.5c-1.6,2.8-3.8,5-6.6,6.6
	C245,51.1,241.9,51.9,238.4,51.9z M238.4,48.2c2.8,0,5.2-0.7,7.4-2s3.9-3.1,5.2-5.3c1.3-2.2,1.9-4.7,1.9-7.6s-0.6-5.3-1.9-7.5
	c-1.3-2.2-3-4-5.2-5.2s-4.6-2-7.4-2s-5.2,0.6-7.4,2c-2.2,1.3-3.9,3-5.2,5.2s-1.9,4.7-1.9,7.5s0.6,5.3,1.9,7.6c1.2,2.2,3,4,5.2,5.3
	S235.6,48.2,238.4,48.2z"/>
<path class="st0" d="M273,51.5c-1.7,0-3.2-0.5-4.5-1.4c-1.3-0.9-2.3-2.2-3-3.8s-1.1-3.5-1.1-5.7V2c0-0.6,0.2-1.1,0.6-1.5
	s0.9-0.5,1.4-0.5c0.6,0,1.1,0.2,1.5,0.5s0.5,0.8,0.5,1.5v38.7c0,2,0.4,3.7,1.3,5c0.9,1.3,2,2,3.3,2h1.6c0.5,0,0.9,0.2,1.2,0.5
	s0.5,0.8,0.5,1.5c0,0.6-0.2,1-0.5,1.4c-0.4,0.4-0.8,0.6-1.5,0.6H273L273,51.5z"/>
<path class="st0" d="M298.1,51.9c-3.5,0-6.7-0.8-9.5-2.4s-5-3.8-6.6-6.6c-1.6-2.8-2.4-5.9-2.4-9.4s0.8-6.7,2.4-9.5
	c1.6-2.8,3.8-5,6.6-6.6c2.8-1.6,6-2.4,9.5-2.4s6.7,0.8,9.4,2.4s5,3.8,6.6,6.6c1.6,2.8,2.4,6,2.4,9.5s-0.8,6.6-2.4,9.4
	c-1.6,2.8-3.8,5-6.6,6.6C304.7,51.1,301.6,51.9,298.1,51.9z M298.1,48.2c2.8,0,5.2-0.7,7.4-2c2.2-1.3,3.9-3.1,5.1-5.3
	c1.2-2.2,1.9-4.7,1.9-7.6s-0.6-5.3-1.9-7.5s-3-4-5.1-5.3c-2.2-1.3-4.6-2-7.4-2s-5.2,0.6-7.4,2c-2.2,1.3-3.9,3.1-5.2,5.3
	c-1.3,2.2-1.9,4.7-1.9,7.6s0.6,5.3,1.9,7.5c1.3,2.2,3,4,5.2,5.3S295.3,48.2,298.1,48.2z"/>
<path class="st0" d="M331.5,51.5c-0.4,0-0.8-0.1-1.2-0.3c-0.3-0.2-0.6-0.5-0.7-0.9l-10.7-32c-0.2-1-0.1-1.7,0.1-2.1
	c0.3-0.5,0.7-0.7,1.4-0.7c0.4,0,0.7,0.1,1.1,0.3c0.4,0.2,0.6,0.5,0.8,0.9l9.8,29.4h-0.9l9-29c0.1-0.5,0.4-0.9,0.7-1.1
	c0.4-0.3,0.8-0.4,1.2-0.4s0.9,0.1,1.2,0.4c0.3,0.3,0.6,0.7,0.8,1.1l9.2,29h-1.2l9.8-29.4c0.4-0.8,1-1.2,1.9-1.2
	c0.8,0,1.3,0.3,1.6,0.9c0.3,0.6,0.3,1.2,0,1.9l-10.6,32c-0.1,0.4-0.4,0.7-0.7,0.9c-0.3,0.2-0.7,0.3-1.2,0.3c-0.4,0-0.8-0.1-1.2-0.3
	s-0.6-0.5-0.7-0.9L341.6,21h0.9l-9.1,29.3c-0.2,0.4-0.4,0.8-0.8,1C332.2,51.5,331.9,51.5,331.5,51.5L331.5,51.5z"/>
<path class="st0" d="M387.5,51.9c-3.5,0-6.6-0.8-9.3-2.3c-2.7-1.6-4.8-3.7-6.4-6.5s-2.3-5.9-2.3-9.5s0.7-6.8,2.2-9.5
	c1.5-2.8,3.5-4.9,6-6.5s5.5-2.4,8.8-2.4s6.1,0.8,8.6,2.3c2.5,1.5,4.5,3.6,5.9,6.3s2.1,5.7,2.1,9.2c0,0.6-0.2,1-0.5,1.3
	c-0.4,0.3-0.8,0.5-1.4,0.5h-29v-3.4h30.1l-2.9,2.2c0.1-2.9-0.4-5.4-1.5-7.6c-1.1-2.2-2.6-3.9-4.5-5.2s-4.3-1.9-6.9-1.9
	s-4.7,0.6-6.7,1.9s-3.5,3-4.6,5.2s-1.7,4.8-1.7,7.7s0.6,5.4,1.8,7.6s2.8,3.9,5,5.2c2.1,1.2,4.5,1.9,7.3,1.9c1.7,0,3.4-0.3,5.2-0.9
	s3.1-1.4,4.1-2.3c0.4-0.3,0.8-0.5,1.3-0.6s0.9,0.1,1.3,0.4c0.5,0.4,0.7,0.8,0.8,1.3c0,0.5-0.2,0.9-0.6,1.3c-1.4,1.3-3.2,2.3-5.5,3.2
	C391.7,51.5,389.6,51.9,387.5,51.9L387.5,51.9z"/>
<path class="st0" d="M413.7,51.5c-0.6,0-1-0.2-1.4-0.6c-0.4-0.4-0.6-0.8-0.6-1.4V17.4c0-0.6,0.2-1.1,0.6-1.4
	c0.4-0.4,0.9-0.5,1.4-0.5c0.6,0,1.1,0.2,1.5,0.5s0.5,0.8,0.5,1.4v32.2c0,0.6-0.2,1-0.5,1.4C414.8,51.4,414.3,51.5,413.7,51.5z
	 M413,29.5c0.3-2.8,1-5.3,2.3-7.5s2.9-3.9,5-5.1c2-1.2,4.3-1.9,6.7-1.9c1.7,0,3,0.2,3.9,0.6c0.9,0.4,1.3,1.1,1.1,2.1
	c-0.1,0.7-0.4,1.1-0.9,1.2c-0.5,0.1-1.1,0.1-1.8,0c-0.7-0.1-1.4-0.2-2.3-0.2c-2.2,0-4.2,0.5-5.9,1.4c-1.7,0.9-3.1,2.2-4,3.8
	c-1,1.6-1.5,3.4-1.5,5.5L413,29.5L413,29.5z"/>
<path class="st0" d="M442.6,51.5c-0.6,0-1-0.2-1.4-0.6c-0.4-0.4-0.6-0.8-0.6-1.4V17.4c0-0.6,0.2-1.1,0.6-1.4
	c0.4-0.4,0.9-0.5,1.4-0.5c0.6,0,1.1,0.2,1.5,0.5s0.5,0.8,0.5,1.4v32.2c0,0.6-0.2,1-0.5,1.4C443.7,51.4,443.2,51.5,442.6,51.5z
	 M441.9,29.5c0.3-2.8,1-5.3,2.3-7.5s2.9-3.9,5-5.1c2-1.2,4.3-1.9,6.7-1.9c1.7,0,3,0.2,3.9,0.6c0.9,0.4,1.3,1.1,1.1,2.1
	c-0.1,0.7-0.4,1.1-0.9,1.2c-0.5,0.1-1.1,0.1-1.8,0c-0.7-0.1-1.4-0.2-2.3-0.2c-2.2,0-4.2,0.5-5.9,1.4c-1.7,0.9-3.1,2.2-4,3.8
	c-1,1.6-1.5,3.4-1.5,5.5L441.9,29.5L441.9,29.5z"/>
<g>
	<path class="st0" d="M471.6,16c-0.1,0-0.2,0-0.3-0.1s-0.1-0.2-0.1-0.3s0-0.2,0.1-0.3c0.1-0.1,0.2-0.1,0.3-0.1h8.3
		c0.1,0,0.2,0,0.3,0.1c0.1,0.1,0.1,0.2,0.1,0.3s0,0.2-0.1,0.3c-0.1,0.1-0.2,0.1-0.3,0.1H471.6z M475.8,26.6c-0.1,0-0.2,0-0.3-0.1
		s-0.1-0.2-0.1-0.3v-11h0.9v11c0,0.1,0,0.2-0.1,0.3C476,26.6,475.9,26.6,475.8,26.6L475.8,26.6z"/>
	<path class="st0" d="M482.5,26.6c-0.1,0-0.2,0-0.3-0.1s-0.1-0.2-0.1-0.3V15.6c0-0.1,0-0.2,0.1-0.3c0.1-0.1,0.2-0.1,0.3-0.1
		c0.2,0,0.3,0.1,0.4,0.2l5.2,10.3h-0.5l5.1-10.2c0.1-0.1,0.2-0.2,0.4-0.2c0.1,0,0.2,0,0.3,0.1s0.1,0.2,0.1,0.3v10.6
		c0,0.1,0,0.2-0.1,0.3s-0.2,0.1-0.3,0.1s-0.2,0-0.3-0.1s-0.1-0.2-0.1-0.3v-9.5l0.2,0.1l-4.7,9.5c-0.1,0.1-0.2,0.2-0.4,0.2
		s-0.3-0.1-0.4-0.3l-4.7-9.4l0.3-0.1v9.5c0,0.1,0,0.2-0.1,0.3S482.6,26.6,482.5,26.6L482.5,26.6z"/>
</g>
</svg>
