<?xml version="1.0" encoding="UTF-8"?>
<svg xmlns:xlink="http://www.w3.org/1999/xlink" width="195px" height="43px" viewBox="0 0 195 43" version="1.1"
     xmlns="http://www.w3.org/2000/svg">
    <!-- Generator: Sketch 47 (45396) - http://www.bohemiancoding.com/sketch -->
    <title>Group 56</title>
    <desc>Created with Sketch.</desc>
    <defs>
        <path
                d="M30.3814058,9.6468199 L33.1355262,9.6468199 C33.6819649,9.6468199 33.749254,9.42670083 33.2687918,9.15517019 L19.6801897,1.47564536 C18.2423623,0.663064999 15.9001076,0.660668929 14.4580873,1.47564536 L0.869925657,9.15517019 C0.388582733,9.42720736 0.44915662,9.6468199 1.00321939,9.6468199 L3.900273,9.6468199 C4.06212718,9.3177743 4.37799295,9.00511446 4.84827858,8.74258985 L14.5438569,3.3302877 C15.9897119,2.52317707 18.3301306,2.52305835 19.7723276,3.33058211 L29.4403759,8.7439746 C29.9080321,9.00582753 30.2212472,9.31811799 30.3814058,9.6468199 Z"
                id="path-1"></path>
        <path
                d="M0,6.73535368 C0,6.18853395 0.388582733,5.52563643 0.869925657,5.25359927 L14.4580873,-2.42592557 C15.9001076,-3.240902 18.2423623,-3.23850593 19.6801897,-2.42592557 L33.2687918,5.25359927 C33.749254,5.5251299 34.1387456,6.19840328 34.1387456,6.73535368 L34.1387456,28.5011625 C34.1387456,29.0479822 33.7511599,29.7108797 33.271052,29.9829169 L19.7177554,37.6624417 C18.279435,38.4774182 15.9371695,38.4750221 14.495653,37.6624417 L0.872185942,29.9829169 C0.390490947,29.7113863 0,29.0381129 0,28.5011625 L0,6.73535368 Z M14.5438569,-0.571283228 L4.84827858,4.84101892 C3.40197484,5.64838003 3.41616172,6.92991597 4.87896367,7.70396902 L14.4928646,12.7912396 C15.9464636,13.5604229 18.3271953,13.5654262 19.7898223,12.7915379 L29.4025739,7.70534992 C30.8559992,6.93633035 30.8821255,5.64967691 29.4403759,4.84240368 L19.7723276,-0.570988818 C18.3301306,-1.37851258 15.9897119,-1.37839386 14.5438569,-0.571283228 Z"
                id="path-3"></path>
    </defs>
    <g id="Home" stroke="none" stroke-width="1" fill="none" fill-rule="evenodd">
        <g id="Portal" transform="translate(-20.000000, -23.000000)">
            <g id="Group-56" transform="translate(20.000000, 27.000000)">
                <text id="®" font-family="Roboto" font-size="6" font-weight="bold" fill="#50627E">
                    <tspan x="190" y="14.9000015">®</tspan>
                </text>
                <g id="Logo-Group">
                    <g id="Group-4-Copy">
                        <mask id="mask-2" fill="white">
                            <use xlink:href="#path-1"></use>
                        </mask>
                        <use id="Combined-Shape-Copy" fill="#7BC8F5" xlink:href="#path-1"></use>
                        <mask id="mask-4" fill="white">
                            <use xlink:href="#path-3"></use>
                        </mask>
                        <use id="Combined-Shape" fill="#7BC8F5" xlink:href="#path-3"></use>
                        <polygon id="Rectangle-2" fill="#66BAE1" mask="url(#mask-4)"
                                 points="17.0693728 12.9672924 19.0717566 13.0535246 41.560212 1.46986732 41.560212 40.6222132 17.0693728 40.6222132"></polygon>
                        <g id="Group-3" transform="translate(2.935932, 13.279031)" fill="#FFFFFF">
                            <path
                                    d="M7.783634,9.54653912 L3.07248711,6.95198535 C2.97007087,6.895582 2.90179338,6.78953116 2.90179338,6.68685824 L2.90179338,1.89545535 C2.90179338,1.79278243 2.83351589,1.68673159 2.73109965,1.63032825 L0.170693728,0.220244671 C0.0682774912,0.163841328 0,0.194687713 0,0.297360632 L0,12.1560828 C0,12.2587557 0.0682774912,12.3648066 0.170693728,12.4212099 L2.73109965,13.8312935 C2.83351589,13.8876968 2.90179338,13.8568504 2.90179338,13.7541775 L2.90179338,9.59592428 C2.90179338,9.49325137 2.97007087,9.46240498 3.07248711,9.51880832 L7.783634,12.1133621 C7.88605024,12.1697654 7.95432773,12.2758163 7.95432773,12.3784892 L7.95432773,16.5367424 C7.95432773,16.6394154 8.02260522,16.7454662 8.12502146,16.8018695 L10.6854274,18.2119531 C10.7878436,18.2683565 10.8561211,18.2375101 10.8561211,18.1348371 L10.8561211,6.27611499 C10.8561211,6.17344207 10.7878436,6.06739123 10.6854274,6.01098789 L8.12502146,4.60090431 C8.02260522,4.54450097 7.95432773,4.57534735 7.95432773,4.67802027 L7.95432773,9.46942316 C7.95432773,9.57209608 7.88605024,9.60294247 7.783634,9.54653912 Z"
                                    id="H"></path>
                            <path
                                    d="M22.1160649,9.25130499 C22.0091048,9.30871586 21.937798,9.27839203 21.937798,9.17549542 L21.937798,6.77457458 C21.937798,6.67167797 22.0091048,6.56480632 22.1160649,6.50739546 L26.9114453,3.93347507 C27.0184055,3.8760642 27.0897122,3.76919255 27.0897122,3.66629595 L27.0897122,1.43686945 C27.0897122,1.33397285 27.0184055,1.30364902 26.9114453,1.36105988 L19.0855271,5.56162142 C18.978567,5.61903228 18.9072602,5.72590393 18.9072602,5.82880054 L18.9072602,17.7133587 C18.9072602,17.8162553 18.978567,17.8465791 19.0855271,17.7891683 L21.7595311,16.3538967 C21.8664912,16.2964858 21.937798,16.1896142 21.937798,16.0867176 L21.937798,12.0908993 C21.937798,11.9880027 22.0091048,11.881131 22.1160649,11.8237202 L25.0931226,10.2257845 C25.2000828,10.1683736 25.2713896,10.061502 25.2713896,9.95860535 L25.2713896,7.72917885 C25.2713896,7.62628225 25.2000828,7.59595842 25.0931226,7.65336928 L22.1160649,9.25130499 Z"
                                    id="F"></path>
                        </g>
                    </g>
                    <path
                            d="M56.1726265,10.8585405 L56.1726265,16.6087651 C56.1726265,16.7319842 56.0906858,16.8141303 55.9677748,16.8141303 L50.3138664,16.8141303 C50.1909554,16.8141303 50.1090147,16.7319842 50.1090147,16.6087651 L50.1090147,10.8585405 C50.1090147,10.7353214 50.027074,10.6531753 49.9041629,10.6531753 L46.8313866,10.6531753 C46.7084756,10.6531753 46.6265349,10.7353214 46.6265349,10.8585405 L46.6265349,25.0903464 C46.6265349,25.2135655 46.7084756,25.2957116 46.8313866,25.2957116 L49.9041629,25.2957116 C50.027074,25.2957116 50.1090147,25.2135655 50.1090147,25.0903464 L50.1090147,20.0999729 C50.1090147,19.9767538 50.1909554,19.8946077 50.3138664,19.8946077 L55.9677748,19.8946077 C56.0906858,19.8946077 56.1726265,19.9767538 56.1726265,20.0999729 L56.1726265,25.0903464 C56.1726265,25.2135655 56.2545672,25.2957116 56.3774783,25.2957116 L59.4502546,25.2957116 C59.5731656,25.2957116 59.6551063,25.2135655 59.6551063,25.0903464 L59.6551063,10.8585405 C59.6551063,10.7353214 59.5731656,10.6531753 59.4502546,10.6531753 L56.3774783,10.6531753 C56.2545672,10.6531753 56.1726265,10.7353214 56.1726265,10.8585405 L56.1726265,10.8585405 Z M69.7383648,10.5915658 C65.5184187,10.5915658 62.3637017,13.7336528 62.3637017,17.9641752 C62.3637017,22.1946976 65.5184187,25.3573211 69.7383648,25.3573211 C73.9583109,25.3573211 77.0925427,22.1946976 77.0925427,17.9641752 C77.0925427,13.7336528 73.9583109,10.5915658 69.7383648,10.5915658 L69.7383648,10.5915658 Z M69.7383648,13.6720432 C71.7049416,13.6720432 73.6100629,15.0479898 73.6100629,17.9641752 C73.6100629,20.8803605 71.7049416,22.2768437 69.7383648,22.2768437 C67.771788,22.2768437 65.8461815,20.8803605 65.8461815,17.9641752 C65.8461815,15.0479898 67.771788,13.6720432 69.7383648,13.6720432 L69.7383648,13.6720432 Z M89.2857742,10.6531753 L78.3671758,10.6531753 C78.2442647,10.6531753 78.162324,10.7353214 78.162324,10.8585405 L78.162324,13.5282876 C78.162324,13.6515067 78.2442647,13.7336528 78.3671758,13.7336528 L81.8906259,13.7336528 C82.013537,13.7336528 82.0954777,13.8157989 82.0954777,13.939018 L82.0954777,25.0903464 C82.0954777,25.2135655 82.1774184,25.2957116 82.3003294,25.2957116 L85.3731057,25.2957116 C85.4960168,25.2957116 85.5779575,25.2135655 85.5779575,25.0903464 L85.5779575,13.939018 C85.5779575,13.8157989 85.6598982,13.7336528 85.7828092,13.7336528 L89.2857742,13.7336528 C89.4086852,13.7336528 89.4906259,13.6515067 89.4906259,13.5282876 L89.4906259,10.8585405 C89.4906259,10.7353214 89.4086852,10.6531753 89.2857742,10.6531753 L89.2857742,10.6531753 Z M100.987361,22.2152341 L95.4768494,22.2152341 C95.3539383,22.2152341 95.2719976,22.133088 95.2719976,22.0098689 L95.2719976,19.8329982 C95.2719976,19.7097791 95.3539383,19.627633 95.4768494,19.627633 L99.3075771,19.627633 C99.4304882,19.627633 99.5124289,19.545487 99.5124289,19.4222679 L99.5124289,16.7525207 C99.5124289,16.6293016 99.4304882,16.5471555 99.3075771,16.5471555 L95.4768494,16.5471555 C95.3539383,16.5471555 95.2719976,16.4650095 95.2719976,16.3417904 L95.2719976,13.939018 C95.2719976,13.8157989 95.3539383,13.7336528 95.4768494,13.7336528 L100.78251,13.7336528 C100.905421,13.7336528 100.987361,13.6515067 100.987361,13.5282876 L100.987361,10.8585405 C100.987361,10.7353214 100.905421,10.6531753 100.78251,10.6531753 L91.9943696,10.6531753 C91.8714585,10.6531753 91.7895178,10.7353214 91.7895178,10.8585405 L91.7895178,25.0903464 C91.7895178,25.2135655 91.8714585,25.2957116 91.9943696,25.2957116 L100.987361,25.2957116 C101.110273,25.2957116 101.192213,25.2135655 101.192213,25.0903464 L101.192213,22.4205993 C101.192213,22.2973802 101.110273,22.2152341 100.987361,22.2152341 L100.987361,22.2152341 Z M112.422642,22.2152341 L107.58814,22.2152341 C107.465229,22.2152341 107.383288,22.133088 107.383288,22.0098689 L107.383288,10.8585405 C107.383288,10.7353214 107.301348,10.6531753 107.178437,10.6531753 L104.10566,10.6531753 C103.982749,10.6531753 103.900809,10.7353214 103.900809,10.8585405 L103.900809,25.0903464 C103.900809,25.2135655 103.982749,25.2957116 104.10566,25.2957116 L112.422642,25.2957116 C112.545553,25.2957116 112.627493,25.2135655 112.627493,25.0903464 L112.627493,22.4205993 C112.627493,22.2973802 112.545553,22.2152341 112.422642,22.2152341 L112.422642,22.2152341 Z M118.408865,20.0999729 L121.829889,20.0999729 C121.9528,20.0999729 122.034741,20.0178268 122.034741,19.8946077 L122.034741,17.2248606 C122.034741,17.1016415 121.9528,17.0194954 121.829889,17.0194954 L118.408865,17.0194954 C118.285954,17.0194954 118.204013,16.9373494 118.204013,16.8141303 L118.204013,13.939018 C118.204013,13.8157989 118.285954,13.7336528 118.408865,13.7336528 L123.919377,13.7336528 C124.042288,13.7336528 124.124229,13.6515067 124.124229,13.5282876 L124.124229,10.8585405 C124.124229,10.7353214 124.042288,10.6531753 123.919377,10.6531753 L114.926385,10.6531753 C114.803474,10.6531753 114.721533,10.7353214 114.721533,10.8585405 L114.721533,25.0903464 C114.721533,25.2135655 114.803474,25.2957116 114.926385,25.2957116 L117.999161,25.2957116 C118.122072,25.2957116 118.204013,25.2135655 118.204013,25.0903464 L118.204013,20.3053381 C118.204013,20.182119 118.285954,20.0999729 118.408865,20.0999729 L118.408865,20.0999729 Z M127.037676,25.2957116 L130.110452,25.2957116 C130.233363,25.2957116 130.315304,25.2135655 130.315304,25.0903464 L130.315304,21.1678718 C130.315304,21.0446527 130.397245,20.9625066 130.520156,20.9625066 L132.445762,20.9625066 C132.548188,20.9625066 132.650614,21.0035796 132.691584,21.1062622 L134.760587,25.151956 C134.801557,25.2546385 134.903983,25.2957116 135.006409,25.2957116 L138.325007,25.2957116 C138.468404,25.2957116 138.550344,25.193029 138.468404,25.0492734 L136.030668,20.4901667 C135.969212,20.3874841 135.989698,20.264265 136.092123,20.2026555 C137.730937,19.1963662 138.591315,17.676664 138.591315,15.807841 C138.591315,12.8300461 136.215034,10.6531753 133.285654,10.6531753 L127.037676,10.6531753 C126.914765,10.6531753 126.832824,10.7353214 126.832824,10.8585405 L126.832824,25.0903464 C126.832824,25.2135655 126.914765,25.2957116 127.037676,25.2957116 L127.037676,25.2957116 Z M130.520156,17.8820291 C130.397245,17.8820291 130.315304,17.7998831 130.315304,17.676664 L130.315304,13.939018 C130.315304,13.8157989 130.397245,13.7336528 130.520156,13.7336528 L132.875951,13.7336528 C134.064091,13.7336528 135.108835,14.5345769 135.108835,15.807841 C135.108835,17.0194954 134.125547,17.8820291 132.875951,17.8820291 L130.520156,17.8820291 Z M144.78239,25.0903464 L144.78239,10.8585405 C144.78239,10.7353214 144.700449,10.6531753 144.577538,10.6531753 L141.504762,10.6531753 C141.381851,10.6531753 141.29991,10.7353214 141.29991,10.8585405 L141.29991,25.0903464 C141.29991,25.2135655 141.381851,25.2957116 141.504762,25.2957116 L144.577538,25.2957116 C144.700449,25.2957116 144.78239,25.2135655 144.78239,25.0903464 L144.78239,25.0903464 Z M157.303384,22.2152341 L151.792872,22.2152341 C151.669961,22.2152341 151.58802,22.133088 151.58802,22.0098689 L151.58802,19.8329982 C151.58802,19.7097791 151.669961,19.627633 151.792872,19.627633 L155.6236,19.627633 C155.746511,19.627633 155.828452,19.545487 155.828452,19.4222679 L155.828452,16.7525207 C155.828452,16.6293016 155.746511,16.5471555 155.6236,16.5471555 L151.792872,16.5471555 C151.669961,16.5471555 151.58802,16.4650095 151.58802,16.3417904 L151.58802,13.939018 C151.58802,13.8157989 151.669961,13.7336528 151.792872,13.7336528 L157.098532,13.7336528 C157.221444,13.7336528 157.303384,13.6515067 157.303384,13.5282876 L157.303384,10.8585405 C157.303384,10.7353214 157.221444,10.6531753 157.098532,10.6531753 L148.310392,10.6531753 C148.187481,10.6531753 148.105541,10.7353214 148.105541,10.8585405 L148.105541,25.0903464 C148.105541,25.2135655 148.187481,25.2957116 148.310392,25.2957116 L157.303384,25.2957116 C157.426295,25.2957116 157.508236,25.2135655 157.508236,25.0903464 L157.508236,22.4205993 C157.508236,22.2973802 157.426295,22.2152341 157.303384,22.2152341 L157.303384,22.2152341 Z M172.385025,25.0903464 L172.385025,10.8585405 C172.385025,10.7353214 172.303085,10.6531753 172.180174,10.6531753 L169.107397,10.6531753 C168.984486,10.6531753 168.902546,10.7353214 168.902546,10.8585405 L168.902546,18.2927595 C168.902546,18.4775881 168.779635,18.5597342 168.656724,18.395442 L162.42923,10.7763944 C162.367775,10.6942483 162.285834,10.6531753 162.183408,10.6531753 L160.216831,10.6531753 C160.09392,10.6531753 160.01198,10.7353214 160.01198,10.8585405 L160.01198,25.0903464 C160.01198,25.2135655 160.09392,25.2957116 160.216831,25.2957116 L163.289608,25.2957116 C163.412519,25.2957116 163.494459,25.2135655 163.494459,25.0903464 L163.494459,17.6561274 C163.494459,17.4712988 163.61737,17.3891527 163.740282,17.5534449 L169.967775,25.1724925 C170.02923,25.2546385 170.111171,25.2957116 170.213597,25.2957116 L172.180174,25.2957116 C172.303085,25.2957116 172.385025,25.2135655 172.385025,25.0903464 L172.385025,25.0903464 Z M188.941599,17.9847117 C188.941599,13.7952623 185.561545,10.6531753 181.341599,10.6531753 L176.11788,10.6531753 C175.994969,10.6531753 175.913028,10.7353214 175.913028,10.8585405 L175.913028,25.0903464 C175.913028,25.2135655 175.994969,25.2957116 176.11788,25.2957116 L181.341599,25.2957116 C185.561545,25.2957116 188.941599,22.1536246 188.941599,17.9847117 L188.941599,17.9847117 Z M185.459119,17.9847117 C185.459119,20.6339223 183.410602,22.2357706 181.546451,22.2357706 L179.600359,22.2357706 C179.477448,22.2357706 179.395508,22.1536246 179.395508,22.0304055 L179.395508,13.939018 C179.395508,13.8157989 179.477448,13.7336528 179.600359,13.7336528 L181.546451,13.7336528 C183.410602,13.7336528 185.459119,15.3355011 185.459119,17.9847117 L185.459119,17.9847117 Z"
                            id="HOTELFRIEND" fill="#50627E"></path>
                </g>
            </g>
        </g>
    </g>
</svg>
