<?xml version="1.0" encoding="UTF-8"?>
<svg id="Layer_1" data-name="Layer 1" xmlns="http://www.w3.org/2000/svg" xmlns:xlink="http://www.w3.org/1999/xlink" viewBox="0 0 1000 300">
  <defs>
    <style>
      .cls-1 {
        fill: url(#linear-gradient-2);
      }

      .cls-2 {
        fill: url(#linear-gradient-4);
      }

      .cls-3 {
        fill: url(#linear-gradient-3);
      }

      .cls-4 {
        fill: #161511;
      }

      .cls-5 {
        fill: url(#linear-gradient);
      }
    </style>
    <linearGradient id="linear-gradient" x1="14.2" y1="170.42" x2="179.85" y2="170.42" gradientUnits="userSpaceOnUse">
      <stop offset=".3" stop-color="#137a9a"/>
      <stop offset=".75" stop-color="#15b1e3"/>
    </linearGradient>
    <linearGradient id="linear-gradient-2" x1="115.34" y1="150.35" x2="166.41" y2="101.63" gradientUnits="userSpaceOnUse">
      <stop offset=".45" stop-color="#a1d7e2"/>
      <stop offset="1" stop-color="#19b1e3"/>
    </linearGradient>
    <linearGradient id="linear-gradient-3" x1="79.27" y1="184.31" x2="31.34" y2="240.09" xlink:href="#linear-gradient-2"/>
    <linearGradient id="linear-gradient-4" x1="85.52" y1="61.72" x2="136.39" y2="112.6" gradientUnits="userSpaceOnUse">
      <stop offset=".28" stop-color="#24b9ce"/>
      <stop offset=".85" stop-color="#24b9ce"/>
    </linearGradient>
  </defs>
  <path class="cls-4" d="M221.74,114.98h36.02l21.28,58.31h.42l21.28-58.31h36.02v102.79h-23.75v-70.46h-.63l-25.43,70.46h-15.41l-25.43-70.46h-.63v70.46h-23.75v-102.79Z"/>
  <path class="cls-4" d="M386.1,219.11c-8.7,0-16.04-1.88-22.02-5.65-5.95-3.77-10.33-8.7-13.16-14.83-2.83-6.11-4.25-12.71-4.25-19.78s1.42-13.61,4.25-19.73c2.83-6.11,7.21-11.07,13.16-14.88,5.98-3.83,13.42-5.75,22.33-5.75,11.56,0,20.76,3.46,27.58,10.36,6.84,6.92,10.28,16.91,10.28,30v6.35h-54.31v1.14c0,4.04,1.47,7.49,4.4,10.36s6.68,4.31,11.27,4.31c3.49,0,6.47-.74,8.96-2.23,2.52-1.51,4.27-3.55,5.29-6.1h23.75c-2.07,7.74-6.33,14.08-12.79,19.04-6.47,4.93-14.72,7.39-24.74,7.39ZM401.14,170.51c-.1-5.28-1.55-9.2-4.3-11.75-2.73-2.54-6.37-3.82-10.9-3.82s-8.39,1.38-11.11,4.12c-2.73,2.75-4.14,6.57-4.25,11.45h30.56Z"/>
  <path class="cls-4" d="M463.53,219.11c-10.17,0-18.02-3.64-23.54-10.96-5.53-7.3-8.28-17.07-8.28-29.3s2.75-22.26,8.28-29.5c5.52-7.24,13.42-10.86,23.7-10.86,6.92,0,12.27,1.46,16.04,4.36,3.77,2.88,6.4,5.79,7.86,8.73h1.21v-44.08h24.38v110.28h-24.38v-12.5h-1.21c-1.78,3.35-4.55,6.48-8.28,9.42-3.71,2.95-8.96,4.41-15.78,4.41ZM472.5,201.01c5.48,0,9.59-2.19,12.32-6.59,2.75-4.39,4.14-9.58,4.14-15.57s-1.35-10.92-4.04-15.22c-2.7-4.33-6.84-6.5-12.42-6.5s-9.72,2.13-12.37,6.4c-2.62,4.26-3.93,9.37-3.93,15.32s1.31,11.18,3.93,15.57c2.65,4.4,6.78,6.59,12.37,6.59Z"/>
  <path class="cls-4" d="M519.14,114.98h16.3l31.09,87.07h.89l31.09-87.07h16.15l-36.8,102.79h-21.76l-36.96-102.79Z"/>
  <path class="cls-4" d="M625.01,140.41h15.99v77.35h-15.99v-77.35ZM632.92,126.28c-2.8,0-5.14-.87-7.02-2.63-1.86-1.75-2.78-3.94-2.78-6.59s.92-4.83,2.78-6.59c1.89-1.79,4.22-2.68,7.02-2.68s5.11.92,6.97,2.73c1.89,1.82,2.83,4,2.83,6.55s-.94,4.74-2.83,6.55c-1.86,1.79-4.18,2.68-6.97,2.68Z"/>
  <path class="cls-4" d="M659.9,140.41h15.99v12.3h.94c1.36-3.4,3.77-6.3,7.23-8.68,3.46-2.4,7.93-3.62,13.42-3.62,1.43,0,2.67.05,3.72.15,1.05.07,2.07.3,3.09.69l-.63,14.38c-2.8-.76-5.69-1.14-8.65-1.14-6.12,0-10.84,1.64-14.15,4.91-3.33,3.27-4.98,8.68-4.98,16.21v42.15h-15.99v-77.35Z"/>
  <path class="cls-4" d="M737.51,152.41v41.4c0,3.64.17,6.3.52,7.98.38,1.66,1.38,2.98,2.99,3.97,1.6.97,4.26,1.44,7.97,1.44,2.58,0,5.11-.3,7.6-.89v10.71c-.71.3-2.4.6-5.09.89-2.7.3-5.39.45-8.07.45-6.54,0-11.42-.9-14.63-2.73-3.22-1.81-5.27-4.17-6.13-7.04-.88-2.88-1.31-6.67-1.31-11.4l.16-44.77h-14.73v-12h14.73v-25.44h15.99v25.44h19.08v12h-19.08Z"/>
  <path class="cls-4" d="M843.51,217.77h-16.15v-13.93h-1.1c-2.07,4.3-5.27,7.92-9.59,10.86-4.34,2.95-9.62,4.41-15.83,4.41-7.02,0-12.74-1.59-17.14-4.76-4.4-3.2-7.6-7.26-9.59-12.2-1.97-4.96-2.94-10.18-2.94-15.67v-46.06h15.99v43.88c0,6.84,1.81,12.19,5.45,16.02,3.63,3.81,8.44,5.7,14.42,5.7,6.32,0,11.28-2.03,14.89-6.1,3.63-4.07,5.45-9.27,5.45-15.62v-43.88h16.15v77.35Z"/>
  <path class="cls-4" d="M889.75,218.81c-7.02,0-13.09-1.71-18.19-5.16-5.07-3.43-8.94-8.18-11.59-14.23-2.62-6.07-3.93-12.99-3.93-20.73s1.34-14.78,4.04-20.83c2.69-6.07,6.58-10.86,11.69-14.33,5.14-3.47,11.28-5.21,18.45-5.21s12.8,1.57,17.04,4.71c4.26,3.15,7.47,6.77,9.65,10.86h1.1v-13.49h16.15v77.35h-16.15v-14.97h-1.1c-2.28,4.3-5.6,8.06-9.96,11.26-4.34,3.17-10.07,4.76-17.2,4.76ZM895.15,206.16c7.37,0,13-2.65,16.88-7.98,3.88-5.36,5.82-11.9,5.82-19.64s-1.94-14.23-5.82-19.49c-3.88-5.28-9.52-7.93-16.88-7.93s-13.09,2.65-16.93,7.93c-3.81,5.26-5.71,11.7-5.71,19.34s1.89,14.43,5.66,19.78c3.77,5.33,9.44,7.98,16.99,7.98Z"/>
  <path class="cls-4" d="M974.95,218.36c-6.64,0-11.57-.97-14.78-2.93-3.18-1.98-5.19-4.51-6.03-7.59s-1.26-7.05-1.26-11.95l.16-88.26h15.99v85.63c0,3.61.17,6.3.52,8.08.38,1.76,1.39,3.17,3.04,4.26,1.68,1.07,4.31,1.59,7.92,1.59,1.95,0,3.72-.15,5.29-.45v10.86c-4.34.5-7.96.74-10.85.74Z"/>
  <g>
    <path class="cls-5" d="M176.32,232.67l-17.05,17.05c-4.71,4.71-12.35,4.71-17.06,0l-45.19-45.19c-18.83-18.84-49.37-18.84-68.21,0l34.1-34.1-45.19-45.19c-4.71-4.71-4.71-12.35,0-17.06l17.05-17.05c4.71-4.71,12.35-4.71,17.06,0l45.19,45.19h0l.17.17c18.85,18.66,49.26,18.61,68.03-.17l-34.1,34.1,45.19,45.19c4.71,4.71,4.71,12.35,0,17.06Z"/>
    <path class="cls-1" d="M176.07,108.43l-17.05-17.05c-2.17-2.17-4.97-3.34-7.82-3.51-3.32-.2-6.7.97-9.24,3.51l-9.58,9.58-26.1,26.1-9.5,9.51.18.17c18.74,18.55,48.91,18.61,67.7.15.11-.11.22-.21.33-.32l11.09-11.08c4.7-4.71,4.7-12.34,0-17.06Z"/>
    <path class="cls-3" d="M97.02,204.28l-8.73,8.73-34.31,34.32-7.08,5.12c-4.14,1.29-8.84.3-12.12-2.98l-17.05-17.05c-.1-.1-.19-.2-.28-.29-4.42-4.73-4.33-12.15.28-16.77l4.85-4.85h.01s6.22-6.23,6.22-6.23c18.7-18.71,48.95-18.84,67.81-.39.13.12.27.25.4.39Z"/>
    <circle class="cls-2" cx="97.02" cy="73.23" r="26.48"/>
  </g>
</svg>