<svg xmlns="http://www.w3.org/2000/svg" xmlns:xlink="http://www.w3.org/1999/xlink" x="0px" y="0px" viewBox="0 0 668 192" style="enable-background:new 0 0 668 192;" xml:space="preserve"><style type="text/css">	.st0{fill:#FF9900;}	.st1{display:none;}	.st2{display:inline;opacity:0.69;fill:#FFFFFF;}</style><g id="Livello_1">	<path class="st0" d="M129.4,49L157,37.9l-34.4,111.8h-19.2l-24.7-56l-24.3,56H32.3L0,37.9l28.6,10.7l16.5,59.8l23.4-48l20.1,0.2  l21.9,48.6L129.4,49z"></path>	<path class="st0" d="M259.4,106.6h-71.8c0.4,6.2,1.8,11.2,4.3,15c2.5,3.8,6.5,6.5,11.8,8.3c5.3,1.8,12.3,2.7,21,2.7  c8.5,0,18.1-1.3,28.6-3.6v18.7c-10.7,2.5-21.6,3.8-32.4,3.8c-19.9,0-35-4.2-44.6-12.7c-9.8-8.5-14.7-21.6-14.7-39.3  c0-10.9,2-20.3,5.8-28.1c4-7.8,9.6-13.8,17.2-17.9c7.6-4.2,16.7-6.2,27.2-6.2c15.4,0,27.2,4.5,35.3,13.8  c8.2,9.2,12.1,22.3,12.1,39.2V106.6z M193.9,70.6c-4,4.5-6.2,11.6-6.3,21.2h47.7c-0.2-9.6-2.4-16.7-6.3-21.2  c-4-4.5-9.8-6.9-17.4-6.9C203.9,63.7,197.9,66,193.9,70.6z"></path>	<path class="st0" d="M346,51.3c7.1,2.7,12.3,7.1,16,13.2c3.4,6.2,5.3,14.5,5.3,25.2v60h-21.8l-1.8-10.2h-1.3  c-3.6,3.8-8.3,6.7-13.8,8.9c-5.6,2-11.4,3.1-17.8,3.1c-7.6,0-14.3-1.3-19.6-3.6c-5.4-2.4-9.4-5.8-12.3-10.1  c-2.9-4.4-4.2-9.2-4.2-15c0-9.2,3.6-16.3,10.7-21.4c7.1-5.1,18.3-8.2,33.5-9.2l22.7-2.2v-2c0-5.4-0.9-9.8-2.9-12.9  c-2-3.1-4.9-5.3-8.9-6.5c-4-1.3-9.2-2-16-2c-4.7,0-9.8,0.4-15.2,1.1c-5.4,0.7-10.7,2-15.6,3.4V52.2c5.3-1.6,10.9-2.9,17.2-3.6  c6.2-0.9,12.3-1.3,17.9-1.3C329.7,47.4,339,48.6,346,51.3z M330.8,131.8c4-1.5,7.6-3.6,10.9-6.3v-21l-20.7,1.8  c-7.2,0.7-12.5,2.2-15.8,4.5c-3.3,2.4-4.7,5.6-4.7,9.8s1.5,7.4,4.4,9.8c2.9,2.4,7.4,3.4,13.2,3.4  C322.6,134,326.8,133.3,330.8,131.8z"></path>	<path class="st0" d="M467.7,80.3v38.3c-3.3,2.9-7.1,5.3-11.2,6.7c-4.2,1.6-8.7,2.4-13,2.4c-8.5,0-15.2-2.4-20.1-7.1  c-4.9-4.7-7.2-12.3-7.2-22.8c0-21.6,11.1-30.7,33.2-32.3c4.1-0.3,4.9-0.1,6,0c0.9,0.2,0,0,0,0l23.1-8c1.1-0.5,14.1-5,15.7-5.8l0,0  c-6.2-1.8-13.1-3.3-20.5-4.2c-7.4-0.9-14.9-1.5-21.9-1.5c-20.1,0-35.5,4.7-45.9,14c-10.3,9.2-15.6,22.7-15.6,40.1  c0,10.5,2,19.6,6,26.8c3.8,7.2,9.2,12.7,16,16.3c6.7,3.6,14.3,5.4,22.7,5.4c6.5,0,12.3-1.1,17.8-3.1c5.4-2,10-4.9,14-8.7h1.3v6.7  c0,6.5-1.1,11.8-3.4,15.8c-2.4,4-6,6.9-10.9,8.7c-4.9,1.8-11.4,2.7-19.6,2.7c-11.4,0-23.6-1.8-36.6-5.4v20.3  c11.8,3.3,24.5,4.9,38.2,5.3c13.4,0,24.3-1.8,33-5.4c8.7-3.6,15-9.2,19.2-16.9c4.2-7.6,6.3-17.4,6.3-29.5V71.1"></path>	<path class="st0" d="M520.8,149.8V0.4h26.1v149.2L520.8,149.8z"></path>	<path class="st0" d="M667.4,106.6h-71.8c0.4,6.2,1.8,11.2,4.4,15c2.5,3.8,6.5,6.5,11.8,8.3c5.3,1.8,12.3,2.7,21,2.7  c8.5,0,18.1-1.3,28.6-3.6v18.7c-10.7,2.5-21.6,3.8-32.4,3.8c-19.9,0-35-4.2-44.6-12.7c-9.8-8.5-14.7-21.6-14.7-39.3  c0-10.9,2-20.3,5.8-28.1c4-7.8,9.6-13.8,17.2-17.9c7.6-4.2,16.7-6.2,27.2-6.2c15.4,0,27.2,4.5,35.3,13.8  c8.2,9.2,12.1,22.3,12.1,39.2V106.6z M601.8,70.6c-4,4.5-6.2,11.6-6.3,21.2h47.7c-0.2-9.6-2.4-16.7-6.3-21.2  c-4-4.5-9.8-6.9-17.4-6.9C611.7,63.7,605.9,66,601.8,70.6z"></path></g><g id="Livello_2" class="st1">	<path class="st2" d="M455.2,70.3l48.9-17l4.5,17.6l-48.9,17L455.2,70.3z"></path></g></svg>