<?xml version="1.0"?>
<svg xmlns="http://www.w3.org/2000/svg" width="356" height="100" viewBox="0 0 356 100" fill="none">
<path d="M38.4639 15.9558V44.3548H12.3825V15.9558H0V83.7469H12.3825V56.2701H38.4639V83.7469H50.8463V15.9558H38.4639Z" fill="white"/>
<path d="M90.4754 61.8334C90.4754 64.5503 89.3961 67.1558 87.475 69.0769C85.5539 70.998 82.9484 72.0773 80.2315 72.0773C77.5147 72.0773 74.9091 70.998 72.988 69.0769C71.0669 67.1558 69.9876 64.5503 69.9876 61.8334V32.7974H58.2422V61.8334C58.2422 67.6597 60.5567 73.2474 64.6765 77.3672C68.7963 81.487 74.384 83.8015 80.2103 83.8015C86.0366 83.8015 91.6242 81.487 95.7441 77.3672C99.8639 73.2474 102.178 67.6597 102.178 61.8334V32.7974H90.4754V61.8334Z" fill="white"/>
<path d="M177.498 35.7884C177.498 29.8368 181.436 27.95 185.749 27.95C189.225 27.95 193.818 30.5951 196.821 33.8045L204.514 24.7406C200.674 19.5474 192.884 15.9558 186.508 15.9558C173.767 15.9558 164.552 23.418 164.552 35.7884C164.552 58.7393 192.605 51.4591 192.605 64.3026C192.605 68.2643 188.758 71.7648 184.354 71.7648C177.407 71.7648 175.156 68.3674 171.965 64.7758L163.429 73.6516C168.889 80.3555 175.624 83.759 183.692 83.759C195.796 83.759 205.533 76.2058 205.533 64.3997C205.533 38.9189 177.48 46.8361 177.48 35.7884" fill="white"/>
<path d="M351.047 72.9175C344.107 72.9175 342.135 69.9144 342.135 65.3158V44.9614H352.922V34.6478H342.135V21.0398L330.226 26.3847V67.8456C330.226 78.4505 337.542 83.7954 347.577 83.7954C349.151 83.8241 350.723 83.6981 352.273 83.4193L355.179 72.7234C353.868 72.8144 352.364 72.9054 351.047 72.9054" fill="white"/>
<path d="M135.182 33.1372C129.364 33.1372 125.305 34.8238 121.38 38.6762V16.3623H109.616V57.7201C109.616 73.2027 120.81 83.8076 133.386 83.8076C147.34 83.8076 159.613 73.0146 159.613 58.4784C159.613 44.1242 148.317 33.1432 135.182 33.1432V33.1372ZM135.109 71.9711C132.469 71.9711 129.889 71.1883 127.694 69.7217C125.499 68.2551 123.788 66.1706 122.778 63.7317C121.768 61.2929 121.504 58.6092 122.019 56.0201C122.534 53.4311 123.805 51.0528 125.671 49.1862C127.538 47.3196 129.916 46.0484 132.505 45.5334C135.094 45.0184 137.778 45.2827 140.217 46.2929C142.656 47.3031 144.74 49.0139 146.207 51.2088C147.673 53.4037 148.456 55.9842 148.456 58.624C148.456 62.1639 147.05 65.5588 144.547 68.0618C142.044 70.5649 138.649 71.9711 135.109 71.9711Z" fill="white"/>
<path d="M262.914 57.8596C262.914 43.2991 250.665 32.5305 236.687 32.5305C224.11 32.5305 212.917 43.1353 212.917 58.6179V100H224.681V77.6557C228.6 81.5021 232.665 83.1948 238.477 83.1948C251.611 83.1948 262.908 72.2198 262.908 57.8596H262.914ZM251.775 57.714C251.775 60.3538 250.992 62.9343 249.526 65.1292C248.059 67.3241 245.975 69.0349 243.536 70.0451C241.097 71.0553 238.413 71.3196 235.824 70.8046C233.235 70.2896 230.857 69.0184 228.99 67.1518C227.124 65.2852 225.852 62.907 225.337 60.3179C224.822 57.7288 225.087 55.0451 226.097 52.6063C227.107 50.1674 228.818 48.0829 231.013 46.6163C233.208 45.1497 235.788 44.3669 238.428 44.3669C241.968 44.3669 245.363 45.7731 247.866 48.2762C250.369 50.7792 251.775 54.1741 251.775 57.714Z" fill="white"/>
<path d="M300.801 32.3424V20.6455C302.346 19.9235 303.655 18.7772 304.575 17.3401C305.494 15.9029 305.986 14.2341 305.994 12.5281V12.255C305.987 9.87083 305.037 7.58609 303.352 5.90018C301.666 4.21427 299.381 3.2643 296.997 3.2579H296.724C294.339 3.2643 292.055 4.21427 290.369 5.90018C288.683 7.58609 287.733 9.87083 287.727 12.255V12.5281C287.734 14.2341 288.226 15.9029 289.146 17.3401C290.065 18.7772 291.374 19.9235 292.92 20.6455V32.3424C288.475 33.022 284.29 34.8638 280.786 37.6812L248.668 12.6919C248.897 11.8675 249.019 11.0173 249.032 10.162C249.035 8.15453 248.442 6.19145 247.328 4.52099C246.215 2.85052 244.631 1.5477 242.778 0.777265C240.924 0.00683079 238.883 -0.196609 236.914 0.192672C234.945 0.581952 233.135 1.54647 231.714 2.96425C230.293 4.38204 229.324 6.18941 228.93 8.15782C228.536 10.1262 228.734 12.1673 229.5 14.0228C230.266 15.8784 231.565 17.4651 233.233 18.5824C234.901 19.6997 236.863 20.2973 238.87 20.2997C240.633 20.2931 242.364 19.8223 243.887 18.9347L275.465 43.5176C272.621 47.8086 271.137 52.8578 271.208 58.0054C271.278 63.1531 272.899 68.1598 275.86 72.3715L266.25 81.9814C265.478 81.7358 264.675 81.605 263.866 81.5932C262.216 81.5932 260.603 82.0824 259.231 82.999C257.859 83.9157 256.79 85.2185 256.159 86.7428C255.527 88.2671 255.362 89.9443 255.684 91.5625C256.006 93.1807 256.8 94.6671 257.967 95.8337C259.134 97.0004 260.62 97.7949 262.238 98.1167C263.856 98.4386 265.534 98.2734 267.058 97.642C268.582 97.0106 269.885 95.9414 270.802 94.5696C271.718 93.1978 272.208 91.585 272.208 89.9351C272.196 89.1255 272.066 88.3221 271.819 87.5508L281.326 78.044C284.429 80.4144 288.033 82.0444 291.862 82.8096C295.692 83.5748 299.645 83.455 303.421 82.4592C307.197 81.4635 310.696 79.6181 313.65 77.0641C316.604 74.5101 318.935 71.3149 320.466 67.7224C321.997 64.13 322.687 60.2352 322.483 56.3356C322.279 52.4359 321.187 48.6343 319.289 45.2211C317.392 41.8079 314.74 38.8733 311.536 36.6413C308.332 34.4093 304.66 32.9389 300.801 32.3424V32.3424ZM296.863 70.8184C294.262 70.8184 291.719 70.047 289.556 68.6017C287.393 67.1565 285.707 65.1023 284.711 62.6989C283.716 60.2955 283.455 57.6509 283.963 55.0995C284.471 52.548 285.723 50.2044 287.563 48.3649C289.402 46.5255 291.746 45.2728 294.297 44.7653C296.849 44.2577 299.493 44.5182 301.897 45.5137C304.3 46.5093 306.354 48.1951 307.799 50.3581C309.245 52.5211 310.016 55.0641 310.016 57.6655C310.016 61.1539 308.63 64.4994 306.164 66.966C303.697 69.4327 300.352 70.8184 296.863 70.8184" fill="white"/>
</svg>
