<svg width="464" height="100" viewBox="0 0 464 100" fill="none" xmlns="http://www.w3.org/2000/svg">
<circle cx="6.64382" cy="26.4239" r="6.64382" fill="#30FF9C"/>
<circle cx="6.64382" cy="65.6543" r="6.64382" fill="#30FF9C"/>
<circle cx="6.64382" cy="46.0396" r="6.64382" fill="#FBFBFB"/>
<circle cx="26.3206" cy="26.4239" r="6.64382" fill="#30FF9C"/>
<circle cx="26.3206" cy="65.6543" r="6.64382" fill="#FBFBFB"/>
<circle cx="26.3206" cy="6.8091" r="6.64382" fill="#FBFBFB"/>
<circle cx="45.9964" cy="26.4239" r="6.64382" fill="#30FF9C"/>
<circle cx="45.9964" cy="65.6543" r="6.64382" fill="#30FF9C"/>
<circle cx="46.1038" cy="46.0396" r="6.64382" fill="#30FF9C"/>
<circle cx="45.9964" cy="6.8091" r="6.64382" fill="#FBFBFB"/>
<circle cx="65.6731" cy="26.4239" r="6.64382" fill="#FBFBFB"/>
<circle cx="65.7805" cy="46.0396" r="6.64382" fill="#FBFBFB"/>
<circle cx="65.6731" cy="6.8091" r="6.64382" fill="#FBFBFB"/>
<path d="M464 73.394C461.088 74.0374 458.21 74.2744 455.365 74.1051C452.521 73.9697 449.981 73.3432 447.747 72.2258C445.546 71.0746 443.886 69.3138 442.769 66.9435C441.855 65.0134 441.347 63.0664 441.245 61.1025C441.144 59.1385 441.093 56.8867 441.093 54.3472V3.30151H446.985V54.2456C446.985 56.5481 447.002 58.4613 447.036 59.985C447.103 61.4749 447.459 62.8463 448.102 64.0992C449.321 66.4356 451.251 67.8577 453.892 68.3657C456.534 68.8397 459.903 68.7551 464 68.1117V73.394ZM428.801 23.8721V18.539H464V23.8721H428.801Z" fill="#FBFBFB"/>
<path d="M420.42 73.3939V44.849C420.42 41.3952 420.064 38.3138 419.353 35.6049C418.676 32.896 417.626 30.5935 416.204 28.6972C414.816 26.801 413.055 25.3619 410.922 24.38C408.822 23.398 406.334 22.907 403.455 22.907C400.476 22.907 397.885 23.4318 395.684 24.4815C393.517 25.4974 391.723 26.9365 390.3 28.7988C388.912 30.6612 387.862 32.8791 387.151 35.4525C386.474 37.9921 386.135 40.7687 386.135 43.7824L381.513 43.2237C381.513 37.298 382.512 32.422 384.51 28.5957C386.542 24.7355 389.268 21.8912 392.688 20.0627C396.108 18.2003 399.951 17.2691 404.217 17.2691C407.231 17.2691 409.923 17.7093 412.293 18.5897C414.697 19.4701 416.78 20.723 418.541 22.3483C420.301 23.9398 421.757 25.836 422.909 28.037C424.06 30.2041 424.906 32.5913 425.448 35.1986C426.024 37.8059 426.312 40.5317 426.312 43.376V73.3939H420.42ZM380.244 73.3939V0.253906H385.577V42.5126H386.135V73.3939H380.244Z" fill="#FBFBFB"/>
<path d="M346.824 99.2977C344.115 99.2977 341.407 98.8913 338.698 98.0787C336.023 97.2998 333.517 96.0131 331.181 94.2185C328.844 92.4577 326.863 90.1044 325.238 87.1584L330.52 84.0094C332.179 87.3955 334.533 89.8165 337.58 91.2726C340.628 92.7286 343.726 93.4566 346.875 93.4566C351.311 93.4566 354.816 92.627 357.389 90.9678C359.996 89.3425 361.859 86.8876 362.976 83.603C364.094 80.3524 364.652 76.306 364.652 71.4638V57.0898H365.262V18.5389H370.595V71.4638C370.595 73.0891 370.561 74.6468 370.493 76.1366C370.426 77.6265 370.273 79.1164 370.036 80.6063C369.427 84.839 368.174 88.3266 366.278 91.0694C364.381 93.846 361.808 95.9115 358.557 97.266C355.34 98.6204 351.429 99.2977 346.824 99.2977ZM346.57 74.9176C341.39 74.9176 337.005 73.6479 333.415 71.1083C329.86 68.5348 327.134 65.0641 325.238 60.696C323.376 56.294 322.444 51.3503 322.444 45.8648C322.444 40.447 323.376 35.5541 325.238 31.186C327.1 26.8179 329.775 23.3641 333.263 20.8245C336.785 18.2849 341.034 17.0151 346.012 17.0151C351.125 17.0151 355.442 18.268 358.964 20.7737C362.485 23.2794 365.143 26.7163 366.938 31.0844C368.732 35.4186 369.63 40.3454 369.63 45.8648C369.63 51.3503 368.732 56.2771 366.938 60.6452C365.143 65.0133 362.536 68.484 359.116 71.0575C355.696 73.6309 351.514 74.9176 346.57 74.9176ZM346.926 69.3306C351.023 69.3306 354.426 68.3147 357.135 66.2831C359.878 64.2175 361.909 61.424 363.23 57.9024C364.585 54.347 365.262 50.3345 365.262 45.8648C365.262 41.3613 364.585 37.3487 363.23 33.8272C361.876 30.3056 359.844 27.5629 357.135 25.5989C354.426 23.6011 351.057 22.6022 347.028 22.6022C342.863 22.6022 339.426 23.635 336.717 25.7005C334.008 27.7322 331.993 30.5088 330.673 34.0303C329.352 37.518 328.692 41.4629 328.692 45.8648C328.692 50.3006 329.369 54.2962 330.723 57.8516C332.112 61.3732 334.143 64.1667 336.818 66.2323C339.527 68.2978 342.896 69.3306 346.926 69.3306Z" fill="#FBFBFB"/>
<path d="M308.957 7.46638V0H314.798V7.46638H308.957ZM308.957 73.394V18.539H314.798V73.394H308.957Z" fill="#FBFBFB"/>
<path d="M280.002 74.8161C273.67 74.8161 268.439 73.4786 264.308 70.8035C260.211 68.1285 257.671 64.4038 256.689 59.6294L262.682 58.6135C263.529 61.8642 265.527 64.4546 268.676 66.3847C271.825 68.3147 275.685 69.2798 280.256 69.2798C284.794 69.2798 288.4 68.3147 291.075 66.3847C293.75 64.4546 295.087 61.8134 295.087 58.4611C295.087 56.6326 294.664 55.1428 293.818 53.9915C293.005 52.8063 291.38 51.7228 288.942 50.7408C286.504 49.7588 282.881 48.6076 278.072 47.287C272.993 45.9325 269.014 44.5781 266.136 43.2236C263.292 41.8692 261.277 40.3285 260.092 38.6016C258.941 36.8747 258.365 34.7584 258.365 32.2526C258.365 29.239 259.229 26.5978 260.955 24.3291C262.682 22.0266 265.087 20.2319 268.168 18.9452C271.283 17.6585 274.872 17.0151 278.936 17.0151C282.999 17.0151 286.656 17.6924 289.907 19.0468C293.157 20.3674 295.782 22.2297 297.779 24.6339C299.777 27.0042 300.929 29.7638 301.233 32.9129L295.24 34.0303C294.664 30.5088 292.886 27.7322 289.907 25.7005C286.927 23.635 283.202 22.5853 278.733 22.5514C274.5 22.4837 271.046 23.3302 268.371 25.091C265.696 26.8179 264.359 29.1036 264.359 31.9479C264.359 33.5732 264.816 34.9615 265.73 36.1128C266.678 37.2302 268.337 38.263 270.707 39.2111C273.078 40.1592 276.43 41.175 280.764 42.2586C286.047 43.613 290.161 45.0014 293.107 46.4235C296.086 47.8457 298.186 49.5218 299.405 51.4519C300.624 53.3481 301.233 55.7015 301.233 58.5119C301.233 63.5911 299.337 67.5867 295.545 70.4988C291.786 73.377 286.605 74.8161 280.002 74.8161Z" fill="#FBFBFB"/>
<path d="M220.321 74.9177C216.393 74.9177 213.058 74.1727 210.315 72.6828C207.606 71.1591 205.541 69.1443 204.119 66.6386C202.73 64.099 202.036 61.3055 202.036 58.258C202.036 55.7184 202.426 53.3989 203.204 51.2995C203.983 49.2001 205.236 47.3547 206.963 45.7632C208.724 44.1379 211.077 42.7834 214.023 41.6999C216.055 40.9549 218.476 40.2947 221.286 39.719C224.097 39.1434 227.28 38.6016 230.835 38.0937C234.39 37.5519 238.301 36.9593 242.568 36.316L237.59 39.0587C237.59 35.8081 236.812 33.4208 235.254 31.8971C233.696 30.3733 231.089 29.6115 227.432 29.6115C225.4 29.6115 223.284 30.1025 221.083 31.0844C218.882 32.0664 217.341 33.8103 216.461 36.316L203.966 32.3542C205.355 27.8168 207.962 24.126 211.788 21.2816C215.614 18.4373 220.829 17.0151 227.432 17.0151C232.274 17.0151 236.574 17.7601 240.333 19.25C244.092 20.7399 246.936 23.3133 248.866 26.9703C249.95 29.002 250.593 31.0336 250.796 33.0653C250.999 35.097 251.101 37.3657 251.101 39.8714V73.3939H239.012V62.1181L240.739 64.4546C238.064 68.1454 235.169 70.8205 232.054 72.4797C228.973 74.105 225.062 74.9177 220.321 74.9177ZM223.267 64.0482C225.807 64.0482 227.94 63.608 229.667 62.7276C231.428 61.8134 232.816 60.7806 233.832 59.6294C234.881 58.4781 235.593 57.513 235.965 56.7342C236.676 55.2443 237.082 53.5174 237.184 51.5535C237.319 49.5557 237.387 47.8965 237.387 46.5759L241.45 47.5917C237.353 48.269 234.035 48.8446 231.495 49.3186C228.956 49.7588 226.907 50.1652 225.35 50.5376C223.792 50.9101 222.421 51.3165 221.235 51.7566C219.881 52.2984 218.78 52.891 217.934 53.5344C217.121 54.1439 216.512 54.8211 216.105 55.566C215.733 56.311 215.547 57.1406 215.547 58.0548C215.547 59.3077 215.851 60.3912 216.461 61.3055C217.104 62.1859 218.002 62.8631 219.153 63.3371C220.304 63.8112 221.676 64.0482 223.267 64.0482Z" fill="#FBFBFB"/>
<path d="M168.412 74.9177C163.367 74.9177 158.948 73.6479 155.156 71.1083C151.363 68.5687 148.4 65.1149 146.267 60.7468C144.168 56.3787 143.118 51.4519 143.118 45.9664C143.118 40.3793 144.185 35.4187 146.318 31.0845C148.485 26.7164 151.515 23.2795 155.41 20.7737C159.304 18.268 163.875 17.0152 169.123 17.0152C174.338 17.0152 178.723 18.285 182.278 20.8245C185.834 23.3641 188.526 26.818 190.354 31.186C192.183 35.5541 193.097 40.4809 193.097 45.9664C193.097 51.4519 192.166 56.3787 190.303 60.7468C188.475 65.1149 185.732 68.5687 182.075 71.1083C178.418 73.6479 173.864 74.9177 168.412 74.9177ZM170.647 62.6261C173.728 62.6261 176.183 61.9319 178.012 60.5436C179.874 59.1553 181.212 57.2083 182.024 54.7026C182.837 52.1969 183.243 49.2848 183.243 45.9664C183.243 42.648 182.837 39.736 182.024 37.2303C181.212 34.7245 179.908 32.7775 178.113 31.3892C176.353 30.0009 174.033 29.3068 171.155 29.3068C168.074 29.3068 165.534 30.0686 163.536 31.5924C161.572 33.0823 160.116 35.097 159.168 37.6366C158.22 40.1423 157.746 42.9189 157.746 45.9664C157.746 49.0478 158.203 51.8583 159.117 54.3978C160.032 56.9036 161.437 58.9014 163.333 60.3913C165.229 61.8811 167.667 62.6261 170.647 62.6261ZM183.243 73.3939V35.8081H181.516V0.253906H195.433V73.3939H183.243Z" fill="#FBFBFB"/>
<path d="M76.3149 73.3939L98.6633 0.253906H119.285L141.633 73.3939H127.411L107.501 8.88849H110.142L90.5366 73.3939H76.3149ZM89.7239 58.1564V45.2553H128.326V58.1564H89.7239Z" fill="#FBFBFB"/>
</svg>
