<?xml version="1.0" encoding="UTF-8"?> <svg xmlns="http://www.w3.org/2000/svg" width="200" height="50" viewBox="0 0 200 50" fill="none"><path fill-rule="evenodd" clip-rule="evenodd" d="M24.0051 38.5932C24.9032 38.5932 25.8014 38.2439 26.4577 37.5453L35.3354 28.6386L43.2114 20.7797L43.6259 21.1989C45.7676 23.3994 45.7676 26.962 43.5914 29.1625L27.9086 44.8803C26.8377 45.9281 25.4559 46.487 24.0397 46.487V38.5932H24.0051ZM24.0051 11.4888V3.56005C25.4214 3.56005 26.8722 4.08397 27.9431 5.23661L34.5409 11.9429L42.6933 11.8381L38.548 15.9945L34.2991 20.2558L34.161 20.3955L26.4577 12.5366C25.7668 11.873 24.8687 11.4888 24.0051 11.4888ZM19.9635 44.8454L13.2275 37.9994L5.35151 38.1042L9.35858 34.0525L13.7111 29.6865L21.4143 37.5803C22.1398 38.3138 23.0724 38.6281 23.9706 38.6281V46.5569C22.5543 46.5219 21.1034 45.9631 19.9635 44.8454ZM24.0051 3.56005V11.4888C23.107 11.4539 22.1743 11.8031 21.4489 12.4668L12.7093 21.2687L11.5348 22.4563L4.69518 29.2673L4.28066 28.8482C2.13895 26.6477 2.13895 23.1199 4.3152 20.9194L19.998 5.20168C21.1034 4.04904 22.5543 3.52512 24.0051 3.56005Z" fill="#00A2EE"></path><path fill-rule="evenodd" clip-rule="evenodd" d="M23.0033 29.7214L19.3072 25.9491C18.8236 25.4252 18.8236 24.5869 19.3072 24.063L23.0033 20.3606C23.5215 19.8367 24.3505 19.8367 24.8687 20.3606L28.5649 24.1329C29.0485 24.6219 29.0485 25.4951 28.5649 25.9841L24.8687 29.7214C24.3505 30.2104 23.487 30.2104 23.0033 29.7214Z" fill="#00A2EE"></path><path fill-rule="evenodd" clip-rule="evenodd" d="M34.5413 11.9431L42.6937 11.8384L40.241 14.3183L34.5068 14.3532L27.9089 7.68189C25.7327 5.44647 22.2092 5.44647 19.9984 7.61203L4.31559 23.3298C3.55563 24.1331 3.07202 25.0762 2.79567 26.0542C2.45023 24.2379 2.96839 22.3169 4.35014 20.9197L20.033 5.20197C22.2092 3.00149 25.7327 3.03642 27.9089 5.2369L34.5413 11.9431Z" fill="#00A2EE"></path><path fill-rule="evenodd" clip-rule="evenodd" d="M7.73502 38.0343L5.31696 38.0693L9.32403 34.0176L13.6765 29.6515L21.3798 37.5104C22.7615 38.9075 25.0069 38.9075 26.3886 37.5453L35.2664 28.6386L43.1423 20.7797L43.5568 21.1989C44.9731 22.6309 45.4567 24.6568 45.0422 26.4381C44.835 25.4601 44.3168 24.4472 43.5223 23.6438L43.1078 23.2247L35.2318 31.0487L26.3541 39.9903C24.9723 41.3875 22.727 41.3875 21.3452 39.9903L13.642 32.0965L9.28949 36.4626L7.73502 38.0343Z" fill="#00A2EE"></path><path d="M73.1263 13.3051V16.5883H62.7286V19.2429H72.6081V22.4563H62.7286V27.3113H58.5143V13.34H73.1263V13.3051Z" fill="#00A2EE"></path><path d="M91.6762 14.0735C92.7471 14.8768 93.058 16.3089 93.058 20.2907C93.058 24.3075 92.7471 25.7046 91.6762 26.5429C90.6054 27.3462 89.3273 27.5209 83.593 27.5209C77.7551 27.5209 76.477 27.3812 75.4407 26.5429C74.3698 25.7046 74.0589 24.3075 74.0589 20.2208C74.0589 16.3089 74.3698 14.9117 75.4407 14.0735C76.5115 13.2701 77.7897 13.0955 83.5585 13.0955C89.3273 13.0955 90.6054 13.2352 91.6762 14.0735ZM78.5842 17.6012C78.3424 18.0902 78.2387 18.8936 78.2387 20.6749C78.2387 22.4213 78.3769 22.9802 78.8605 23.3644C79.4132 23.8185 80.0696 23.8534 83.5585 23.8534C86.9438 23.8534 87.6346 23.7835 88.1873 23.3644C88.6709 22.9802 88.8091 22.3864 88.8091 20.6749C88.8091 18.6141 88.6709 17.8108 88.3255 17.3567C87.8419 16.7979 87.3928 16.728 83.5239 16.728C79.3787 16.728 78.9987 16.7979 78.5842 17.6012Z" fill="#00A2EE"></path><path d="M112.022 21.8975C112.057 22.7008 112.057 23.0152 112.057 23.2247C112.057 25.4951 111.47 26.508 109.95 27.0319C108.844 27.3812 107.325 27.5209 104.25 27.5209C98.8268 27.5209 97.0996 27.3463 95.9942 26.7176C95.0961 26.1936 94.6815 25.4252 94.5088 23.9932C94.4397 23.3644 94.4052 22.2118 94.4052 20.4305C94.4052 17.3218 94.4743 16.1692 94.7852 15.3658C95.5451 13.4797 97.0305 13.1304 104.285 13.1304C107.981 13.1304 109.259 13.2701 110.226 13.7941C111.401 14.3879 111.815 15.4357 111.815 17.6711V18.3697H107.601C107.566 17.4615 107.532 17.252 107.255 17.0424C106.945 16.763 105.736 16.6582 103.076 16.6582C100.45 16.6582 99.6904 16.7281 99.2758 17.0773C98.7922 17.4965 98.6195 18.2998 98.6195 20.4305C98.6195 24.0281 98.6886 24.063 103.11 24.063C107.739 24.063 107.808 24.0281 107.808 21.9673H112.022V21.8975Z" fill="#00A2EE"></path><path d="M117.653 13.3051V19.7319C117.688 21.9324 117.688 21.9673 117.791 22.5261C118.033 23.6438 118.828 23.8534 122.42 23.8534C125.322 23.8534 126.185 23.7137 126.634 23.2247C126.98 22.8754 127.084 22.4912 127.118 21.1639C127.153 20.6749 127.153 20.0113 127.153 19.7319V13.3051H131.367V19.7319C131.298 22.9104 131.298 23.1199 131.16 24.0979C130.918 25.7046 129.882 26.7874 128.293 27.1367C127.049 27.3812 125.667 27.486 122.455 27.486C117.169 27.486 115.511 27.2065 114.475 26.0888C113.784 25.3903 113.577 24.5171 113.473 22.4563C113.439 22.0022 113.439 22.0022 113.439 19.7319V13.3051H117.653Z" fill="#00A2EE"></path><path d="M136.859 22.6659C136.859 23.5042 136.928 23.7836 137.274 23.9931C137.654 24.2376 138.138 24.2726 141.074 24.2726C145.599 24.2726 145.599 24.2726 145.599 23.0501C145.599 22.2118 145.288 22.0022 143.941 21.9673L140.625 21.8276L138.379 21.7228L137.274 21.6879C133.854 21.5831 132.887 20.7099 132.887 17.6362C132.887 14.9816 133.647 13.7941 135.547 13.3749C136.341 13.2003 138.276 13.1304 141.592 13.1304C145.599 13.1304 147.05 13.3051 148.052 14.0036C148.881 14.5625 149.226 15.4357 149.226 17.1123C149.226 17.1821 149.226 17.4965 149.191 17.7759H145.115C145.081 17.0075 145.012 16.7979 144.701 16.6233C144.355 16.4137 143.837 16.3788 140.832 16.3788C137.274 16.3788 136.963 16.4486 136.963 17.4965C136.963 18.0204 137.136 18.2998 137.585 18.4046C137.965 18.5094 139.105 18.5793 142.006 18.6491C146.566 18.7888 147.464 18.8936 148.362 19.4525C149.33 20.0812 149.675 21.0242 149.675 22.9802C149.675 25.4252 149.088 26.6128 147.672 27.1367C146.843 27.4511 145.115 27.5558 140.97 27.5558C136.687 27.5558 134.994 27.3812 134.027 26.7525C133.06 26.1587 132.749 25.3204 132.749 23.3994V22.7357H136.859V22.6659Z" fill="#00A2EE"></path><path d="M160.764 13.3051V18.2998H170.263V13.3051H174.685V27.2764H170.263V22.2467H160.764V27.3113H156.342V13.34H160.764V13.3051Z" fill="#3A3D4B"></path><path d="M195.411 27.451L194.064 26.473C192.924 27.3812 191.749 27.5209 185.704 27.5209C180.074 27.5209 178.795 27.3462 177.725 26.5429C176.654 25.7395 176.343 24.3075 176.343 20.2907C176.343 16.2739 176.654 14.8768 177.725 14.0735C178.795 13.2701 180.074 13.0955 185.842 13.0955C191.611 13.0955 192.924 13.2352 193.96 14.0735C195.031 14.9117 195.342 16.3089 195.342 20.3955C195.342 21.7228 195.307 22.8405 195.204 23.539L197 24.4472L195.411 27.451ZM191.093 21.129C191.128 20.9194 191.128 20.7797 191.128 20.6749C191.128 18.6141 190.989 17.8108 190.644 17.3567C190.16 16.7979 189.711 16.728 185.842 16.728C181.697 16.728 181.317 16.7979 180.903 17.6012C180.661 18.0902 180.557 18.8936 180.557 20.6749C180.557 22.3864 180.695 23.0151 181.179 23.3644C181.732 23.8185 182.388 23.8534 186.015 23.8534C188.088 23.8534 188.848 23.8185 189.573 23.7137L185.117 21.3385L186.81 18.3696L191.093 21.129Z" fill="#3A3D4B"></path><path d="M62.9013 33.1094H61.2087V38.0693H60.276V33.1094H58.5834V32.341H62.9359V33.1094H62.9013Z" fill="#3A3D4B"></path><path d="M66.0794 34.6812H65.6648C65.4921 34.6812 65.3194 34.7162 65.2158 34.786C65.0776 34.8559 65.0085 34.9607 64.9394 35.1353V38.0693H64.0067V33.808H64.8703L64.9394 34.4367C65.043 34.2272 65.1812 34.0525 65.3539 33.9128C65.5266 33.7731 65.6994 33.7382 65.9412 33.7382C66.0103 33.7382 66.0448 33.7382 66.1139 33.7382C66.183 33.7382 66.2175 33.7731 66.2521 33.7731L66.0794 34.6812Z" fill="#3A3D4B"></path><path d="M70.0173 38.0693C69.9828 37.9645 69.9482 37.8597 69.9482 37.7549C69.9137 37.6501 69.9137 37.5453 69.9137 37.4406C69.7755 37.6501 69.6028 37.7898 69.3955 37.9296C69.1883 38.0693 68.9465 38.1391 68.7047 38.1391C68.2556 38.1391 67.9447 38.0343 67.7029 37.7898C67.4611 37.5453 67.3575 37.2659 67.3575 36.8468C67.3575 36.4276 67.5302 36.1133 67.8411 35.9037C68.152 35.6941 68.601 35.5544 69.1883 35.5544H69.9137V35.1702C69.9137 34.9607 69.8446 34.786 69.7064 34.6463C69.5683 34.5066 69.3955 34.4717 69.1537 34.4717C68.9465 34.4717 68.7737 34.5415 68.6356 34.6114C68.4974 34.7162 68.4283 34.8559 68.4283 35.0305H67.5302V34.9956C67.4956 34.6463 67.6683 34.3669 67.9792 34.1224C68.2901 33.8779 68.7047 33.7382 69.2228 33.7382C69.7064 33.7382 70.121 33.8779 70.3973 34.1224C70.6737 34.3669 70.8464 34.7511 70.8464 35.2051V37.0913C70.8464 37.2659 70.8464 37.4406 70.8809 37.5803C70.9155 37.7549 70.95 37.8946 70.9845 38.0693H70.0173V38.0693ZM68.8774 37.3707C69.1192 37.3707 69.3264 37.3009 69.5337 37.1961C69.7064 37.0913 69.8446 36.9516 69.9137 36.7769V36.1831H69.1537C68.8774 36.1831 68.6701 36.253 68.4974 36.3927C68.3592 36.5324 68.2556 36.7071 68.2556 36.8817C68.2556 37.0564 68.3247 37.1611 68.4283 37.2659C68.5319 37.3358 68.6701 37.3707 68.8774 37.3707Z" fill="#3A3D4B"></path><path d="M73.4372 33.808L73.5062 34.4367C73.6444 34.2272 73.8171 34.0525 74.0244 33.9128C74.2317 33.808 74.4735 33.7382 74.7153 33.7382C75.1643 33.7382 75.5098 33.8779 75.7516 34.1573C75.9934 34.4367 76.1316 34.8559 76.1316 35.4147V38.0693H75.1989V35.4147C75.1989 35.1004 75.1298 34.8559 74.9916 34.7511C74.8535 34.6114 74.6462 34.5415 74.4044 34.5415C74.2317 34.5415 74.0589 34.5764 73.9208 34.6812C73.7826 34.7511 73.6444 34.8908 73.5753 35.0305V38.1042H72.6427V33.808H73.4372Z" fill="#3A3D4B"></path><path d="M80.1732 36.9166C80.1732 36.7769 80.1041 36.6372 80.0005 36.5673C79.8623 36.4626 79.655 36.3927 79.3096 36.3228C78.7914 36.2181 78.4115 36.0783 78.1696 35.8688C77.9278 35.6592 77.7897 35.4147 77.7897 35.0654C77.7897 34.7161 77.9278 34.4018 78.2387 34.1573C78.5496 33.9128 78.9296 33.7731 79.4132 33.7731C79.9314 33.7731 80.3459 33.9128 80.6223 34.1573C80.9331 34.4018 81.0713 34.7161 81.0713 35.1003V35.1353H80.1732C80.1732 34.9606 80.1041 34.8209 79.9659 34.6812C79.8277 34.5415 79.655 34.5066 79.4132 34.5066C79.1714 34.5066 78.9987 34.5415 78.8951 34.6463C78.7914 34.7511 78.7223 34.8908 78.7223 35.0305C78.7223 35.1702 78.7914 35.3099 78.8951 35.3798C78.9987 35.4846 79.2405 35.5544 79.5859 35.6243C80.1041 35.7291 80.5186 35.9037 80.7604 36.0783C81.0022 36.2879 81.1404 36.5673 81.1404 36.8817C81.1404 37.2659 80.9677 37.5803 80.6568 37.8248C80.3459 38.0693 79.9314 38.174 79.4132 38.174C78.8605 38.174 78.446 38.0343 78.1351 37.7549C77.8242 37.4755 77.686 37.1611 77.686 36.7769V36.742H78.5496C78.5496 36.9865 78.6533 37.1611 78.826 37.2659C78.9987 37.3707 79.206 37.4405 79.4478 37.4405C79.6896 37.4405 79.8623 37.4056 80.0005 37.3008C80.1386 37.196 80.1732 37.0913 80.1732 36.9166Z" fill="#3A3D4B"></path><path d="M86.391 36.0784C86.391 36.7071 86.2529 37.1961 85.9765 37.5803C85.7002 37.9645 85.2856 38.1391 84.7675 38.1391C84.5257 38.1391 84.3184 38.1042 84.1457 37.9994C83.973 37.8946 83.8003 37.7898 83.6621 37.6152V39.676H82.7294V33.808H83.5239L83.6275 34.3319C83.7657 34.1224 83.9384 33.9827 84.1111 33.8779C84.2839 33.7731 84.5257 33.7382 84.7675 33.7382C85.2856 33.7382 85.7002 33.9477 85.9765 34.3669C86.2529 34.786 86.4256 35.3099 86.4256 36.0085V36.0784H86.391ZM85.4584 36.0085C85.4584 35.5894 85.3893 35.2051 85.2165 34.9607C85.0438 34.6812 84.802 34.5415 84.4911 34.5415C84.2839 34.5415 84.1111 34.5764 84.0075 34.6812C83.9039 34.786 83.7657 34.8908 83.6621 35.0305V36.9516C83.7312 37.0913 83.8693 37.231 84.0075 37.3008C84.1457 37.3707 84.3184 37.4056 84.5257 37.4056C84.8366 37.4056 85.0784 37.3009 85.2511 37.0564C85.4238 36.8119 85.4929 36.4975 85.4929 36.1133V36.0085H85.4584Z" fill="#3A3D4B"></path><path d="M90.5017 38.0693C90.4672 37.9645 90.4327 37.8597 90.4327 37.7549C90.3981 37.6501 90.3981 37.5453 90.3981 37.4406C90.2599 37.6501 90.0872 37.7898 89.88 37.9296C89.6727 38.0693 89.4309 38.1391 89.1891 38.1391C88.74 38.1391 88.4291 38.0343 88.1873 37.7898C87.9455 37.5453 87.8419 37.2659 87.8419 36.8468C87.8419 36.4276 88.0146 36.1133 88.3255 35.9037C88.6364 35.6941 89.0854 35.5544 89.6727 35.5544H90.3981V35.1702C90.3981 34.9607 90.329 34.786 90.1908 34.6463C90.0527 34.5066 89.88 34.4717 89.6381 34.4717C89.4309 34.4717 89.2582 34.5415 89.12 34.6114C88.9818 34.7162 88.9127 34.8559 88.9127 35.0305H88.0146V34.9956C87.98 34.6463 88.1528 34.3669 88.4637 34.1224C88.7746 33.8779 89.1891 33.7382 89.7072 33.7382C90.1908 33.7382 90.6054 33.8779 90.8817 34.1224C91.1581 34.3669 91.3308 34.7511 91.3308 35.2051V37.0913C91.3308 37.2659 91.3308 37.4406 91.3653 37.5803C91.3999 37.7549 91.4344 37.8946 91.469 38.0693H90.5017V38.0693ZM89.3273 37.3707C89.5691 37.3707 89.7763 37.3009 89.9836 37.1961C90.1563 37.0913 90.2945 36.9516 90.3636 36.7769V36.1831H89.6036C89.3273 36.1831 89.12 36.253 88.9473 36.3927C88.8091 36.5324 88.7055 36.7071 88.7055 36.8817C88.7055 37.0564 88.7746 37.1611 88.8782 37.2659C88.9818 37.3358 89.1545 37.3707 89.3273 37.3707Z" fill="#3A3D4B"></path><path d="M95.1306 34.6812H94.7161C94.5433 34.6812 94.3706 34.7162 94.267 34.786C94.1288 34.8559 94.0597 34.9607 93.9906 35.1353V38.0693H93.058V33.808H93.9216L93.9906 34.4367C94.0943 34.2272 94.2325 34.0525 94.4052 33.9128C94.5779 33.7731 94.7506 33.7382 94.9924 33.7382C95.0615 33.7382 95.096 33.7382 95.1651 33.7382C95.2342 33.7382 95.2688 33.7731 95.3033 33.7731L95.1306 34.6812Z" fill="#3A3D4B"></path><path d="M98.3432 38.1391C97.7559 38.1391 97.2723 37.9295 96.9269 37.5453C96.5814 37.1611 96.4087 36.6372 96.4087 36.0434V35.9037C96.4087 35.275 96.5814 34.786 96.9269 34.3669C97.2723 33.9477 97.7214 33.7731 98.2395 33.7731C98.7922 33.7731 99.2413 33.9477 99.5522 34.297C99.8631 34.6463 100.001 35.1003 100.001 35.6941V36.253H97.3759V36.2879C97.3759 36.6372 97.4796 36.9166 97.6523 37.1262C97.825 37.3358 98.0668 37.4406 98.4123 37.4406C98.6541 37.4406 98.8959 37.4056 99.0686 37.3358C99.2413 37.2659 99.414 37.1961 99.5867 37.0563L99.8976 37.6851C99.7249 37.8248 99.5177 37.9295 99.2758 38.0343C99.034 38.1391 98.6886 38.1391 98.3432 38.1391ZM98.2395 34.5066C97.9977 34.5066 97.825 34.6114 97.6523 34.786C97.4796 34.9606 97.4105 35.2051 97.3759 35.4846V35.5195H99.034V35.4147C99.034 35.1353 98.9649 34.9257 98.8268 34.7511C98.7231 34.6114 98.5159 34.5066 98.2395 34.5066Z" fill="#3A3D4B"></path><path d="M102.35 33.808L102.419 34.4367C102.557 34.2272 102.73 34.0525 102.937 33.9128C103.145 33.808 103.387 33.7382 103.628 33.7382C104.077 33.7382 104.423 33.8779 104.665 34.1573C104.906 34.4367 105.045 34.8559 105.045 35.4147V38.0693H104.077V35.4147C104.077 35.1004 104.008 34.8559 103.87 34.7511C103.732 34.6463 103.525 34.5415 103.283 34.5415C103.11 34.5415 102.937 34.5764 102.799 34.6812C102.661 34.7511 102.523 34.8908 102.454 35.0305V38.1042H101.521V33.808H102.35Z" fill="#3A3D4B"></path><path d="M108.499 37.3707C108.741 37.3707 108.914 37.3008 109.086 37.1611C109.259 37.0214 109.328 36.8467 109.328 36.6372H110.192V36.6721C110.192 37.0563 110.053 37.4056 109.708 37.685C109.363 37.9644 108.983 38.1042 108.499 38.1042C107.877 38.1042 107.394 37.8946 107.083 37.5104C106.737 37.0912 106.599 36.6022 106.599 35.9735V35.8338C106.599 35.2051 106.772 34.7161 107.083 34.297C107.428 33.8778 107.877 33.7032 108.499 33.7032C109.017 33.7032 109.397 33.8429 109.743 34.1573C110.053 34.4367 110.192 34.8209 110.192 35.275V35.3099H109.328C109.328 35.0654 109.259 34.8908 109.086 34.7161C108.948 34.5415 108.741 34.4716 108.499 34.4716C108.154 34.4716 107.877 34.6113 107.739 34.8558C107.601 35.1003 107.532 35.4845 107.532 35.8687V36.0085C107.532 36.3927 107.601 36.742 107.739 36.9865C107.877 37.231 108.154 37.3707 108.499 37.3707Z" fill="#3A3D4B"></path><path d="M113.093 36.3578L113.197 36.7769H113.232L114.164 33.808H115.201L113.473 38.698C113.37 38.9774 113.197 39.2568 112.99 39.4664C112.782 39.676 112.506 39.7808 112.126 39.7808C112.057 39.7808 111.953 39.7807 111.884 39.7458C111.781 39.7458 111.712 39.7109 111.642 39.676L111.746 38.9425C111.781 38.9425 111.815 38.9425 111.884 38.9425C111.953 38.9425 111.988 38.9425 112.022 38.9425C112.195 38.9425 112.333 38.8726 112.437 38.7678C112.541 38.663 112.61 38.5233 112.679 38.3487L112.817 37.9645L111.297 33.7731H112.333L113.093 36.3578Z" fill="#3A3D4B"></path><path d="M128.914 36.1831C128.949 36.7769 128.742 37.2659 128.362 37.6152C127.982 37.9645 127.463 38.174 126.807 38.174C126.151 38.174 125.598 37.9645 125.184 37.5104C124.769 37.0563 124.562 36.4975 124.562 35.7989V34.7161C124.562 34.0176 124.769 33.4587 125.184 33.0046C125.598 32.5506 126.116 32.341 126.773 32.341C127.429 32.341 127.982 32.5156 128.362 32.8649C128.742 33.2142 128.949 33.7032 128.914 34.297V34.3319H128.016C128.016 33.9477 127.913 33.6334 127.705 33.4238C127.498 33.2142 127.187 33.1094 126.807 33.1094C126.427 33.1094 126.116 33.2491 125.874 33.5635C125.633 33.8779 125.529 34.2621 125.529 34.7161V35.7989C125.529 36.253 125.633 36.6721 125.874 36.9515C126.116 37.231 126.427 37.4056 126.807 37.4056C127.187 37.4056 127.498 37.3008 127.705 37.0913C127.913 36.8817 128.016 36.5673 128.016 36.1831H128.914V36.1831Z" fill="#3A3D4B"></path><path d="M130.296 35.9037C130.296 35.275 130.469 34.7511 130.814 34.3669C131.16 33.9477 131.643 33.7731 132.231 33.7731C132.818 33.7731 133.301 33.9826 133.647 34.3669C133.992 34.786 134.165 35.275 134.165 35.9037V35.9736C134.165 36.6023 133.992 37.1262 133.647 37.5453C133.301 37.9295 132.852 38.1391 132.231 38.1391C131.643 38.1391 131.16 37.9295 130.814 37.5453C130.469 37.1262 130.296 36.6372 130.296 35.9736V35.9037ZM131.263 35.9736C131.263 36.3927 131.332 36.7071 131.505 36.9865C131.678 37.231 131.92 37.3707 132.265 37.3707C132.611 37.3707 132.852 37.231 132.991 36.9865C133.163 36.742 133.232 36.3927 133.232 35.9736V35.9037C133.232 35.4846 133.163 35.1702 132.991 34.8908C132.818 34.6114 132.576 34.5066 132.231 34.5066C131.885 34.5066 131.643 34.6463 131.505 34.8908C131.332 35.1702 131.263 35.4846 131.263 35.9037V35.9736Z" fill="#3A3D4B"></path><path d="M136.583 33.808L136.652 34.4367C136.79 34.2272 136.963 34.0525 137.17 33.9128C137.378 33.808 137.619 33.7382 137.861 33.7382C138.31 33.7382 138.656 33.8779 138.897 34.1573C139.139 34.4367 139.277 34.8559 139.277 35.4147V38.0693H138.345V35.4147C138.345 35.1004 138.276 34.8559 138.138 34.7511C137.999 34.6463 137.792 34.5415 137.55 34.5415C137.378 34.5415 137.205 34.5764 137.067 34.6812C136.928 34.7511 136.79 34.8908 136.721 35.0305V38.1042H135.789V33.808H136.583Z" fill="#3A3D4B"></path><path d="M142.179 32.795V33.8429H142.939V34.5415H142.179V36.8817C142.179 37.0563 142.214 37.196 142.283 37.2659C142.352 37.3357 142.455 37.3707 142.594 37.3707C142.628 37.3707 142.697 37.3707 142.732 37.3707C142.766 37.3707 142.835 37.3357 142.87 37.3357L142.974 38.0343C142.905 38.0692 142.801 38.1041 142.697 38.1391C142.594 38.174 142.455 38.174 142.352 38.174C142.006 38.174 141.73 38.0692 141.523 37.8597C141.316 37.6501 141.212 37.3357 141.212 36.8817V34.5415H140.556V33.8429H141.212V32.795H142.179V32.795Z" fill="#3A3D4B"></path><path d="M146.601 34.6812H146.186C146.013 34.6812 145.841 34.7162 145.737 34.786C145.634 34.8559 145.53 34.9607 145.461 35.1353V38.0693H144.494V33.808H145.357L145.426 34.4367C145.53 34.2272 145.668 34.0525 145.841 33.9128C146.013 33.7731 146.186 33.7382 146.428 33.7382C146.497 33.7382 146.532 33.7382 146.601 33.7382C146.635 33.7382 146.704 33.7731 146.739 33.7731L146.601 34.6812Z" fill="#3A3D4B"></path><path d="M147.844 35.9037C147.844 35.275 148.017 34.7511 148.362 34.3669C148.708 33.9477 149.191 33.7731 149.779 33.7731C150.366 33.7731 150.85 33.9826 151.195 34.3669C151.54 34.786 151.713 35.275 151.713 35.9037V35.9736C151.713 36.6023 151.54 37.1262 151.195 37.5453C150.85 37.9295 150.401 38.1391 149.779 38.1391C149.191 38.1391 148.708 37.9295 148.362 37.5453C148.017 37.1262 147.844 36.6372 147.844 35.9736V35.9037ZM148.777 35.9736C148.777 36.3927 148.846 36.7071 149.019 36.9865C149.192 37.231 149.433 37.3707 149.779 37.3707C150.124 37.3707 150.366 37.231 150.504 36.9865C150.677 36.742 150.746 36.3927 150.746 35.9736V35.9037C150.746 35.4846 150.677 35.1702 150.504 34.8908C150.331 34.6114 150.09 34.5066 149.744 34.5066C149.399 34.5066 149.157 34.6463 149.019 34.8908C148.846 35.1702 148.777 35.4846 148.777 35.9037V35.9736Z" fill="#3A3D4B"></path><path d="M154.269 38.0692H153.337V31.9568H154.269V38.0692Z" fill="#3A3D4B"></path><path d="M165.358 35.6941V38.0693H164.425V32.341H166.498C167.12 32.341 167.603 32.4807 167.949 32.7601C168.294 33.0396 168.467 33.4587 168.467 33.9826C168.467 34.2621 168.398 34.5415 168.225 34.7511C168.087 34.9606 167.845 35.1353 167.569 35.275C167.88 35.3798 168.121 35.5544 168.26 35.764C168.398 36.0085 168.467 36.2879 168.467 36.6023V37.0913C168.467 37.2659 168.501 37.4056 168.536 37.5803C168.571 37.7549 168.64 37.8597 168.743 37.9295V38.0343H167.776C167.672 37.9645 167.603 37.8248 167.569 37.6152C167.534 37.4056 167.534 37.231 167.534 37.0563V36.6023C167.534 36.3228 167.465 36.0783 167.292 35.9037C167.12 35.7291 166.912 35.6592 166.602 35.6592H165.358V35.6941ZM165.358 34.9257H166.463C166.843 34.9257 167.12 34.8558 167.292 34.7161C167.465 34.5764 167.569 34.3319 167.569 34.0525C167.569 33.7731 167.5 33.5286 167.327 33.3889C167.154 33.2491 166.912 33.1444 166.532 33.1444H165.393V34.9257H165.358Z" fill="#3A3D4B"></path><path d="M172.094 38.1391C171.507 38.1391 171.023 37.9295 170.678 37.5453C170.332 37.1611 170.16 36.6372 170.16 36.0434V35.9037C170.16 35.275 170.332 34.786 170.678 34.3669C171.023 33.9477 171.472 33.7731 171.99 33.7731C172.543 33.7731 172.992 33.9477 173.303 34.297C173.614 34.6463 173.752 35.1003 173.752 35.6941V36.253H171.127V36.2879C171.127 36.6372 171.23 36.9166 171.403 37.1262C171.576 37.3358 171.818 37.4406 172.163 37.4406C172.405 37.4406 172.647 37.4056 172.819 37.3358C172.992 37.2659 173.165 37.1961 173.338 37.0563L173.648 37.6851C173.476 37.8248 173.268 37.9295 173.027 38.0343C172.785 38.1391 172.439 38.1391 172.094 38.1391ZM171.99 34.5066C171.749 34.5066 171.576 34.6114 171.403 34.786C171.23 34.9606 171.161 35.2051 171.127 35.4846V35.5195H172.785V35.4147C172.785 35.1353 172.716 34.9257 172.578 34.7511C172.474 34.6114 172.267 34.5066 171.99 34.5066Z" fill="#3A3D4B"></path><path d="M177.621 36.9166C177.621 36.7769 177.552 36.6372 177.448 36.5673C177.31 36.4626 177.103 36.3927 176.757 36.3228C176.239 36.2181 175.859 36.0783 175.617 35.8688C175.376 35.6592 175.237 35.4147 175.237 35.0654C175.237 34.7161 175.376 34.4018 175.687 34.1573C175.997 33.9128 176.377 33.7731 176.861 33.7731C177.379 33.7731 177.794 33.9128 178.07 34.1573C178.381 34.4018 178.519 34.7161 178.519 35.1003V35.1353H177.621C177.621 34.9606 177.552 34.8209 177.414 34.6812C177.276 34.5415 177.103 34.5066 176.861 34.5066C176.619 34.5066 176.447 34.5415 176.343 34.6463C176.239 34.7511 176.17 34.8908 176.17 35.0305C176.17 35.1702 176.239 35.3099 176.343 35.3798C176.447 35.4846 176.688 35.5544 177.034 35.6243C177.552 35.7291 177.966 35.9037 178.208 36.0783C178.45 36.2879 178.588 36.5673 178.588 36.8817C178.588 37.2659 178.415 37.5803 178.105 37.8248C177.794 38.0693 177.379 38.174 176.861 38.174C176.308 38.174 175.894 38.0343 175.583 37.7549C175.272 37.4755 175.134 37.1611 175.134 36.7769V36.742H175.997C175.997 36.9865 176.101 37.1611 176.274 37.2659C176.447 37.3707 176.654 37.4405 176.896 37.4405C177.137 37.4405 177.31 37.4056 177.448 37.3008C177.552 37.196 177.621 37.0913 177.621 36.9166Z" fill="#3A3D4B"></path><path d="M182.768 37.4406C182.63 37.6501 182.457 37.8248 182.284 37.9645C182.077 38.0693 181.835 38.1391 181.594 38.1391C181.144 38.1391 180.799 37.9994 180.523 37.72C180.281 37.4406 180.143 36.9865 180.143 36.3578V33.808H181.075V36.3578C181.075 36.742 181.144 36.9865 181.248 37.1262C181.352 37.2659 181.559 37.3358 181.801 37.3358C182.043 37.3358 182.215 37.3008 182.388 37.1961C182.526 37.1262 182.664 36.9865 182.733 36.8468V33.7731H183.666V38.0343H182.837L182.768 37.4406Z" fill="#3A3D4B"></path><path d="M186.395 38.0692H185.462V31.9568H186.395V38.0692Z" fill="#3A3D4B"></path><path d="M189.4 32.795V33.8429H190.16V34.5415H189.4V36.8817C189.4 37.0563 189.435 37.196 189.504 37.2659C189.573 37.3357 189.677 37.3707 189.815 37.3707C189.849 37.3707 189.919 37.3707 189.953 37.3707C189.988 37.3707 190.057 37.3357 190.091 37.3357L190.195 38.0343C190.126 38.0692 190.022 38.1041 189.919 38.1391C189.815 38.174 189.677 38.174 189.573 38.174C189.228 38.174 188.951 38.0692 188.744 37.8597C188.537 37.6501 188.433 37.3357 188.433 36.8817V34.5415H187.777V33.8429H188.433V32.795H189.4V32.795Z" fill="#3A3D4B"></path><path d="M194.098 36.9166C194.098 36.7769 194.029 36.6372 193.926 36.5673C193.787 36.4626 193.58 36.3927 193.235 36.3228C192.717 36.2181 192.337 36.0783 192.095 35.8688C191.853 35.6592 191.715 35.4147 191.715 35.0654C191.715 34.7161 191.853 34.4018 192.164 34.1573C192.475 33.9128 192.855 33.7731 193.338 33.7731C193.857 33.7731 194.271 33.9128 194.547 34.1573C194.858 34.4018 194.997 34.7161 194.997 35.1003V35.1353H194.098C194.098 34.9606 194.029 34.8209 193.891 34.6812C193.753 34.5415 193.58 34.5066 193.338 34.5066C193.097 34.5066 192.924 34.5415 192.82 34.6463C192.717 34.7511 192.648 34.8908 192.648 35.0305C192.648 35.1702 192.717 35.3099 192.82 35.3798C192.924 35.4846 193.166 35.5544 193.511 35.6243C194.029 35.7291 194.444 35.9037 194.686 36.0783C194.927 36.2879 195.066 36.5673 195.066 36.8817C195.066 37.2659 194.893 37.5803 194.582 37.8248C194.271 38.0693 193.857 38.174 193.338 38.174C192.786 38.174 192.371 38.0343 192.06 37.7549C191.749 37.4755 191.611 37.1611 191.611 36.7769V36.742H192.475C192.475 36.9865 192.578 37.1611 192.751 37.2659C192.924 37.3707 193.131 37.4405 193.373 37.4405C193.615 37.4405 193.787 37.4056 193.926 37.3008C194.029 37.196 194.098 37.0913 194.098 36.9166Z" fill="#3A3D4B"></path><path d="M119.864 36.5324C119.208 36.5324 118.655 35.9735 118.655 35.3099C118.655 34.6463 119.208 34.0874 119.864 34.0874C120.52 34.0874 121.073 34.6463 121.073 35.3099C121.073 35.9735 120.52 36.5324 119.864 36.5324Z" fill="#3A3D4B"></path><path d="M159.313 36.5324C158.656 36.5324 158.104 35.9735 158.104 35.3099C158.104 34.6463 158.656 34.0874 159.313 34.0874C159.969 34.0874 160.522 34.6463 160.522 35.3099C160.522 35.9735 160.004 36.5324 159.313 36.5324Z" fill="#3A3D4B"></path></svg> 