<svg width="386" height="94" viewBox="0 0 386 94" fill="none" xmlns="http://www.w3.org/2000/svg">
<path fill-rule="evenodd" clip-rule="evenodd" d="M385.328 30.4981C382.482 28.7541 384.149 30.2169 376.173 27.5227C373.81 26.7266 374.733 25.2215 373.285 24.806C373.203 24.7811 353.81 20.537 352.987 20.4151C351.357 20.1738 350.795 19.0169 349.688 18.8727C347.399 18.5716 345.237 17.5939 342.886 17.6113C342.441 17.6163 341.978 17.4447 341.548 17.2929C334.465 14.8101 341.073 16.9894 325.654 14.8524C319.193 13.9543 313.874 14.6434 310.936 13.9443C308.876 13.4543 302.03 13.8971 298.542 12.9368C297.942 12.7726 297.636 12.0163 298.539 11.7078C298.758 11.6332 324.768 11.8471 326.251 12.1208C328.617 12.5586 331.206 12.5412 331.231 12.1482C331.291 11.158 311.284 9.16779 310.053 9.1653C292.914 9.11306 291.611 9.08072 290.193 8.76477C283.64 7.29947 264.616 8.25229 237.576 7.92888C233.444 7.87912 225.58 7.51093 225.575 7.51093C222.356 7.81444 219.144 8.25229 215.895 7.92639C215.44 7.88161 214.969 7.93385 214.512 7.99604C209.678 8.64784 207.772 7.13526 202.573 7.12282C202.329 7.12282 107.318 4.71963 103.007 3.80413C101.158 3.41354 101.788 4.48826 98.0709 4.5007C97.2897 4.50319 96.5409 4.39125 95.8493 3.9932C95.5881 3.84144 95.3045 3.62003 95.0308 3.61754C93.0729 3.59018 92.6749 2.83887 88.6844 4.10515C88.0451 4.30915 87.5102 4.13002 86.9181 3.93597C86.3459 3.74939 85.7066 3.77427 85.1095 3.64739C84.3756 3.49066 83.7163 2.96824 82.8979 3.2195C82.2436 3.42101 81.7485 2.88116 81.1639 2.82643C80.5643 2.76921 79.9498 2.88115 79.3403 2.911C78.5666 2.94832 77.885 2.45078 77.0814 2.55029C76.4769 2.62492 75.84 2.64979 75.2454 2.54033C73.4119 2.20696 71.5511 2.53286 69.7151 2.27164C68.7722 2.1373 67.6179 4.09022 65.9187 2.60999C64.441 1.31883 63.3314 2.3438 62.4532 2.3637C57.2214 2.49058 56.6343 2.21444 55.0421 1.05761C54.0221 0.970542 53.0345 0.811309 52.0692 0.592384C51.8627 1.28648 50.9547 2.66223 50.3651 1.68702C49.3177 -0.0494587 46.2677 0.647116 42.9316 0.965552C41.8941 1.06506 40.5383 3.30906 37.8142 1.90843C34.6721 0.29386 31.8709 1.06756 27.3555 1.40839C23.3552 1.70941 23.7408 0.811309 20.0638 1.96067C15.3619 3.43344 14.8693 3.3812 14.4514 3.93846C12.9065 6.00084 11.058 5.5207 7.83386 6.88899C2.89312 8.9837 4.09223 11.5834 2.51497 12.8622C1.49996 13.6856 1.83829 14.1707 0.82079 16.0565C-0.532566 18.5592 0.377964 18.6686 0.350598 20.9375C0.333184 22.373 0.975033 23.4477 2.52244 24.1542C4.22657 24.9354 3.25633 26.2838 3.23146 26.8684C3.12448 29.4482 5.35851 29.2691 3.69667 31.4882C2.8558 32.6102 2.66922 32.4684 1.72883 33.4038C0.594401 34.5333 2.72892 34.3467 2.52741 36.6031C2.44531 37.5087 1.44771 38.6381 2.7936 39.4989C3.36828 39.8671 4.29374 39.8223 4.41067 40.8771C4.57984 42.4121 4.71666 43.9446 4.27384 45.4646C4.19174 45.7408 4.14696 46.104 4.25642 46.3478C5.25403 48.5718 4.78135 49.7336 5.58739 50.7213C6.22178 51.4975 7.25918 52.107 6.93079 52.9479C4.71666 58.5976 4.57237 59.1823 5.34359 60.864C5.59734 61.4188 7.34377 63.914 7.51294 65.9142C7.61245 67.0835 8.87127 67.0387 9.08771 69.1384C9.18224 70.0514 9.79921 70.2405 10.558 70.7878C12.3243 72.0566 9.82658 73.1064 12.0432 74.7583C13.1901 75.6141 13.1478 75.4673 14.2747 77.0371C14.7499 77.6989 15.5161 77.368 16.3496 77.9352C17.3123 78.592 19.0737 79.1915 20.529 79.8732C21.0415 80.1145 21.4595 81.4405 21.151 81.9082C20.4345 82.9904 19.1707 83.274 21.4271 86.8091C22.3974 88.3292 27.6093 87.7719 29.9553 87.7819C44.8223 87.8565 49.5864 88.048 54.9177 87.7644C61.3437 87.4211 64.2171 88.0729 66.4635 88.0132C68.4463 87.9585 67.889 86.2494 70.0683 86.3315C71.1704 86.3738 72.9989 86.5305 72.6681 85.4508C72.1606 83.789 71.3495 84.9955 55.5695 83.672C55.0098 83.6248 50.9198 80.6021 74.2851 82.5525C74.2851 82.5525 127.952 85.6399 128.265 85.6598C130.693 85.809 130.701 86.6027 132.78 86.5106C137.117 86.319 139.836 87.3316 142.428 86.3464C144.625 85.513 145.03 87.043 148.264 87.1326C151.991 87.2346 152.914 87.5704 154.651 86.7818C156.111 86.1175 156.825 87.762 159.136 87.0305C162.925 85.8339 163.838 88.2396 166.823 87.5007C168.368 87.1176 169.169 88.354 171.779 87.5754C173.117 87.1773 179.984 88.6526 183.668 87.2893C183.944 87.1873 184.28 87.1848 184.581 87.2072C194.9 88.0257 319.126 88.981 332.555 84.7094C333.468 84.4209 334.259 83.0576 333.047 82.8536C331.49 82.5923 331.112 82.7142 331.261 81.4654C331.468 79.7438 332.162 79.8359 333.445 79.7538C334.008 79.7189 334.615 79.7388 334.704 79.4453C334.948 78.6616 332.443 79.4528 331.41 79.0448C331.174 78.9502 331.181 78.4253 331.373 78.4178C349.514 77.5819 350.472 78.1666 350.621 76.4649C350.77 74.7782 351.825 74.813 354.579 73.9995C356.042 73.5666 352.843 72.0292 355.191 71.2132C356.98 70.5913 357.35 70.4494 357.368 70.4743C357.346 70.5017 357.291 70.5614 357.291 70.5614C357.338 70.5465 357.383 70.534 357.43 70.5216C357.418 70.5067 357.405 70.4917 357.395 70.4793C359.201 69.0016 359.079 69.7504 360.814 68.4916C361.567 67.9443 362.51 67.6457 363.423 67.7104C365.416 67.8547 367.409 67.6034 369.391 67.8099C370.705 67.9467 371.909 67.0387 371.414 67.3049C369.687 66.0784 370.018 67.1556 367.165 65.8222C366.471 65.4987 366.727 64.6181 367.443 64.5633C370.566 64.3245 370.227 65.5087 376.121 64.8246C376.728 64.7549 376.673 63.9663 376.417 63.8046C374.195 62.4164 373.563 63.0831 370.685 62.2995C367.861 61.5307 366.277 58.5902 367.682 58.4558C373.981 57.8538 373.489 59.0554 375.713 55.5849C376.817 53.8609 373.653 54.7515 371.603 53.3459C371.359 53.1792 371.384 52.6891 371.556 52.5772C372.352 52.0572 371.936 52.2015 376.031 52.4851C377.753 52.6021 377.977 51.2288 379.925 51.3905C386.162 51.9104 379.365 49.1814 377.8 48.8604C375.467 48.3828 375.758 46.7956 376.188 46.3702C377.952 44.6237 379.678 46.3179 381.422 45.7184C381.786 45.594 381.927 45.5691 380.878 42.3573C380.601 41.5115 379.196 41.3647 378.954 41.3647C376.454 41.3672 376.785 40.0985 373.827 38.6083C371.198 37.2823 369.837 37.8719 369.852 36.7922C369.867 35.7871 371.489 36.3021 371.439 35.5035C371.392 34.7397 369.74 35.3692 368.17 34.3865C367.727 34.1079 367.018 34.3218 366.802 33.6377C367.244 33.4237 367.71 33.476 368.143 33.6153C369.379 34.0133 372.543 34.4387 373.544 33.7621C374.063 33.4113 374.725 32.859 374.929 32.6948C374.67 31.4385 373.954 31.5653 372.506 30.9285C371.824 30.6274 371.205 28.5253 376.146 29.5552C384.669 31.334 384.248 31.4608 385.171 31.1623C385.629 31.0155 385.584 30.6672 385.328 30.5105V30.4981ZM326.353 79.7065C326.096 79.5921 326.522 78.985 327.5 79.3856C327.845 79.5274 327.102 80.0424 326.353 79.7065Z" fill="#A92631"/>
<path fill-rule="evenodd" clip-rule="evenodd" d="M145.108 91.2278C145.056 91.4268 145.243 91.7477 145.566 91.7925C146.7 91.9493 159.254 92.7155 162.52 92.1483C162.354 91.9094 145.419 90.061 145.108 91.2278Z" fill="#A92631"/>
<path fill-rule="evenodd" clip-rule="evenodd" d="M208.019 92.893C206.186 92.8682 204.355 92.6791 202.516 92.8308C201.598 92.9055 200.69 92.796 199.775 92.6791C191.284 91.6019 192.762 92.9378 193.274 93C196.837 93.4279 198.782 94.025 207.902 93.5598C208.741 93.5175 208.318 92.898 208.017 92.893H208.019Z" fill="#A92631"/>
<path fill-rule="evenodd" clip-rule="evenodd" d="M188.644 92.2208C178.723 92.1636 180.994 91.3824 178.18 92.0517C177.765 92.1512 177.623 92.7184 178.377 92.8079C181.026 93.1239 182.646 92.9199 186.151 93.0169C190.798 93.1438 188.888 92.2208 188.644 92.2208Z" fill="#A92631"/>
<path fill-rule="evenodd" clip-rule="evenodd" d="M182.691 89.9611C182.505 89.6899 182.259 89.5108 181.955 89.5033C174.85 89.354 174.745 88.6624 173.842 89.2272C173.074 89.7098 172.872 90.2521 173.738 90.2521C175.83 90.2521 181.084 90.6676 182.691 89.9586V89.9611Z" fill="#A92631"/>
<path fill-rule="evenodd" clip-rule="evenodd" d="M138.108 91.101C133.388 91.1209 132.759 91.2826 130.903 90.7602C130.56 90.6632 127.96 91.9295 138.454 91.6732C139.17 91.6558 138.65 91.0986 138.108 91.0986V91.101Z" fill="#A92631"/>
<path fill-rule="evenodd" clip-rule="evenodd" d="M213.628 92.8928C213.011 92.8655 212.934 93.4849 213.526 93.4899C214.439 93.4949 215.35 93.475 215.837 93.4675C217.815 93.3083 219.211 93.8954 220.28 93.174C219.522 92.5545 216.121 92.9998 213.63 92.8928H213.628Z" fill="#A92631"/>
<path fill-rule="evenodd" clip-rule="evenodd" d="M281.627 92.7385C280.04 93.0942 278.54 92.216 277.791 93.1689C277.915 93.2584 278.04 93.4276 278.164 93.4276C281.891 93.45 285.603 93.5047 285.18 92.9549C284.67 92.2907 282.448 92.5544 281.627 92.7385Z" fill="#A92631"/>
<path fill-rule="evenodd" clip-rule="evenodd" d="M73.0265 87.2647C70.5935 86.9711 71.0015 88.3544 72.738 88.1504C75.8477 87.7921 77.323 87.7797 73.0265 87.2647Z" fill="#A92631"/>
<path fill-rule="evenodd" clip-rule="evenodd" d="M360.985 70.7185C359.595 70.4374 358.689 70.1513 357.428 70.512C358.182 71.4798 359.918 71.1638 360.985 70.7185Z" fill="#A92631"/>
<path fill-rule="evenodd" clip-rule="evenodd" d="M240.797 92.9438C241.006 93.399 242.26 93.4289 242.869 93.0084C242.606 92.1701 240.63 92.5805 240.797 92.9438Z" fill="#A92631"/>
<path fill-rule="evenodd" clip-rule="evenodd" d="M174.31 91.9882C174.195 91.9086 174.088 91.7693 173.967 91.7568C170.548 91.4309 173.509 92.946 174.31 91.9882Z" fill="#A92631"/>
<path fill-rule="evenodd" clip-rule="evenodd" d="M125.419 90.5348C124.098 90.281 122.908 90.9826 125.299 90.9876C125.881 90.9876 126.058 90.6567 125.419 90.5348Z" fill="#A92631"/>
<path fill-rule="evenodd" clip-rule="evenodd" d="M106.819 89.7144C106.018 89.7293 105.6 89.5278 105.535 90.1099C107.943 90.6373 107.831 89.6945 106.819 89.7144Z" fill="#A92631"/>
<path fill-rule="evenodd" clip-rule="evenodd" d="M272.849 92.9747C272.25 93.0319 272.135 93.4349 272.745 93.5021C274.869 93.7409 274.941 92.7707 272.849 92.9747Z" fill="#A92631"/>
<path fill-rule="evenodd" clip-rule="evenodd" d="M377.25 32.7723C377.302 32.7748 377.367 32.5708 377.427 32.4613C376.618 32.1155 375.66 32.2225 374.969 32.6753C375.183 32.5907 376.081 32.7076 377.25 32.7723Z" fill="#A92631"/>
<path fill-rule="evenodd" clip-rule="evenodd" d="M100.148 89.0948C100.088 89.1122 100.063 89.2565 100.023 89.3436C100.277 89.4655 100.543 89.4655 100.817 89.3311C101.203 89.1396 100.387 89.0276 100.148 89.0948Z" fill="#A92631"/>
<path fill-rule="evenodd" clip-rule="evenodd" d="M188.278 89.7904C187.887 89.3948 186.805 89.4097 186.665 89.8749C186.444 90.6238 188.74 90.263 188.278 89.7904Z" fill="#A92631"/>
<path fill-rule="evenodd" clip-rule="evenodd" d="M167.867 91.8948C167.431 91.5988 166.327 91.6535 166.526 92.0938C166.685 92.4471 168.404 92.2605 167.867 91.8948Z" fill="#A92631"/>
<path fill-rule="evenodd" clip-rule="evenodd" d="M235.825 92.5654C234.902 92.5306 234.857 93.4561 235.837 93.4212C236.233 93.4088 237.004 93.4337 237.006 92.9386C237.006 92.4684 236.101 92.5754 235.825 92.5654Z" fill="#A92631"/>
<path fill-rule="evenodd" clip-rule="evenodd" d="M88.3565 88.6351C88.451 88.6077 88.5182 88.4933 88.6003 88.4162C87.4882 88.048 87.7345 88.8217 88.3565 88.6351Z" fill="#A92631"/>
<path fill-rule="evenodd" clip-rule="evenodd" d="M132.945 88.8826C132.903 88.5412 132.985 88.601 132.494 88.6359C132.529 88.9349 132.414 88.8951 132.945 88.8826Z" fill="#A92631"/>
<path fill-rule="evenodd" clip-rule="evenodd" d="M113.481 89.9845C113.461 90.5243 114.329 90.3327 114.342 90.0914C114.369 89.574 113.491 89.7431 113.481 89.9845Z" fill="#A92631"/>
<path fill-rule="evenodd" clip-rule="evenodd" d="M158.02 89.2044C157.406 88.8512 156.542 89.3039 157.316 89.5875C157.858 89.7866 158.294 89.3636 158.02 89.2044Z" fill="#A92631"/>
<path fill-rule="evenodd" clip-rule="evenodd" d="M119.984 90.6688C120.131 90.9076 119.984 91.0196 120.925 90.9176C121.193 90.8877 121.034 90.0792 119.984 90.6688Z" fill="#A92631"/>
<path fill-rule="evenodd" clip-rule="evenodd" d="M256.544 93.1929C256.442 93.1855 256.33 93.2974 256.223 93.3521C256.285 93.4367 256.35 93.5238 256.412 93.6084C256.539 93.6084 256.713 93.6581 256.782 93.5934C257.006 93.3944 256.909 93.2228 256.544 93.1904V93.1929Z" fill="#A92631"/>
<path fill-rule="evenodd" clip-rule="evenodd" d="M263.46 93.1143C262.321 93.1143 262.388 93.5422 262.975 93.6442C263.714 93.771 263.826 93.1143 263.46 93.1143Z" fill="#A92631"/>
<path fill-rule="evenodd" clip-rule="evenodd" d="M96.2911 89.2271L95.9023 89.1025C95.9223 89.4639 95.8326 89.429 96.2911 89.2271Z" fill="#A92631"/>
<path fill-rule="evenodd" clip-rule="evenodd" d="M288.408 92.7314C288.296 92.7961 288.186 92.8608 288.074 92.9255C288.141 93.02 288.194 93.1792 288.276 93.1942C288.629 93.2638 288.818 93.127 288.746 92.8708C288.726 92.7986 288.524 92.7762 288.408 92.7314Z" fill="#A92631"/>
<path fill-rule="evenodd" clip-rule="evenodd" d="M371.412 67.3007C371.412 67.3007 371.542 67.231 371.532 67.2335C371.519 67.236 371.412 67.3007 371.412 67.3007Z" fill="#A92631"/>
</svg>
