<svg width="386" height="95" viewBox="0 0 386 95" fill="none" xmlns="http://www.w3.org/2000/svg">
<path fill-rule="evenodd" clip-rule="evenodd" d="M385.328 30.7901C382.482 29.0461 384.149 30.5089 376.173 27.8147C373.81 27.0186 374.733 25.5135 373.285 25.098C373.203 25.0731 353.81 20.829 352.987 20.7071C351.357 20.4658 350.795 19.3089 349.688 19.1646C347.399 18.8636 345.237 17.8859 342.886 17.9033C342.441 17.9083 341.978 17.7366 341.548 17.5849C334.465 15.1021 341.073 17.2814 325.654 15.1444C319.193 14.2463 313.874 14.9354 310.936 14.2363C308.876 13.7462 302.03 14.1891 298.542 13.2288C297.942 13.0646 297.636 12.3083 298.539 11.9998C298.758 11.9252 324.768 12.1391 326.251 12.4128C328.617 12.8506 331.206 12.8332 331.231 12.4401C331.291 11.45 311.284 9.45978 310.053 9.4573C292.914 9.40505 291.611 9.37271 290.193 9.05677C283.64 7.59146 264.616 8.54428 237.576 8.22087C233.444 8.17112 225.58 7.80293 225.575 7.80293C222.356 8.10644 219.144 8.54428 215.895 8.21838C215.44 8.1736 214.969 8.22584 214.512 8.28803C209.678 8.93983 207.772 7.42726 202.573 7.41482C202.329 7.41482 107.318 5.01162 103.007 4.09612C101.158 3.70554 101.788 4.78026 98.0709 4.7927C97.2897 4.79518 96.5409 4.68324 95.8493 4.28519C95.5881 4.13344 95.3044 3.91202 95.0308 3.90953C93.0729 3.88217 92.6749 3.13086 88.6844 4.39715C88.0451 4.60114 87.5102 4.42201 86.9181 4.22796C86.3459 4.04138 85.7066 4.06626 85.1095 3.93939C84.3756 3.78266 83.7163 3.26023 82.8979 3.51149C82.2436 3.713 81.7485 3.17315 81.1639 3.11842C80.5643 3.0612 79.9498 3.17314 79.3403 3.203C78.5666 3.24031 77.885 2.74277 77.0814 2.84228C76.4769 2.91691 75.84 2.94178 75.2454 2.83232C73.4119 2.49895 71.5511 2.82485 69.7151 2.56363C68.7722 2.42929 67.6179 4.38222 65.9187 2.90198C64.441 1.61082 63.3314 2.63579 62.4532 2.65569C57.2214 2.78257 56.6343 2.50643 55.0421 1.34961C54.0221 1.26253 53.0345 1.1033 52.0692 0.884376C51.8627 1.57847 50.9547 2.95422 50.3651 1.97901C49.3177 0.242533 46.2677 0.939108 42.9316 1.25754C41.8942 1.35706 40.5383 3.60105 37.8142 2.20043C34.6721 0.585852 31.8709 1.35955 27.3555 1.70038C23.3552 2.0014 23.7408 1.1033 20.0638 2.25266C15.3619 3.72543 14.8693 3.67319 14.4514 4.23045C12.9065 6.29283 11.058 5.8127 7.83386 7.18098C2.89312 9.2757 4.09223 11.8754 2.51497 13.1541C1.49996 13.9776 1.83829 14.4627 0.82079 16.3485C-0.532566 18.8512 0.377964 18.9606 0.350598 21.2295C0.333184 22.665 0.975033 23.7397 2.52244 24.4462C4.22657 25.2274 3.25633 26.5758 3.23146 27.1604C3.12448 29.7402 5.35851 29.5611 3.69667 31.7802C2.8558 32.9022 2.66922 32.7604 1.72883 33.6958C0.594401 34.8253 2.72892 34.6387 2.52741 36.8951C2.44531 37.8006 1.44771 38.9301 2.7936 39.7909C3.36828 40.1591 4.29374 40.1143 4.41067 41.1691C4.57984 42.7041 4.71666 44.2366 4.27384 45.7566C4.19174 46.0327 4.14696 46.396 4.25642 46.6398C5.25403 48.8638 4.78135 50.0256 5.58739 51.0133C6.22177 51.7895 7.25918 52.399 6.93079 53.2399C4.71666 58.8896 4.57237 59.4742 5.34359 61.156C5.59734 61.7108 7.34377 64.206 7.51294 66.2062C7.61245 67.3755 8.87127 67.3307 9.08771 69.4304C9.18224 70.3434 9.79921 70.5325 10.558 71.0798C12.3243 72.3486 9.82658 73.3984 12.0432 75.0503C13.1901 75.9061 13.1478 75.7593 14.2747 77.3291C14.7499 77.9909 15.5161 77.66 16.3496 78.2272C17.3123 78.884 19.0737 79.4835 20.529 80.1652C21.0415 80.4065 21.4595 81.7325 21.151 82.2002C20.4345 83.2824 19.1707 83.566 21.4271 87.1011C22.3974 88.6212 27.6093 88.0639 29.9553 88.0739C44.8223 88.1485 49.5864 88.34 54.9177 88.0564C61.3437 87.7131 64.2171 88.3649 66.4635 88.3052C68.4463 88.2505 67.889 86.5414 70.0683 86.6235C71.1704 86.6658 72.9989 86.8225 72.6681 85.7428C72.1606 84.081 71.3495 85.2875 55.5695 83.964C55.0098 83.9168 50.9198 80.8941 74.2851 82.8445C74.2851 82.8445 127.952 85.9319 128.265 85.9518C130.693 86.101 130.701 86.8946 132.78 86.8026C137.117 86.611 139.836 87.6236 142.428 86.6384C144.625 85.805 145.03 87.335 148.264 87.4245C151.991 87.5265 152.914 87.8624 154.651 87.0738C156.111 86.4095 156.825 88.0539 159.136 87.3225C162.925 86.1259 163.838 88.5316 166.823 87.7927C168.368 87.4096 169.169 88.646 171.779 87.8674C173.117 87.4693 179.984 88.9446 183.668 87.5813C183.944 87.4793 184.28 87.4768 184.581 87.4992C194.9 88.3177 319.126 89.273 332.555 85.0014C333.468 84.7129 334.259 83.3495 333.047 83.1455C331.49 82.8843 331.112 83.0062 331.261 81.7574C331.468 80.0358 332.162 80.1279 333.445 80.0458C334.008 80.0109 334.615 80.0308 334.704 79.7373C334.948 78.9536 332.443 79.7447 331.41 79.3367C331.174 79.2422 331.181 78.7173 331.373 78.7098C349.514 77.8739 350.472 78.4586 350.621 76.7569C350.77 75.0702 351.825 75.105 354.579 74.2915C356.042 73.8586 352.843 72.3212 355.191 71.5052C356.98 70.8833 357.351 70.7414 357.368 70.7663C357.346 70.7937 357.291 70.8534 357.291 70.8534C357.338 70.8385 357.383 70.826 357.43 70.8136C357.418 70.7987 357.405 70.7837 357.395 70.7713C359.201 69.2936 359.08 70.0424 360.813 68.7836C361.567 68.2362 362.51 67.9377 363.423 68.0024C365.416 68.1467 367.409 67.8954 369.391 68.1019C370.705 68.2387 371.909 67.3307 371.414 67.5969C369.687 66.3704 370.018 67.4476 367.165 66.1142C366.471 65.7907 366.727 64.9101 367.443 64.8553C370.566 64.6165 370.227 65.8007 376.121 65.1165C376.728 65.0469 376.673 64.2583 376.417 64.0966C374.195 62.7084 373.563 63.3751 370.685 62.5915C367.861 61.8227 366.277 58.8822 367.682 58.7478C373.981 58.1458 373.489 59.3474 375.713 55.8769C376.817 54.1529 373.653 55.0435 371.603 53.6379C371.359 53.4712 371.384 52.9811 371.556 52.8692C372.352 52.3492 371.936 52.4935 376.031 52.7771C377.753 52.8941 377.977 51.5208 379.925 51.6825C386.162 52.2024 379.365 49.4733 377.8 49.1524C375.467 48.6748 375.758 47.0876 376.188 46.6621C377.952 44.9157 379.678 46.6099 381.422 46.0103C381.786 45.886 381.927 45.8611 380.878 42.6493C380.601 41.8035 379.196 41.6567 378.954 41.6567C376.454 41.6592 376.785 40.3904 373.827 38.9003C371.198 37.5743 369.837 38.1639 369.852 37.0842C369.867 36.0791 371.489 36.5941 371.439 35.7955C371.392 35.0317 369.74 35.6612 368.17 34.6785C367.727 34.3998 367.018 34.6138 366.802 33.9297C367.244 33.7157 367.71 33.768 368.143 33.9073C369.379 34.3053 372.543 34.7307 373.544 34.054C374.063 33.7033 374.725 33.151 374.929 32.9868C374.67 31.7305 373.954 31.8573 372.506 31.2204C371.824 30.9194 371.205 28.8173 376.146 29.8472C384.669 31.626 384.248 31.7528 385.171 31.4543C385.629 31.3075 385.584 30.9592 385.328 30.8025V30.7901ZM326.353 79.9985C326.096 79.8841 326.522 79.277 327.5 79.6776C327.845 79.8194 327.101 80.3343 326.353 79.9985Z" fill="#463631"/>
<path fill-rule="evenodd" clip-rule="evenodd" d="M145.108 91.5198C145.056 91.7188 145.243 92.0397 145.566 92.0845C146.7 92.2412 159.254 93.0075 162.52 92.4403C162.354 92.2014 145.419 90.353 145.108 91.5198Z" fill="#463631"/>
<path fill-rule="evenodd" clip-rule="evenodd" d="M208.019 93.185C206.186 93.1601 204.355 92.9711 202.516 93.1228C201.598 93.1975 200.69 93.088 199.775 92.9711C191.284 91.8939 192.762 93.2298 193.274 93.292C196.837 93.7199 198.782 94.317 207.902 93.8517C208.741 93.8095 208.318 93.19 208.017 93.185H208.019Z" fill="#463631"/>
<path fill-rule="evenodd" clip-rule="evenodd" d="M188.644 92.5128C178.723 92.4556 180.994 91.6744 178.18 92.3436C177.765 92.4432 177.623 93.0104 178.377 93.0999C181.026 93.4159 182.646 93.2119 186.151 93.3089C190.798 93.4358 188.888 92.5128 188.644 92.5128Z" fill="#463631"/>
<path fill-rule="evenodd" clip-rule="evenodd" d="M182.691 90.2531C182.505 89.9819 182.259 89.8028 181.955 89.7953C174.85 89.646 174.745 88.9544 173.842 89.5192C173.074 90.0018 172.872 90.5441 173.738 90.5441C175.83 90.5441 181.084 90.9596 182.691 90.2506V90.2531Z" fill="#463631"/>
<path fill-rule="evenodd" clip-rule="evenodd" d="M138.108 91.393C133.388 91.4129 132.759 91.5746 130.903 91.0522C130.56 90.9552 127.96 92.2215 138.454 91.9652C139.17 91.9478 138.65 91.3905 138.108 91.3905V91.393Z" fill="#463631"/>
<path fill-rule="evenodd" clip-rule="evenodd" d="M213.628 93.1848C213.011 93.1575 212.934 93.7769 213.526 93.7819C214.439 93.7869 215.35 93.767 215.837 93.7595C217.815 93.6003 219.211 94.1874 220.28 93.466C219.522 92.8465 216.121 93.2918 213.63 93.1848H213.628Z" fill="#463631"/>
<path fill-rule="evenodd" clip-rule="evenodd" d="M281.627 93.0305C280.04 93.3862 278.54 92.508 277.791 93.4609C277.915 93.5504 278.04 93.7196 278.164 93.7196C281.891 93.742 285.603 93.7967 285.18 93.2469C284.67 92.5827 282.448 92.8464 281.627 93.0305Z" fill="#463631"/>
<path fill-rule="evenodd" clip-rule="evenodd" d="M73.0265 87.5567C70.5935 87.2631 71.0015 88.6464 72.738 88.4424C75.8477 88.0841 77.323 88.0717 73.0265 87.5567Z" fill="#463631"/>
<path fill-rule="evenodd" clip-rule="evenodd" d="M360.985 71.0086C359.595 70.7274 358.689 70.4414 357.428 70.8021C358.182 71.7698 359.918 71.4539 360.985 71.0086Z" fill="#463631"/>
<path fill-rule="evenodd" clip-rule="evenodd" d="M240.797 93.2357C241.006 93.691 242.26 93.7209 242.869 93.3004C242.606 92.462 240.63 92.8725 240.797 93.2357Z" fill="#463631"/>
<path fill-rule="evenodd" clip-rule="evenodd" d="M174.31 92.2802C174.195 92.2006 174.088 92.0612 173.967 92.0488C170.548 91.7229 173.509 93.238 174.31 92.2802Z" fill="#463631"/>
<path fill-rule="evenodd" clip-rule="evenodd" d="M125.419 90.8268C124.098 90.573 122.908 91.2746 125.299 91.2796C125.881 91.2796 126.058 90.9487 125.419 90.8268Z" fill="#463631"/>
<path fill-rule="evenodd" clip-rule="evenodd" d="M106.819 90.0103C106.018 90.0252 105.6 89.8237 105.535 90.4058C107.943 90.9332 107.831 89.9904 106.819 90.0103Z" fill="#463631"/>
<path fill-rule="evenodd" clip-rule="evenodd" d="M272.849 93.2647C272.25 93.3219 272.135 93.725 272.745 93.7921C274.869 94.031 274.941 93.0607 272.849 93.2647Z" fill="#463631"/>
<path fill-rule="evenodd" clip-rule="evenodd" d="M377.25 33.0643C377.302 33.0668 377.367 32.8628 377.427 32.7533C376.618 32.4075 375.66 32.5145 374.969 32.9673C375.183 32.8827 376.081 32.9996 377.25 33.0643Z" fill="#463631"/>
<path fill-rule="evenodd" clip-rule="evenodd" d="M100.148 89.3868C100.088 89.4042 100.063 89.5485 100.023 89.6356C100.277 89.7575 100.543 89.7575 100.817 89.6231C101.203 89.4316 100.387 89.3196 100.148 89.3868Z" fill="#463631"/>
<path fill-rule="evenodd" clip-rule="evenodd" d="M188.278 90.0824C187.887 89.6868 186.805 89.7017 186.665 90.1669C186.444 90.9158 188.74 90.555 188.278 90.0824Z" fill="#463631"/>
<path fill-rule="evenodd" clip-rule="evenodd" d="M167.867 92.1868C167.431 91.8908 166.327 91.9455 166.526 92.3858C166.685 92.7391 168.404 92.5525 167.867 92.1868Z" fill="#463631"/>
<path fill-rule="evenodd" clip-rule="evenodd" d="M235.825 92.8574C234.902 92.8226 234.857 93.7481 235.837 93.7132C236.233 93.7008 237.004 93.7257 237.006 93.2306C237.006 92.7604 236.101 92.8674 235.825 92.8574Z" fill="#463631"/>
<path fill-rule="evenodd" clip-rule="evenodd" d="M88.3565 88.9271C88.451 88.8997 88.5182 88.7853 88.6003 88.7081C87.4882 88.34 87.7345 89.1137 88.3565 88.9271Z" fill="#463631"/>
<path fill-rule="evenodd" clip-rule="evenodd" d="M132.945 89.1746C132.903 88.8332 132.985 88.893 132.494 88.9279C132.529 89.2269 132.414 89.1871 132.945 89.1746Z" fill="#463631"/>
<path fill-rule="evenodd" clip-rule="evenodd" d="M113.481 90.2764C113.461 90.8163 114.329 90.6247 114.342 90.3834C114.369 89.866 113.491 90.0351 113.481 90.2764Z" fill="#463631"/>
<path fill-rule="evenodd" clip-rule="evenodd" d="M158.02 89.4964C157.406 89.1431 156.542 89.5959 157.316 89.8795C157.858 90.0786 158.294 89.6556 158.02 89.4964Z" fill="#463631"/>
<path fill-rule="evenodd" clip-rule="evenodd" d="M119.984 90.9608C120.131 91.1996 119.984 91.3116 120.925 91.2096C121.193 91.1797 121.034 90.3712 119.984 90.9608Z" fill="#463631"/>
<path fill-rule="evenodd" clip-rule="evenodd" d="M256.544 93.4849C256.442 93.4774 256.33 93.5894 256.223 93.6441C256.285 93.7287 256.35 93.8158 256.412 93.9004C256.539 93.9004 256.713 93.9501 256.782 93.8854C257.006 93.6864 256.909 93.5148 256.544 93.4824V93.4849Z" fill="#463631"/>
<path fill-rule="evenodd" clip-rule="evenodd" d="M263.46 93.4062C262.321 93.4062 262.388 93.8342 262.975 93.9361C263.714 94.063 263.826 93.4062 263.46 93.4062Z" fill="#463631"/>
<path fill-rule="evenodd" clip-rule="evenodd" d="M96.2911 89.5191L95.9023 89.3945C95.9223 89.7559 95.8326 89.721 96.2911 89.5191Z" fill="#463631"/>
<path fill-rule="evenodd" clip-rule="evenodd" d="M288.408 93.0234C288.296 93.0881 288.186 93.1528 288.074 93.2175C288.141 93.312 288.194 93.4712 288.276 93.4862C288.629 93.5558 288.818 93.419 288.746 93.1628C288.726 93.0906 288.524 93.0682 288.408 93.0234Z" fill="#463631"/>
<path fill-rule="evenodd" clip-rule="evenodd" d="M371.412 67.5927C371.412 67.5927 371.542 67.523 371.532 67.5255C371.519 67.5279 371.412 67.5927 371.412 67.5927Z" fill="#463631"/>
</svg>
