<svg width="387" height="25" viewBox="0 0 387 25" fill="none" xmlns="http://www.w3.org/2000/svg">
<path fill-rule="evenodd" clip-rule="evenodd" d="M179.852 0.897833C147.663 1.09387 126.94 1.61458 119.111 1.46945C117.44 1.43849 113.483 1.40479 112.269 1.55474C110.033 1.83126 108.605 1.76797 100.713 1.76797C94.899 1.76797 97.5917 1.44812 91.4386 1.42336C83.5355 1.39172 29.9468 1.23144 24.2171 2.28731C22.055 2.68558 21.946 2.68627 15.6066 2.69728C14.2348 2.69934 10.3962 2.84379 11.0397 2.991C11.9429 3.19736 11.2881 2.95729 20.3936 3.00613C23.3459 3.02195 22.7042 2.94629 24.1832 2.97793C25.6453 3.00957 25.4759 3.22968 24.7985 3.29985C22.2921 3.55848 22.1379 3.43604 19.146 3.48282C19.146 3.48282 15.7815 3.597 1.85517 3.92374C-0.572212 4.45339 1.27937 4.38667 1.40356 4.75949C1.55598 5.22173 4.32206 5.11993 5.8801 5.48174C6.86234 5.7108 8.15506 5.91991 8.26796 6.19506C8.30183 6.2776 8.53328 6.38009 8.98489 6.43443C14.6808 7.1106 14.8783 7.95667 20.3597 7.77989C23.583 7.67602 30.1218 7.50475 30.3251 7.87963C30.5509 8.2896 21.451 7.76888 21.1236 8.4877C21.0446 8.66035 25.1806 8.74634 24.0233 8.81306C21.7314 8.94513 21.9573 8.95545 21.7992 9.8194C21.7427 10.1331 21.0784 10.1441 23.6244 10.1482C26.0122 10.1523 33.0347 10.2837 33.0686 10.3779C33.1815 10.7177 23.2066 10.6111 21.101 10.6166C17.872 10.6249 22.8453 11.3843 22.9752 12.1224C23.0034 12.2696 18.6792 12.4773 19.9098 12.5929C22.5065 12.8364 19.9211 13.031 21.7106 13.2044C23.6638 13.3935 26.2887 14.1749 25.2162 14.5491C24.4484 14.8167 22.1283 15.4874 26.8363 15.6642C29.9411 15.7811 36.0491 15.8189 29.8 16.6843C31.3862 17.2235 30.929 18.0345 29.9975 18.4541C27.254 19.6916 29.7322 19.7796 28.5411 20.5019C28.1008 20.7702 26.5145 20.6759 24.6968 20.8066C23.7146 20.8775 23.9347 21.0453 24.6742 21.0825C28.2137 21.2592 31.5386 21.2943 33.0177 21.672C34.7112 22.106 36.5797 22.5579 41.0449 22.6618C41.9764 22.6838 48.615 22.8888 48.6658 23.0215C48.6997 23.1213 47.9319 23.0773 45.0699 23.1859C42.4901 23.2843 43.9973 23.9068 47.1247 23.9453C47.1247 23.9453 70.0099 24.0217 75.4799 24.085C98.4497 24.3505 103.265 24.0231 127.172 24.3188C129.582 24.3484 139.331 24.1778 140.466 24.1324C144.909 24.2893 145.462 23.8456 148.149 23.8284C148.905 23.8236 178.773 23.7741 206.31 23.9694C209.432 23.9914 212.446 23.8669 215.478 23.891C218.543 23.9151 221.586 23.9852 224.679 23.9598C233.203 23.8896 222.489 23.6702 219.096 23.6702C210.313 23.6702 208.441 23.6702 200.411 23.6798C200.292 23.6723 197.955 23.6372 196.939 23.6028C195.297 23.5471 194.772 23.1151 197.284 23.1089C201.887 23.1089 202.85 22.7911 221.693 22.8633C239.43 22.9307 286.313 22.6453 294.436 22.7691C296.096 22.7945 309.294 22.8289 311.467 22.754C319.539 22.4761 322.43 22.6948 325.393 22.5215C326.743 22.4424 326.404 22.1335 325.213 22.1067C297.851 21.4807 311.309 22.0709 292.353 21.696C290.772 21.6651 287.972 20.9332 298.026 21.0467C303.965 21.1134 303.897 20.8369 308.436 20.8837C321.961 21.0226 322.187 20.5734 328.82 20.6883C336.667 20.8245 337.406 20.7186 340.138 20.733C343.537 20.7509 345.01 20.9009 345.947 20.6704C348.008 20.1655 352.01 20.4744 350.932 20.2082C330.079 20.1043 321.882 20.0445 320.403 19.7989C317.874 19.3779 335.43 19.5465 339.596 19.4054C347.02 19.1551 350.644 19.2975 354.178 19.1062C357.773 18.9116 361.042 19.0381 366.8 18.9164C373.489 18.7747 370.063 19.173 374.342 19.1317C374.342 19.1317 254.167 19.2294 384.416 18.9446C386.837 18.9391 386.228 18.6605 384.816 18.6591C376.958 18.6536 379.296 18.3276 369.812 18.2526C359.295 18.1694 365.234 18.6591 360.021 18.4411C360.021 18.4411 344.965 18.4906 326.432 18.4197C318.986 18.3915 307.245 18.124 300.29 18.234C298.562 18.2615 297.179 18.2141 293.143 17.9045C282.954 17.1238 345.586 17.9781 351.231 17.6019C353.19 17.4712 355.278 17.4505 357.44 17.4746C369.209 17.6089 310.885 15.2078 339.567 16.9154C340.606 16.9773 373.429 16.8301 373.429 16.8301C373.429 16.8301 391.809 16.8143 373.028 16.762C364.504 16.7379 364.536 16.762 364.536 16.762C360.297 16.6478 356.057 16.6932 351.857 16.7586C348.092 16.1691 346.246 16.7833 340.133 16.3651C339.822 16.3445 340.071 16.2303 340.319 16.2255C353.314 15.9778 341.849 16.264 357.192 16.123C373.021 15.9785 367.217 16.3776 375.478 16.0964C376.487 16.1107 354.221 14.9551 357.344 14.7177C359.094 14.5849 361.358 14.5409 362.098 14.2458C362.391 14.1275 363.435 14.0986 364.395 14.0752C369.972 13.9404 361.053 13.4362 366.676 13.3867C385.643 13.2202 356.643 13.2683 376.463 13.0702C376.898 13.0661 377.592 12.9182 376.802 12.9141C364.693 12.8508 363.344 12.945 359.946 12.7566C359.858 12.7517 360.215 12.6839 359.116 12.6775C357.801 12.6699 362.719 12.608 362.098 12.0812C362.098 11.5106 372.714 10.5006 361.408 10.8828C360.641 10.7907 359.608 10.8828 351.817 11.0844C349.565 11.0493 348.949 11.0844 346.33 11.0844C346.07 11.0981 344.23 10.9138 343.835 10.8828C339.748 10.5657 370.72 10.5079 355.069 10.0361C349.684 9.87375 349.136 9.94666 346.884 9.78639C343.124 9.51881 346.009 9.24917 346.788 9.20171C350.395 8.98159 351.247 9.31589 361.408 8.64523C369.091 8.13758 375.013 8.42304 377.299 8.08874C367.839 7.53152 357.717 8.56619 348.635 8.18161C348.251 8.1651 356.763 7.74481 356.661 7.69735C355.747 7.27638 349.498 7.36374 356.249 6.74604C357.711 6.61259 338.456 6.55825 339.844 6.36015C338.975 6.34777 338.252 6.31406 337.626 6.33263C331.286 6.52111 330.964 6.26385 326.618 6.17993C326.251 6.17993 326.123 6.17993 326.123 6.17993C326.123 6.17993 320.867 5.85594 321.449 5.85319C323.81 5.85319 338.258 5.71975 338.258 5.71975C343.237 5.56154 349.187 5.8869 353.731 5.77684C378.981 5.16292 364.572 5.13246 353.545 5.10755C343.079 5.08485 343.767 5.42397 340.284 5.19629C337.157 4.99199 335.503 5.19835 332.946 4.92527C330.219 4.63362 336.708 4.69655 334.349 4.34505C331.289 3.88969 299.945 4.12184 297.946 4.12184C295.569 4.12184 296.806 3.88316 286.622 3.86115C279.064 3.84532 271.516 3.71807 263.946 3.83776C262.795 3.85633 261.632 3.85289 260.48 3.78617C256.455 3.5523 253.316 3.54266 235.139 3.60732C227.643 3.63415 229.043 3.18498 222.128 3.31704C218.656 3.38308 208.513 3.16156 202.823 2.99579C200.068 2.56587 198.046 2.59273 198.401 2.24467C198.706 1.94545 229.539 1.98947 231.984 1.92206C231.847 1.69011 227.206 1.90816 226.23 1.69011C225.846 1.60344 188.353 1.64554 187.608 1.65311C180.862 1.71776 159.501 1.78173 164.395 1.24795C168.889 0.757509 185.401 1.50453 185.226 0.84693C185.203 0.767826 181.839 0.884764 179.829 0.897146L179.852 0.897833ZM352.106 14.6688C353.139 14.695 353.935 14.8986 352.196 14.9481C350.937 14.9846 347.223 14.977 347.46 14.9027C348.228 14.6592 350.232 14.6207 352.1 14.6688L352.106 14.6688Z" fill="#A92631"/>
</svg>
