<svg width="981" height="187" viewBox="0 0 981 187" fill="none" xmlns="http://www.w3.org/2000/svg">
<path d="M708.163 103.2C708 102.943 707.743 102.624 707.812 102.328C707.892 101.989 707.979 101.649 708.077 101.31C708.119 101.163 708.268 101.058 708.295 100.906C708.314 100.804 708.284 100.693 708.321 100.595C708.351 100.517 708.389 100.431 708.426 100.345C708.561 100.028 708.633 99.6534 708.742 99.3266C708.79 99.1794 708.83 99.0253 708.847 98.8869C708.87 98.6941 708.915 98.4786 708.975 98.2941C709.053 98.059 709.13 97.7262 709.156 97.48C709.158 97.4535 709.16 97.4269 709.161 97.4008C709.165 97.2389 709.162 97.068 709.219 96.9165C710.087 94.6247 709.542 91.2101 709.622 88.8347C709.633 88.5903 709.654 88.3408 709.66 88.0928C709.688 87.0375 709.142 86.2658 709.142 85.1835C709.145 85.1705 709.148 85.157 709.152 85.143C709.383 84.1635 709.204 83.0654 709.038 82.0728C708.953 81.5621 708.837 81.0539 708.791 80.5364C708.474 77.1604 707.179 73.9892 706.664 70.6291C706.642 70.4863 706.668 70.3332 706.661 70.1889C706.645 69.8724 706.359 69.621 706.281 69.3138C706.215 69.0546 706.135 68.7935 706.034 68.5479C705.911 68.2477 705.796 67.9425 705.727 67.6256C705.243 65.405 704.042 63.3888 703.106 61.3395C702.466 59.954 701.801 58.5433 700.975 57.2425C700.651 56.732 700.61 55.9818 700.178 55.559C699.853 55.2416 699.419 55.0058 699.175 54.6231C698.408 53.4191 697.691 52.1781 696.756 51.0864C695.575 49.7218 694.394 48.3756 693.083 47.1216C692.714 46.7713 692.345 46.4578 692.327 45.8861C692.308 45.5726 692.142 45.3882 691.717 45.4435C691.489 45.4777 691.295 45.4696 691.14 45.4129C690.841 45.3035 689.906 44.5683 689.687 44.3371C689.613 44.2633 689.521 44.1342 689.447 44.1342C688.524 44.1711 688.524 44.1895 688.377 43.3413C688.321 43.0093 687.915 42.6774 687.86 42.788C687.839 42.8315 687.818 42.8703 687.797 42.905C687.482 43.4306 687.171 43.3439 687.653 43.7224C687.778 43.8201 687.9 43.9211 688.017 44.0295C688.425 44.4089 687.855 44.7062 687.454 45.0931C687.343 45.2038 686.623 45.1485 686.438 44.7612C686.199 44.3186 685.774 44.2264 685.46 43.9682C684.962 43.5441 684.334 43.5994 683.818 43.3228C681.99 42.3639 680.329 41.073 678.262 40.612C678.151 40.5936 678.003 40.6489 677.966 40.5014C677.763 39.7637 676.84 39.9113 676.508 39.3212C676.416 39.1552 676.213 39.1368 676.084 39.3396C675.844 39.6715 676.25 39.5978 676.342 39.7084C676.564 39.985 677.117 39.8006 677.228 40.2985C677.357 40.8333 677.782 41.073 678.225 41.3312C680.034 42.4008 681.99 43.1937 683.596 44.5768C684.537 45.4066 685.349 46.384 686.402 47.1216C686.697 47.3245 687.306 47.4904 687.158 47.8777C686.937 48.4494 687.324 48.5416 687.583 48.7629C689.318 50.2934 690.702 52.1006 691.847 54.1107C692.61 55.4403 693.39 56.7528 694.302 57.9827C694.373 58.0797 694.411 58.1787 694.435 58.297C694.562 58.9196 694.425 58.9899 694.096 58.4465C693.99 58.2716 693.876 58.1046 693.748 57.9464C693.194 57.0981 692.585 56.342 691.81 55.6044C690.555 54.4426 689.392 53.1518 688.229 51.8609C686.291 49.7402 683.965 48.1174 681.676 46.4762C679.831 45.1485 677.8 44.0789 675.807 42.954C673.463 41.6263 670.952 40.6489 668.424 39.7084C666.836 39.1183 665.157 38.7864 663.495 38.3807C661.243 37.8459 659.01 37.182 656.721 36.9239C653.547 36.5735 650.335 36.5366 647.16 36.9239C646.754 36.9792 646.33 37.0898 645.979 37.2742C645.665 37.4402 645.407 37.4218 645.074 37.4218C644.225 37.4218 643.21 37.4586 642.767 38.2147C642.472 38.7311 642.158 38.9524 641.678 39.063C641.453 39.1165 641.241 39.2011 641.033 39.2987C640.813 39.4023 640.777 39.6248 641.02 39.6297C641.273 39.6347 641.237 39.9339 640.996 40.009C639.988 40.3222 639.118 40.8754 638.153 41.239C636.27 41.9582 634.424 42.8249 632.542 43.4519C629.958 44.3186 627.669 45.757 625.177 46.8081C623.829 47.3798 622.685 48.5231 621.615 49.5743C620.673 50.4963 619.584 51.2708 618.68 52.2666C618.569 52.3957 618.421 52.7461 618.218 52.5064C617.831 52.0453 617.701 52.4879 617.572 52.6539C616.742 53.6866 616.003 54.793 615.025 55.7151C614.763 55.9769 615.412 56.0518 615.664 55.7803C616.259 55.1388 616.848 54.4994 617.447 53.8708C617.487 53.8282 617.552 53.8209 617.6 53.8551C617.655 53.8945 617.67 53.972 617.633 54.0288C617.216 54.6688 616.989 55.3957 616.446 55.9732C615.56 56.9137 614.674 57.8357 613.844 58.85C612.662 60.3068 612.109 62.0771 611.149 63.6446C610.448 64.7879 610.023 66.171 609.303 67.3512C608.934 67.9413 608.676 68.5867 608.473 69.2875C608.27 70.0989 608.417 71.0394 607.753 71.7032C607.587 71.8692 607.642 72.3671 607.291 72.2196C606.941 72.0721 607.254 71.7586 607.31 71.5188C607.513 70.5968 608.233 69.6563 608.103 68.8449C607.9 67.4434 608.565 66.4292 608.952 65.2674C609.414 63.9397 610.392 62.9623 611.038 61.7452C611.828 60.2741 612.915 58.9602 613.891 57.5825C613.937 57.5182 613.924 57.4275 613.868 57.3717C613.815 57.3185 613.731 57.3252 613.68 57.3809C612.804 58.3429 611.898 59.2922 611.13 60.3621C610.291 61.5332 609.7 62.8865 608.792 64.0294C608.701 64.1436 608.508 64.1891 608.477 64.0467C608.434 63.8479 608.264 63.8254 608.139 63.9857C607.962 64.2118 607.806 64.452 607.668 64.7164C607.468 65.1013 607.754 65.2738 607.972 64.8985C608.031 64.7965 608.095 64.6998 608.171 64.613C608.294 64.472 608.561 64.5954 608.491 64.7695C607.937 65.8391 607.365 66.9086 606.811 67.9782C606.756 68.0888 606.645 68.181 606.534 68.0704C606.147 67.6831 606.128 68.1257 605.999 68.3101C605.543 68.9433 604.904 68.8405 605.259 68.1458C605.307 68.0536 605.356 67.961 605.409 67.8676C605.54 67.6289 605.622 67.3934 605.658 67.1396C605.717 66.7197 605.15 66.7342 604.969 67.1181C604.766 67.5518 604.369 67.3431 604.533 66.893C604.615 66.6686 604.707 66.4485 604.805 66.2305C604.973 65.8591 604.768 65.5865 604.62 65.9662C604.613 65.9859 604.605 66.0051 604.596 66.0235C604.301 66.7242 604.043 67.425 603.729 68.1073C602.769 70.2464 602.308 72.5515 601.477 74.7275C601.147 75.593 600.577 75.4102 600.739 74.4982C601.371 70.9316 602.914 67.6305 604.1 64.1998C604.291 63.6462 603.722 63.2059 603.33 63.6411C602.958 64.0538 602.701 64.0071 602.964 63.5175C603.896 61.7781 605.785 58.8155 607.517 56.0233C609.16 53.3742 608.774 53.2247 607.123 55.8686C605.321 58.7538 603.336 61.8632 602.127 63.6866C601.795 64.1866 600.55 63.9443 600.813 63.4049C601.182 62.6304 601.551 61.8559 601.865 61.0813C602.148 60.4029 601.416 60.1989 601.066 60.8455C600.817 61.3057 600.587 61.7588 600.388 62.2247C600.056 62.9992 600.074 63.9212 599.244 64.4376C599.151 64.4929 599.484 64.8248 599.114 64.7326C598.985 64.6957 598.838 64.3822 598.948 64.2716C599.41 63.829 599.354 63.1098 599.724 62.7226C600.259 62.1509 600.185 61.3948 600.573 60.7863C601.012 60.1028 600.282 59.7724 600.097 60.5636C600.074 60.6618 600.045 60.7562 600 60.8416C598.782 63.0914 598.118 65.544 597.139 67.886C596.992 68.2548 596.881 68.6421 596.936 69.0846C597.084 70.1542 596.604 71.0762 595.995 71.8876C595.829 72.1089 595.663 72.2749 595.552 72.5515C595.091 73.8424 595.109 75.2254 594.592 76.5163C594.408 76.9958 593.983 77.3461 593.965 77.8625C593.928 79.8725 593.171 81.7904 593.245 83.8373C593.319 85.6445 592.968 87.4517 593.023 89.2589C593.116 92.1357 593.042 95.0493 593.928 97.8523C594.263 98.8918 594.396 99.9986 595.002 100.948C595.059 101.036 595.099 101.132 595.115 101.235C595.135 101.362 595.101 101.493 595.111 101.621C595.113 101.649 595.119 101.677 595.128 101.702C595.181 101.84 595.295 101.951 595.331 102.094C595.337 102.119 595.341 102.143 595.344 102.168C595.358 102.265 595.354 102.365 595.351 102.463C595.349 102.531 595.356 102.598 595.373 102.662C595.411 102.799 595.405 102.955 595.447 103.091C595.484 103.214 595.598 103.316 595.606 103.445C595.617 103.61 595.625 103.777 595.681 103.937C595.725 104.06 595.724 104.207 595.775 104.327C595.83 104.456 595.917 104.575 595.926 104.715C595.974 105.468 596.332 106.128 596.567 106.833C596.709 107.257 596.339 107.237 596.17 106.823C596.014 106.441 595.887 106.047 595.81 105.634C595.663 104.823 595.128 104.159 594.685 103.458C594.334 102.905 594.297 102.167 594.094 101.54C593.153 98.4977 592.71 95.3812 592.488 92.2463C592.396 90.8448 592.193 89.4433 592.064 88.0602C592.016 87.4376 591.681 87.4687 591.678 88.0931C591.676 88.3598 591.676 88.6256 591.676 88.8901C591.694 91.7115 591.565 94.5514 592.045 97.336C592.267 98.6084 592.008 100.084 593.134 101.116C593.263 101.227 593.337 101.467 593.134 101.577C592.746 101.78 592.894 102.057 592.986 102.333C593.374 103.661 593.725 105.007 594.186 106.317C594.45 107.072 594.714 107.845 595.185 108.506C595.229 108.568 595.226 108.658 595.255 108.729C595.295 108.825 595.368 108.896 595.386 108.998C595.39 109.019 595.396 109.039 595.407 109.057C595.445 109.127 595.513 109.178 595.543 109.252C595.747 109.748 595.937 110.245 596.143 110.742C596.195 110.839 596.244 110.935 596.292 111.032C596.436 111.319 596.552 111.619 596.666 111.919C597.069 112.982 597.725 113.931 598.21 114.965C598.398 115.364 598.6 115.782 598.866 116.156C599.222 116.655 599.656 117.103 599.975 117.627C600.986 119.286 602.12 120.86 603.378 122.323C606.896 126.431 609.163 128.126 612.109 130.824C613.253 131.876 614.637 132.632 615.431 134.089C615.745 134.697 616.299 135.306 616.908 135.582C618.421 136.265 619.51 137.537 620.969 138.293C621.836 138.736 622.556 139.436 623.387 139.953C624.737 140.805 625.95 141.913 627.553 142.307C627.674 142.337 627.777 142.426 627.895 142.466C628.028 142.511 628.169 142.538 628.293 142.601C628.458 142.685 628.638 142.715 628.827 142.713C628.952 142.711 629.078 142.718 629.2 142.746C629.323 142.775 629.434 142.838 629.544 142.898C629.789 143.033 630.044 143.049 630.306 143.027C630.638 142.998 630.97 143.03 631.304 143.017C631.565 143.007 631.826 142.932 632.088 142.928C633.429 142.91 634.826 143.071 635.901 141.963C635.975 141.889 636.196 141.907 636.326 141.944C636.753 142.047 637.134 141.912 637.496 141.715C637.551 141.685 637.614 141.676 637.676 141.684C637.755 141.694 637.817 141.75 637.851 141.823C638.052 142.262 638.345 142.297 638.715 141.9C638.721 141.893 638.73 141.889 638.739 141.889L638.747 141.888C639.53 141.69 640.472 141.9 641.063 141.128C641.079 141.108 641.103 141.091 641.12 141.07C641.149 141.034 641.163 140.986 641.198 140.955C641.325 140.843 641.451 140.738 641.57 140.628C641.642 140.561 641.726 140.508 641.817 140.472C641.858 140.455 641.904 140.452 641.948 140.448C642.118 140.434 642.249 140.366 642.348 140.243C642.43 140.141 642.546 140.06 642.646 139.975C642.772 139.869 642.898 139.754 643.053 139.697C643.308 139.603 643.481 139.393 643.579 139.141C643.685 138.902 643.775 138.658 643.863 138.412C644.023 137.966 644.395 137.675 644.76 137.373C644.792 137.346 644.822 137.317 644.85 137.285C645.052 137.054 645.127 136.731 645.316 136.488C645.343 136.454 645.369 136.42 645.394 136.385C645.648 136.029 645.955 135.614 646.003 135.18C646.014 135.083 646.029 134.982 646.059 134.889C646.288 134.165 646.627 133.448 646.55 132.679C646.513 132.315 646.516 131.94 646.425 131.585C646.362 131.337 646.231 131.1 646.188 130.848C646.181 130.804 646.173 130.76 646.164 130.714C646.145 130.474 646.164 129.939 646.016 130.068C645.997 130.085 645.979 130.1 645.961 130.113C645.516 130.459 645.252 129.473 645 128.97C644.983 128.936 644.966 128.904 644.948 128.871C644.752 128.521 644.558 128.148 644.321 127.824C644.154 127.593 643.987 127.357 643.853 127.105C643.788 126.983 643.711 126.869 643.613 126.767C643.463 126.612 643.288 126.479 643.148 126.314C643.103 126.26 643.057 126.207 643.012 126.154C642.878 125.999 642.801 125.799 642.675 125.636C642.594 125.531 642.485 125.452 642.364 125.382C642.238 125.31 642.168 125.175 642.085 125.056C641.987 124.915 641.83 124.795 641.698 124.684C641.687 124.675 641.675 124.667 641.663 124.659C641.565 124.593 641.455 124.538 641.378 124.449C641.155 124.189 640.894 123.976 640.613 123.791C640.19 123.513 639.813 123.161 639.395 122.876C639.033 122.63 638.606 122.499 638.134 122.452C636.935 122.342 635.679 122.508 634.683 121.604C634.517 121.457 634.258 121.401 634.037 121.309C633.889 121.254 633.667 121.254 633.667 121.401C633.612 122.95 632.818 121.77 632.431 121.696C631.788 121.557 631.195 121.223 630.527 121.506C630.443 121.542 630.351 121.561 630.262 121.541C630.118 121.509 630.008 121.392 629.883 121.314C629.872 121.307 629.859 121.3 629.846 121.294C629.726 121.237 629.591 121.2 629.494 121.109C629.396 121.017 629.298 120.927 629.201 120.83C628.339 120.041 627.024 120.211 626.171 119.407C626.13 119.367 626.092 119.342 626.046 119.376C626.006 119.406 625.963 119.479 625.983 119.525C626.235 120.094 626.846 120.276 627.286 120.656C627.333 120.697 627.364 120.74 627.409 120.782C627.734 121.093 627.51 121.38 627.103 121.188C626.676 120.986 626.294 120.673 625.867 120.467C625.611 120.344 625.39 120.153 625.159 119.989C625.033 119.898 624.885 119.842 624.709 119.819C624.69 119.816 624.672 119.806 624.661 119.789L624.656 119.781C624.647 119.768 624.632 119.76 624.616 119.76C624.598 119.76 624.581 119.749 624.573 119.733C624.458 119.51 624.244 119.389 623.996 119.336C623.865 119.297 623.735 119.249 623.612 119.204C623.516 119.17 623.451 119.085 623.372 119.021C623.254 118.926 623.099 118.859 622.994 118.751C622.824 118.579 622.587 118.592 622.358 118.593C622.135 118.595 621.951 118.463 621.772 118.331C621.629 118.225 621.473 118.162 621.338 118.229C620.396 118.746 620.156 117.916 620.009 117.418C619.773 116.621 619.448 116.767 618.982 117.087C618.966 117.098 618.946 117.101 618.928 117.095C618.911 117.089 618.898 117.076 618.891 117.06C618.832 116.91 618.765 116.763 618.657 116.654C618.537 116.532 618.379 116.449 618.263 116.323C617.785 115.807 617.307 115.291 616.829 114.775C616.538 114.461 616.293 114.108 616.099 113.727C615.587 112.715 615.073 111.695 614.545 110.687C614.453 110.503 614.305 110.226 614.102 110.466C613.604 111.056 613.493 110.466 613.29 110.226C612.589 109.396 612.662 108.069 611.573 107.478C611.518 107.442 611.481 107.331 611.463 107.239C611.167 105.856 610.891 104.454 610.355 103.126C610.229 102.831 610.623 102.964 610.707 103.274C611.152 104.935 612.63 105.991 613.456 107.46C614.074 108.55 614.86 109.592 615.781 110.509C616.14 110.867 616.399 110.659 616.04 110.3C615.354 109.614 614.721 108.886 614.302 108.019C614.072 107.543 614.577 106.904 614.195 106.538C613.955 106.317 613.807 106.022 613.585 105.782C613.327 105.487 613.493 105.284 613.696 105.1C614.01 104.841 614.158 105.21 614.231 105.339C615.044 106.87 616.262 108.124 617.24 109.525C618.144 110.816 619.178 112.07 620.858 112.457C621.725 112.66 622.556 112.918 623.313 113.416C623.553 113.582 623.959 113.877 624.18 113.527C624.457 113.084 623.94 112.937 623.663 112.771C621.264 111.277 619.178 109.433 617.498 107.165C617.284 106.872 617.633 106.662 617.967 106.805C618.348 106.968 618.766 107.074 619.166 107.207C619.507 107.32 619.89 107.072 619.671 106.787C619.498 106.562 619.237 106.403 618.994 106.261C618.754 106.114 618.403 105.948 618.551 105.727C618.938 105.081 618.44 104.841 618.108 104.528C617.148 103.606 616.354 102.555 615.763 101.356C615.29 100.395 614.791 99.4459 614.298 98.4889C614.094 98.0923 613.982 97.6553 613.872 97.2231C613.73 96.6664 613.4 96.1679 613.273 95.6076C612.97 94.2687 612.854 92.9008 612.626 91.5456C612.515 90.8264 612.256 90.1072 612.349 89.3695C612.367 89.222 612.275 88.9823 612.57 88.9823C612.792 88.9823 612.699 89.2036 612.755 89.3142C613.438 90.6235 613.345 92.1172 613.788 93.4818C614.026 94.2113 614.722 94.0803 614.302 93.4381C614.246 93.3534 614.186 93.2697 614.121 93.1868C614.047 93.0946 614.084 92.8917 614.028 92.7626C613.659 91.9513 613.825 91.0661 613.715 90.2178C613.401 87.8943 613.327 85.5707 613.253 83.2287C613.253 82.8701 613.503 82.5755 613.739 82.3053C614.134 81.8535 614.114 81.2596 613.585 80.8314C613.277 80.5892 612.305 79.6374 612.29 79.2456C612.279 78.9627 612.286 78.6843 612.367 78.4157C612.404 78.305 612.312 78.0838 612.127 78.2866C612.016 78.3972 611.98 78.5448 611.813 78.3604C611.703 78.2128 611.813 78.1206 611.887 77.9915C612.201 77.4199 612.589 76.9035 612.736 76.2028C612.896 75.4041 613.042 74.5915 613.246 73.7771C613.294 73.5879 613.533 73.5045 613.595 73.6895C613.636 73.8147 613.623 73.9473 613.609 74.0764C613.596 74.2034 613.649 74.2007 613.696 74.0821C613.936 73.6395 614.416 73.2523 613.585 72.865C613.345 72.7544 613.419 72.1089 613.825 71.9983C614.268 71.8876 614.361 71.6848 614.398 71.316C614.416 71.15 614.545 70.8734 614.637 70.8734C615.597 70.7996 615.56 69.8592 615.56 69.4166C615.56 68.8061 615.773 68.3503 616.035 67.9158C616.321 67.4417 616.633 67.8647 617.185 67.8122C617.554 67.7938 617.609 67.3143 617.775 67.0193C618.015 66.5951 618.126 66.1341 618.458 65.71C619.123 64.8986 619.713 63.9765 620.119 63.0176C620.692 61.6714 620.618 61.6346 621.818 60.7125C621.895 60.6356 621.869 60.509 621.862 60.4004C621.828 59.8441 621.833 59.3091 622.74 59.477C622.925 59.5139 622.851 59.1819 622.907 59.0344C623.165 58.3336 623.46 57.5038 624.272 57.4301C625.103 57.3563 625.288 56.9137 625.435 56.2867C625.546 55.8441 625.805 55.4938 626.137 55.1987C626.487 54.8852 626.857 54.5717 627.189 54.2398C627.336 54.0923 627.484 53.8894 627.355 53.6866C627.244 53.4837 627.023 53.6128 626.875 53.6681C626.266 53.8341 625.657 53.9816 625.472 54.7192C625.417 54.959 625.251 55.1618 624.992 55.1987C624.9 55.2172 624.734 55.125 624.697 55.0512C624.549 54.7561 624.845 54.6455 624.992 54.4795C625.177 54.2582 625.398 54.0554 625.601 53.8341C626.126 53.284 626.536 52.6719 626.824 51.9299C626.969 51.5565 626.694 51.4059 626.524 51.7687C626.395 52.0453 626.266 52.451 625.86 52.3957C625.312 52.3244 625.34 51.8463 625.032 52.304C624.953 52.4208 624.868 52.5319 624.752 52.617C622.667 54.1107 621.135 56.1761 619.344 57.9648C619.141 58.1677 618.938 58.4443 618.864 58.7025C618.329 60.5281 616.963 61.8005 615.93 63.3127C615.487 63.9397 614.859 64.4376 614.767 65.2858C614.713 65.6584 614.415 65.2919 614.587 64.9573C614.923 64.3054 615.142 63.61 615.634 63.0361C616.114 62.4828 616.502 61.8374 616.926 61.2289C617.018 61.0813 617.332 60.8969 617.055 60.731C616.557 60.4175 616.963 60.2146 617.074 59.9564C617.406 59.2188 618.274 59.016 618.68 58.3521C619.492 57.0059 620.618 55.9363 621.67 54.793C622.833 53.5206 624.088 52.3404 625.214 51.0495C626.044 50.0722 626.912 49.1501 627.909 48.3572C629.127 47.3798 630.585 46.8266 631.914 46.0705C633.409 45.2407 634.978 44.5399 636.418 43.6363C637.691 42.8249 639.186 42.659 640.515 42.032C640.899 41.8548 641.366 41.5832 641.916 41.6615C642.159 41.6962 642.222 41.9642 641.992 42.0504C641.475 42.2717 640.958 42.493 640.442 42.6958C640.183 42.8065 639.851 42.8987 639.962 43.2122C640.072 43.5072 640.386 43.2306 640.589 43.2675C640.774 43.3044 641.014 42.9171 641.088 43.2491C641.254 43.9129 641.623 43.5072 641.881 43.4335C642.479 43.2661 642.493 43.7491 641.91 43.9639C639.356 44.905 636.815 45.899 634.527 47.6166C634.137 47.9093 634.32 48.2309 634.72 47.9515C635.199 47.6011 635.679 46.9557 636.178 46.9188C637.341 46.8266 638.3 46.2549 639.353 45.923C639.396 45.9092 639.439 45.8944 639.482 45.8788C640.168 45.6309 640.749 46.3791 640.146 46.7897C639.906 46.9557 640.035 47.2323 640.035 47.4536C640.054 47.638 640.146 47.6933 640.331 47.6933C641.789 47.6195 643.118 47.011 644.521 46.6606C645.739 46.3656 646.939 45.9414 648.157 45.6832C648.674 45.5726 649.209 45.923 649.781 45.7386C650.077 45.6464 650.612 45.2407 650.686 45.6648C650.778 46.1443 650.132 45.9783 649.8 46.0521C648.212 46.4393 646.57 46.6606 645.038 47.2138C643.007 47.9515 641.18 49.2054 639.297 50.2566C637.433 51.2893 635.513 52.2666 633.667 53.3731C633.501 53.4837 633.335 53.5575 633.224 53.3362C632.966 52.8014 632.671 53.1518 632.449 53.3177C631.859 53.7603 631.213 54.1107 630.585 54.5164C627.853 56.2867 625.435 58.4443 623.368 60.9338C621.799 62.8148 620.267 64.7326 619.141 66.9271C618.495 68.1626 618.015 69.5088 617.535 70.8181C616.982 72.3118 616.539 73.7686 616.446 75.3361C616.409 75.9631 616.446 76.6823 615.856 76.9773C615.516 77.1549 616.172 77.2052 616.347 76.8639C616.563 76.4414 616.752 76.004 616.779 75.4836C616.834 74.6907 617.074 73.8055 617.535 73.1785C618.255 72.2011 618.809 71.2053 618.827 70.0067C618.846 69.3428 619.363 69.1031 619.621 68.6421C619.972 68.0151 619.732 67.3328 620.101 66.6873C620.673 65.6731 621.688 64.9723 621.965 63.7737C622.086 63.1852 623.237 63.0392 623.582 62.547C624.382 61.4041 625.357 60.4682 626.321 59.5323C626.709 59.145 627.263 58.9791 627.613 58.5181C628.056 57.9095 628.536 57.301 629.311 57.0244C629.57 56.9321 629.81 56.5818 629.921 56.2867C630.161 55.7151 630.142 55.6966 630.659 55.9179C630.825 55.9917 630.917 55.881 631.047 55.7888C632.117 55.0512 633.04 54.1107 634.369 53.7234C635.144 53.5022 635.864 53.0043 636.565 52.5986C638.983 51.2155 641.604 50.2566 644.152 49.2054C646.311 48.3203 648.674 48.0252 650.981 47.7302C653.51 47.4167 656.057 47.3245 658.604 47.6195C658.967 47.6195 659.317 47.7575 659.669 47.8472C659.844 47.892 660.024 47.9131 660.206 47.9154C660.454 47.9186 660.704 47.9108 660.948 47.9515C661.832 48.1072 662.715 48.2792 663.614 48.437C663.73 48.4575 663.841 48.5095 663.95 48.5546C664.177 48.6481 664.44 48.6687 664.674 48.7426C664.805 48.7839 664.939 48.8085 665.074 48.8286C665.282 48.8594 665.471 48.9753 665.67 49.0432C665.726 49.0624 665.784 49.0768 665.842 49.09C665.994 49.1247 666.096 49.2803 666.249 49.3041C666.389 49.3258 666.541 49.2899 666.673 49.3416C667.635 49.7201 668.597 50.0985 669.547 50.4769C669.732 50.5508 669.9 50.6733 670.092 50.7253C670.125 50.7341 670.158 50.7402 670.191 50.7438C670.316 50.7569 670.448 50.7343 670.56 50.7918C670.865 50.9487 671.105 51.3553 671.548 51.0766C671.556 51.0718 671.566 51.0726 671.573 51.079C671.577 51.0836 671.579 51.0906 671.578 51.097C671.451 51.7113 671.913 51.7967 672.28 51.9693C672.452 52.0497 672.57 52.2033 672.701 52.3392C673.16 52.8137 673.836 52.9877 674.333 53.4065C674.519 53.5636 674.674 53.7716 674.907 53.8427C675.334 53.9726 675.864 53.8649 676.17 54.3045C676.174 54.3103 676.176 54.3173 676.176 54.3242C676.176 54.3293 676.177 54.3344 676.179 54.339C676.292 54.5762 676.474 54.7173 676.701 54.798C676.768 54.8221 676.842 54.8493 676.906 54.8809C677.047 54.9503 677.174 55.0363 677.273 55.1584C677.637 55.6052 677.928 56.1243 678.446 56.4158C678.52 56.3974 678.594 56.3789 678.668 56.3605C678.594 56.3789 678.52 56.3789 678.446 56.4158C679.062 57.0645 679.678 57.6981 680.294 58.3439C680.424 58.4804 680.468 58.6678 680.571 58.8259C680.674 58.9854 680.907 59.0279 681.029 59.1739C681.306 59.5048 681.499 59.9029 681.722 60.2768C682.167 61.0223 682.773 61.7022 683.297 62.394C683.419 62.5544 683.549 62.7092 683.686 62.8593C683.772 62.9528 683.844 63.0648 683.887 63.1841C683.97 63.4142 683.928 63.6654 683.968 63.9067C683.977 63.9624 683.997 64.0167 684.032 64.0688C684.077 64.1356 684.128 64.2017 684.159 64.2757C684.179 64.3221 684.185 64.3712 684.191 64.4213C684.208 64.5859 684.283 64.7168 684.404 64.8138C684.485 64.8792 684.574 64.9427 684.634 65.0285C684.708 65.136 684.726 65.2725 684.796 65.3827C684.807 65.3999 684.819 65.4163 684.832 65.4319C684.974 65.6007 685.05 65.7999 685.122 66.008C685.176 66.1653 685.268 66.3091 685.367 66.4525C685.439 66.5577 685.464 66.6899 685.517 66.8059C685.577 66.9354 685.693 67.0358 685.739 67.1707C685.785 67.3043 685.827 67.4395 685.878 67.5707C686.003 67.8955 686.033 68.2711 686.178 68.5875C686.218 68.6744 686.273 68.7605 686.302 68.8516C686.333 68.9489 686.36 69.0481 686.387 69.1473C686.545 69.7384 686.815 70.311 687.023 70.8869C687.07 71.0171 687.121 71.1455 687.179 71.2719C687.385 71.7238 687.617 72.1675 687.75 72.6459C687.896 73.1718 688.039 73.7007 688.187 74.2236C688.226 74.3586 688.181 74.5166 688.236 74.6456C688.291 74.7731 688.396 74.8746 688.43 75.0092C688.534 75.4184 688.624 75.8307 688.72 76.2409C689.058 77.6861 689.164 79.4229 689.405 80.8874C689.586 81.9915 689.876 83.1561 689.927 83.7082C689.927 84.3023 690.048 84.9173 690.059 85.5114C690.095 87.589 690.059 89.6666 690.016 91.7442C690.006 92.2078 689.855 92.6723 689.886 93.1349C689.904 93.4025 689.904 93.6711 689.859 93.9354C689.623 95.3145 689.379 96.691 689.06 98.0367C688.672 99.6779 688.229 101.338 687.657 102.942C686.642 105.856 685.073 108.456 683.522 111.056C681.879 113.804 679.701 116.164 677.56 118.506C676.563 119.576 675.585 120.756 674.312 121.512C674.176 121.594 674.049 121.681 673.929 121.772C673.154 122.363 672.27 122.944 671.58 123.633C671.39 123.823 671.192 124.051 670.937 124.175C670.819 124.232 670.414 124.563 670.4 124.693C670.392 124.77 670.495 124.776 670.545 124.718C671.044 124.136 671.768 123.885 672.411 123.503C672.712 123.318 672.629 123.779 672.354 124.001C672.129 124.183 671.92 124.388 671.691 124.573C671.011 125.116 670.254 125.566 669.648 126.209C669.544 126.319 669.418 126.407 669.297 126.499C669.227 126.552 669.165 126.613 669.109 126.68C669.003 126.807 668.846 126.888 668.723 126.999C668.63 127.082 668.546 127.182 668.429 127.224C668.144 127.325 667.845 127.405 667.635 127.627C667.547 127.72 667.471 127.82 667.374 127.904C667.249 128.012 667.105 128.102 666.956 128.173C666.594 128.346 666.278 128.598 665.987 128.888C665.963 128.913 665.935 128.933 665.904 128.949C664.581 129.646 663.275 130.325 661.953 131.021C661.932 131.032 661.94 131.064 661.963 131.064C662.881 131.177 663.574 130.588 664.336 130.276C664.54 130.193 664.792 130.308 664.717 130.515C664.63 130.757 664.885 130.807 665.098 130.664C666.027 130.039 666.84 129.273 667.639 128.492C667.645 128.486 667.652 128.48 667.659 128.474C667.796 128.378 668.008 128.424 668.146 128.329C668.158 128.321 668.168 128.312 668.178 128.301C668.254 128.222 668.313 128.123 668.415 128.08C668.527 128.034 668.653 128.035 668.754 128.1C668.864 128.172 668.977 128.243 669.086 128.223C669.32 128.179 669.436 127.892 669.663 127.818C670.191 127.646 670.794 127.678 671.248 127.376C672.927 126.288 674.385 124.923 675.696 123.43C676.324 122.711 676.73 121.788 677.653 121.346C677.819 121.254 677.948 121.143 678.096 121.327C678.336 121.568 677.823 121.891 677.562 122.111C677.362 122.28 677.165 122.454 676.987 122.65C676.816 122.84 676.653 123.037 676.464 123.209C675.876 123.743 675.298 124.284 674.963 125.041C674.961 125.045 674.959 125.048 674.957 125.052C674.954 125.055 674.952 125.059 674.948 125.061C674.94 125.067 674.93 125.069 674.92 125.066C674.85 125.044 674.768 124.999 674.718 125.016C674.09 125.274 673.629 125.661 673.315 126.343C673.027 126.966 672.374 127.215 671.78 127.546C671.16 127.89 670.53 128.297 669.996 128.765C669.789 128.946 669.579 129.127 669.345 129.272C669.159 129.386 668.973 129.502 668.793 129.626C668.201 129.948 667.634 130.303 667.079 130.681C666.223 131.264 666.619 131.942 667.575 131.544C668.906 131.011 670.242 130.111 671.423 129.298C671.803 129.036 672.173 128.749 672.558 128.482C673.555 127.819 674.625 127.21 675.714 126.657C676.914 126.03 678.022 125.163 679.055 124.223C679.966 123.397 680.907 122.587 681.767 121.694C681.911 121.545 682.186 121.54 682.133 121.741C682.092 121.901 681.992 122.044 681.877 122.162C681.831 122.21 681.79 122.262 681.755 122.319C681.691 122.425 681.631 122.535 681.545 122.624C681.429 122.744 681.318 122.861 681.196 122.969L681.178 122.987C681.088 123.061 680.984 123.112 680.873 123.154C680.045 123.463 679.513 124.245 678.852 124.831C678.686 124.96 678.52 125.071 678.336 125.2C678.299 125.224 678.257 125.238 678.215 125.248C678.207 125.25 678.199 125.252 678.192 125.255C677.988 125.318 677.75 125.501 677.603 125.656C677.517 125.747 677.458 125.876 677.379 125.982C677.353 126.015 677.322 126.043 677.289 126.068C676.975 126.314 676.676 126.56 676.361 126.823C676.075 127.073 675.749 127.27 675.406 127.432C674.984 127.63 674.589 127.872 674.22 128.156C673.756 128.513 673.266 128.842 672.78 129.168C672.191 129.564 671.678 130.065 671.155 130.548C670.177 131.451 668.83 131.839 667.778 132.65C667.192 133.095 667.499 134.001 668.211 133.816C668.557 133.726 668.894 133.598 669.217 133.406C669.697 133.13 670.214 132.964 670.712 132.89C671.219 132.821 671.645 132.651 672.027 132.38C672.293 132.19 672.589 132.037 672.872 131.872C673.008 131.793 673.137 131.7 673.266 131.609C673.413 131.506 673.605 131.508 673.779 131.46C673.979 131.405 674.143 131.255 674.34 131.192C674.348 131.19 674.356 131.187 674.364 131.184C674.546 131.118 674.698 130.969 674.875 130.89C675.131 130.777 675.344 130.608 675.496 130.351C675.519 130.311 675.547 130.273 675.58 130.24C675.614 130.206 675.65 130.17 675.683 130.137C675.703 130.117 675.733 130.108 675.756 130.09C675.79 130.065 675.813 130.02 675.851 130.002C676.053 129.901 676.237 129.768 676.356 129.558C676.372 129.531 676.394 129.508 676.422 129.494C676.442 129.484 676.465 129.479 676.487 129.477C676.679 129.468 676.826 129.377 676.954 129.258C677.042 129.176 677.127 129.09 677.221 129.013C677.338 128.916 677.453 128.82 677.569 128.723C678.02 128.346 678.676 128.196 679.084 127.773C679.128 127.727 679.171 127.681 679.216 127.637C679.323 127.531 679.464 127.449 679.614 127.466C679.676 127.473 679.725 127.494 679.76 127.532C679.906 127.69 679.709 127.921 679.529 128.039C679.315 128.178 678.979 128.059 678.801 128.242C678.771 128.272 678.748 128.319 678.735 128.384C678.722 128.447 678.699 128.508 678.661 128.559C678.587 128.658 678.538 128.763 678.568 128.897C678.571 128.911 678.543 128.925 678.557 128.925C678.149 128.871 677.897 129.368 677.548 129.585C676.83 130.028 676.182 130.578 675.518 131.102C675.011 131.502 674.384 131.739 673.873 132.133C673.778 132.206 673.686 132.281 673.592 132.355C672.004 133.517 670.306 134.494 668.608 135.435C667.265 136.167 666.004 137.047 665.059 138.247C664.95 138.386 664.817 138.49 664.658 138.57C663.652 139.126 662.646 139.665 661.537 139.915C661.498 139.923 661.484 139.972 661.502 140.008C661.742 140.487 662.074 140.229 662.333 140.119C664.954 139.086 667.575 138.035 670.177 136.984C670.399 136.891 670.675 136.726 670.786 136.965C670.897 137.205 670.62 137.316 670.38 137.408C669.664 137.667 668.922 137.863 668.301 138.308C668.069 138.473 668.113 138.912 668.35 138.754C669.55 138.016 670.934 137.74 672.171 137.131C673.167 136.652 673.998 135.877 675.087 135.508C675.438 135.387 675.893 135.298 676.252 135.053C676.629 134.797 677.009 134.511 677.366 134.228C677.4 134.202 677.432 134.172 677.462 134.14C677.534 134.063 677.604 133.983 677.69 133.921C677.807 133.837 677.921 133.757 678.038 133.672C678.107 133.623 678.193 133.616 678.262 133.663C678.358 133.728 678.405 133.859 678.345 133.959C677.868 134.756 677.078 135.155 676.305 135.619C673.5 137.297 670.768 139.104 667.685 140.229C667.429 140.315 667.575 140.635 667.842 140.592C667.958 140.574 668.058 140.531 668.11 140.487C669.07 139.621 670.399 139.602 671.451 138.957C672.669 138.238 674.035 137.758 675.179 136.947C676.847 135.772 678.731 134.947 680.309 133.648C680.47 133.515 680.66 133.415 680.841 133.31C681.201 133.099 681.579 132.866 681.871 132.569L681.88 132.559C682.088 132.342 682.243 132.071 682.48 131.887C682.716 131.705 682.954 131.525 683.2 131.339C683.228 131.317 683.269 131.318 683.303 131.308C683.351 131.295 683.392 131.252 683.44 131.24C683.553 131.212 683.671 131.127 683.788 131.109C684.027 131.072 683.945 131.428 683.744 131.562C683.559 131.691 683.19 131.747 683.338 132.042C683.485 132.337 683.781 132.244 684.002 132.06C684.464 131.673 684.98 131.322 685.46 130.972C686.014 130.548 686.162 129.681 686.771 129.57C687.804 129.386 688.229 128.538 688.838 127.929C689.291 127.49 689.928 127.286 690.392 126.876C690.719 126.587 690.943 126.198 691.254 125.893C691.798 125.358 692.36 124.841 692.733 124.167C693.268 123.184 693.949 122.281 694.654 121.414C694.734 121.315 694.88 121.3 694.982 121.377C695.07 121.443 695.093 121.563 695.041 121.66C695.009 121.717 694.979 121.775 694.95 121.832C694.898 121.934 694.806 122.008 694.733 122.096C694.716 122.117 694.701 122.14 694.689 122.164C694.604 122.335 694.507 122.527 694.453 122.71C694.428 122.793 694.376 122.868 694.3 122.911C694.234 122.948 694.17 122.984 694.135 123.042C692.382 125.495 690.296 127.653 688.1 129.7C686.512 131.193 684.999 132.779 683.098 133.886C682.759 134.097 683.127 134.362 683.465 134.149C683.888 133.883 684.287 133.593 684.69 133.315C685.011 133.095 685.354 133.44 685.036 133.664C683.467 134.697 682.212 136.099 680.587 137.057C679.018 137.98 677.782 139.492 675.844 139.787C675.714 139.805 675.585 139.934 675.493 140.045C674.662 141.022 673.481 141.483 672.374 142.036C671.907 142.27 671.443 142.509 670.981 142.751C670.25 143.133 670.476 143.998 671.155 143.53C672.761 142.461 674.644 141.981 676.231 140.912C676.637 140.635 677.062 140.487 677.56 140.561C677.948 140.617 678.188 140.451 678.336 140.026C678.596 139.327 679.345 139.216 679.924 138.895C680.053 138.824 680.222 138.839 680.31 138.957C680.37 139.046 680.493 139.076 680.595 139.041C680.728 138.995 680.865 138.953 680.993 138.902C681.252 138.828 681.547 138.385 681.732 138.717C681.935 139.049 681.418 139.123 681.196 139.27C679.369 140.377 677.56 141.52 675.585 142.332C674.349 142.848 673.26 143.659 671.875 143.881C670.261 144.141 668.729 144.678 667.37 145.599C667.239 145.688 667.221 145.996 667.372 145.946C668.885 145.559 670.509 145.54 671.931 144.784C672.558 144.434 673.26 144.102 673.961 144.01C674.702 143.924 675.267 143.21 676.06 143.372C676.175 143.395 676.296 143.406 676.361 143.309C677.21 142.184 678.446 141.944 679.738 141.815C680.237 141.76 680.772 141.668 680.956 141.207C681.27 140.414 681.898 140.248 682.581 140.045C682.95 139.934 683.559 139.953 683.614 139.492C683.688 138.772 684.205 138.588 684.611 138.182C685.211 137.558 687.438 136.458 688.284 136.08C688.432 136.025 688.543 135.896 688.506 135.73C688.404 135.105 693.52 131.569 694.375 130.714C694.449 130.64 694.597 130.529 694.486 130.419C693.721 129.679 696.914 127.266 697.403 126.675C698.51 125.348 699.285 123.762 700.466 122.471C700.596 122.323 700.78 122.157 700.817 121.973C701.039 120.977 701.795 120.295 702.22 119.428C702.718 118.414 703.807 117.566 703.309 116.201C703.202 115.917 705.427 112.19 705.708 111.628C705.765 111.55 705.843 111.45 705.919 111.339C706.207 110.918 706.223 110.35 706.484 109.913C706.651 109.631 706.799 109.343 706.756 108.987C706.743 108.884 706.666 108.803 706.57 108.764C706.526 108.746 706.481 108.728 706.437 108.709C706.342 108.67 706.294 108.561 706.33 108.465C706.336 108.449 706.342 108.433 706.348 108.418C706.408 108.253 706.946 107.811 706.853 107.663C706.799 107.573 706.727 107.553 706.637 107.621L706.633 107.625C706.632 107.626 706.63 107.626 706.628 107.626C706.624 107.626 706.62 107.622 706.621 107.617C706.908 106.695 707.094 105.751 707.276 104.811C707.356 104.4 707.86 104.132 708.115 103.799C708.243 103.631 708.286 103.409 708.163 103.2ZM667.095 145.854C667.092 145.854 667.09 145.852 667.089 145.85C667.087 145.846 667.093 145.849 667.095 145.854ZM677.782 115.961C677.478 116.346 677.533 116.063 677.985 116.256C678.908 116.625 678.945 115.814 679.185 115.426C680.421 113.287 682.119 111.462 683.264 109.267C683.799 108.253 684.26 107.22 684.814 106.224C685.719 104.62 686.291 102.868 686.549 101.024C686.642 100.416 686.937 99.8623 687.085 99.2538C687.472 97.7417 687.306 96.1189 688.007 94.662C688.063 94.5514 688.118 94.4223 688.1 94.3301C687.62 92.9286 688.1 91.5087 688.303 90.1994C688.487 88.9454 688.21 87.8205 688.192 86.6403C688.174 85.6445 687.823 84.6856 687.712 83.7082C687.657 83.2472 687.251 82.528 688.063 82.1223C688.192 82.0485 688.69 81.0527 687.657 80.979C687.361 80.9605 687.38 80.7577 687.343 80.5364C686.955 78.7107 686.531 76.8851 686.143 75.0595C685.83 73.6442 684.986 72.4487 684.67 71.0348C684.668 71.0256 684.669 71.0241 684.665 71.0155C684.622 70.9174 684.456 71.0922 684.49 71.1941C685.06 72.8925 685.684 74.5141 686.106 76.2028C686.918 79.5406 687.417 82.9152 687.638 86.3452C687.952 91.3611 687.417 96.3033 686.143 101.153C685.22 104.675 683.319 107.773 681.455 110.853C680.346 112.654 679.082 114.314 677.782 115.961ZM661.392 139.954C661.346 139.953 661.363 140.021 661.408 140.01C661.439 140.002 661.448 139.963 661.417 139.957C661.409 139.955 661.401 139.954 661.392 139.954ZM661.017 140.049C661.004 140.042 660.985 140.051 660.985 140.066C660.985 140.075 660.992 140.082 661.001 140.081C661.02 140.079 661.042 140.073 661.064 140.066C661.075 140.062 661.075 140.053 661.067 140.057C661.065 140.058 661.063 140.059 661.06 140.06C661.056 140.062 661.051 140.063 661.047 140.061C661.038 140.059 661.027 140.055 661.017 140.049ZM663.661 146.425C663.455 146.477 663.474 146.854 663.687 146.862C663.725 146.864 663.766 146.859 663.809 146.85C664.547 146.684 665.323 146.665 666.024 146.333C666.375 146.167 666.947 146.481 667.095 145.854C665.876 145.651 664.806 146.278 663.661 146.425ZM684.094 70.3017C683.872 69.1441 683.993 69.0364 684.088 70.2113C684.09 70.2415 684.093 70.2716 684.094 70.3017ZM670.472 124.296L670.482 124.298C670.506 124.302 670.508 124.295 670.491 124.278L670.472 124.296ZM706.742 108.898C706.73 108.91 706.73 108.911 706.742 108.898V108.898ZM685.998 42.5982C686.199 42.6462 686.247 42.3594 686.095 42.2191C685.879 42.0193 685.673 42.5084 685.956 42.5873C685.97 42.5912 685.984 42.5948 685.998 42.5982ZM605.187 65.4149C605.187 65.4149 605.187 65.4268 605.178 65.4315C605.173 65.4337 605.169 65.4375 605.169 65.4426C605.169 65.4477 605.166 65.4518 605.171 65.4518C605.176 65.4518 605.187 65.4477 605.187 65.4426C605.187 65.4355 605.187 65.4252 605.187 65.4149ZM605.187 65.4149C605.536 64.7516 605.331 64.6455 605.193 65.3822C605.191 65.3931 605.189 65.404 605.187 65.4149ZM670.472 124.296L670.491 124.278H670.48C670.464 124.278 670.461 124.285 670.472 124.296ZM613.955 95.4181C613.967 95.4954 614 95.4988 613.962 95.4303L613.955 95.4181ZM613.955 95.4181C613.905 94.9735 613.682 94.9734 613.918 95.3536C613.931 95.375 613.944 95.3964 613.955 95.4181ZM617.903 59.5866C617.817 59.7228 618.013 59.8378 618.118 59.7161L618.125 59.7079C618.241 59.5664 618 59.4321 617.903 59.5866ZM706.742 108.898C706.625 108.4 707.159 108.582 706.751 108.892L706.742 108.898ZM617.409 60.2247C617.264 60.3784 617.456 60.5991 617.591 60.4361C617.6 60.4249 617.609 60.4135 617.617 60.4017C617.726 60.245 617.54 60.0859 617.409 60.2247ZM680.144 139.233C680.209 139.324 680.274 139.287 680.333 139.238C680.372 139.205 680.38 139.145 680.348 139.105C680.315 139.064 680.256 139.049 680.207 139.068C680.13 139.097 680.064 139.126 680.144 139.233ZM620.095 107.608C620.113 107.593 620.111 107.562 620.088 107.554C620.049 107.539 620.011 107.523 619.972 107.497C619.982 107.528 619.999 107.56 620.014 107.591C620.027 107.617 620.072 107.627 620.095 107.608ZM619.972 107.497C619.972 107.481 619.972 107.479 619.961 107.467C619.958 107.465 619.956 107.463 619.953 107.462C619.95 107.461 619.946 107.46 619.943 107.461C619.94 107.462 619.937 107.465 619.936 107.468C619.935 107.471 619.936 107.475 619.937 107.478C619.938 107.481 619.94 107.483 619.942 107.486C619.954 107.497 619.956 107.497 619.972 107.497Z" fill="#2B2B2B"/>
<path fill-rule="evenodd" clip-rule="evenodd" d="M642.669 1.54717C632.818 1.69103 626.476 2.07315 624.08 1.96664C623.568 1.94393 622.357 1.9192 621.986 2.02924C621.302 2.23216 620.865 2.18572 618.449 2.18572C616.67 2.18572 617.494 1.951 615.611 1.93282C613.192 1.9096 596.791 1.79199 595.038 2.56683C594.376 2.8591 592.904 2.8596 590.964 2.86768C590.544 2.86919 589.369 2.9752 589.566 3.08322C589.842 3.23466 589.642 3.05849 592.429 3.09433C593.332 3.10594 594.575 3.05041 595.027 3.07363C595.475 3.09685 595.423 3.25838 595.216 3.30987C594.448 3.49967 592.963 3.40982 592.047 3.44414C592.047 3.44414 591.017 3.52794 586.755 3.76771C586.012 4.15639 586.579 4.10743 586.617 4.38102C586.664 4.72023 587.51 4.64552 587.987 4.91104C588.288 5.07913 588.683 5.23258 588.718 5.4345C588.728 5.49507 588.799 5.57028 588.937 5.61016C590.68 6.10636 590.741 6.72724 592.418 6.59751C593.405 6.52129 596.845 6.3956 596.907 6.67071C596.976 6.97156 594.191 6.58944 594.091 7.11693C594.067 7.24363 593.894 7.30673 593.54 7.35569C592.838 7.45261 592.907 7.46018 592.859 8.09419C592.842 8.32437 594.077 8.33245 594.856 8.33547C595.587 8.3385 597.736 8.43492 597.747 8.50407C597.781 8.75343 594.728 8.67519 594.084 8.67923C593.096 8.68529 594.618 9.24257 594.657 9.7842C594.666 9.89222 595.501 10.0447 595.877 10.1295C596.672 10.3082 595.881 10.451 596.428 10.5782C597.026 10.717 597.83 11.2905 597.501 11.5651C597.266 11.7614 596.556 12.2536 597.997 12.3833C598.947 12.4691 600.817 12.4969 598.904 13.1319C599.39 13.5277 599.25 14.1228 598.965 14.4307C598.125 15.3388 598.883 15.4034 598.519 15.9334C598.384 16.1303 597.899 16.0612 597.342 16.1571C597.042 16.2091 597.109 16.3322 597.335 16.3595C598.419 16.4892 599.436 16.515 599.889 16.7921C600.407 17.1106 600.979 17.4422 602.346 17.5185C602.631 17.5346 604.662 17.685 604.678 17.7825C604.688 17.8557 604.453 17.8233 603.577 17.9031C602.788 17.9753 603.249 18.4321 604.206 18.4604C604.206 18.4604 609.052 18.5164 610.727 18.5629C617.756 18.7577 619.23 18.5174 626.547 18.7345C627.285 18.7562 630.268 18.631 630.615 18.5977C631.975 18.7128 632.144 18.3872 632.967 18.3746C633.198 18.371 642.339 18.3347 650.767 18.478C651.722 18.4942 652.645 18.4028 653.573 18.4205C654.511 18.4382 655.442 18.4897 656.389 18.471C658.998 18.4195 655.718 18.2585 654.68 18.2585C651.992 18.2585 651.419 18.2585 648.962 18.2655C648.925 18.26 648.21 18.2342 647.899 18.209C647.396 18.1681 647.236 17.8511 648.004 17.8466C649.413 17.8466 649.708 17.6134 655.475 17.6664C660.903 17.7158 660.147 17.5063 662.633 17.5972C663.141 17.6159 667.18 17.6411 667.845 17.5861C670.316 17.3822 671.2 17.5427 672.107 17.4155C672.52 17.3574 672.416 17.1308 672.052 17.1111C663.678 16.6517 667.797 17.0848 661.995 16.8097C661.511 16.787 660.654 16.2499 663.731 16.3332C665.549 16.3822 665.528 16.1793 666.917 16.2136C671.057 16.3156 671.126 15.9859 673.156 16.0702C675.557 16.1702 675.784 16.0924 676.62 16.103C677.66 16.1162 678.111 16.2262 678.398 16.0571C679.028 15.6866 680.253 15.9133 679.923 15.7179C673.541 15.6417 671.033 15.5978 670.58 15.4176C669.806 15.1086 675.179 15.2323 676.454 15.1288C678.726 14.9451 679.835 15.0496 680.917 14.9092C682.017 14.7664 683.017 14.8593 684.78 14.7699C686.827 14.6659 687.936 14.9582 689.246 14.9279C689.246 14.9279 684.115 14.9996 723.978 14.7906C724.719 14.7866 724.532 14.5821 724.1 14.5811C721.696 14.5771 716.657 14.3378 713.754 14.2828C710.535 14.2217 701.564 14.5811 699.968 14.4211C699.968 14.4211 678.097 14.4575 672.425 14.4055C670.146 14.3848 666.553 14.1884 664.424 14.2692C663.896 14.2894 663.472 14.2545 662.237 14.0274C659.119 13.4545 678.287 14.0814 680.015 13.8053C680.614 13.7094 681.253 13.6942 681.915 13.7119C683.335 13.7508 682.919 13.4358 684.664 13.4116C688.213 13.3626 687.169 13.4307 689.529 13.351C690.909 13.304 690.18 13.3626 691.623 13.351C692.565 13.3434 692.799 13.1718 693.708 13.3015C694.026 13.3469 694.695 13.2637 694.721 13.2389C694.843 13.1203 694.594 13.1874 688.847 13.1491C686.238 13.1314 684.087 13.1889 684.087 13.1889C682.789 13.1052 681.492 13.1385 680.206 13.1864C679.054 12.7538 678.489 13.2046 676.618 12.8977C676.523 12.8825 676.599 12.7987 676.675 12.7952C680.652 12.6135 677.143 12.8235 681.839 12.72C686.683 12.614 684.371 12.3489 686.899 12.1425C688.273 12.1895 687.986 12.1663 689.002 12.1425C698.699 11.9139 678.931 12.2273 681.886 11.6887C682.421 11.5913 683.114 11.559 683.34 11.3425C683.43 11.2556 683.75 11.2344 684.044 11.2173C685.751 11.1183 685.179 10.7483 686.899 10.712C692.704 10.5898 709.724 10.6252 715.79 10.4798C715.923 10.4768 716.135 10.3682 715.893 10.3652C712.187 10.3188 711.774 10.3879 710.734 10.2496C710.508 10.2193 705.052 9.92351 703.772 10.1325C703.157 10.2329 702.538 10.2314 699.691 10.1916C699.289 10.186 698.985 10.1132 698.794 9.72665C698.794 9.30791 699.825 9.33579 700.417 9.15508C700.182 9.08744 700.004 9.11738 697.457 9.02248C696.768 8.99673 696.579 9.02248 695.778 9.02248C695.698 9.03257 695.135 8.89729 695.014 8.87458C693.763 8.64187 698.927 8.5994 694.137 8.25319C692.488 8.13406 692.321 8.18757 691.632 8.06995C690.481 7.87359 691.364 7.67572 691.602 7.64089C692.706 7.47936 692.967 7.72468 696.077 7.23252C698.428 6.85999 700.241 7.06948 700.94 6.82415C700.472 6.75803 693.807 6.70755 693.244 6.8923C692.195 7.23606 689.774 6.76055 688.432 6.62426C688.314 6.61215 688.181 6.57176 688.15 6.53693C687.87 6.22801 685.958 6.29212 688.024 5.83882C688.472 5.74089 689.052 5.70102 689.477 5.55564C689.211 5.54655 688.99 5.52182 688.798 5.53545C686.858 5.67376 686.76 5.48497 685.429 5.42339C682.605 5.29164 682.397 5.80046 680.934 5.33354C680.837 5.30274 680.792 5.18563 680.97 5.18362L688.992 5.08569C690.516 4.96959 692.336 5.20835 693.727 5.12758C697.468 4.90952 699.271 4.90346 700.702 4.90346C701.277 4.90346 701.604 5.03874 705.316 5.03269C705.47 5.03269 711.526 4.96858 712.028 4.95394C712.792 4.93173 714.171 5.00306 714.981 4.74546C715.104 4.50418 712.099 4.74546 710.446 4.68367C709.3 4.68367 707.699 4.55237 706.429 4.69196C705.895 4.75051 705.527 4.68014 705.002 4.68367C704.765 4.68518 699.186 4.78614 698.412 4.68367C696.219 4.66751 695.161 4.64451 693.67 4.63643C690.467 4.61977 690.678 4.86863 689.612 4.70155C688.655 4.55163 688.149 4.70306 687.366 4.50267C686.531 4.28864 685.915 4.56324 685.193 4.3053C684.256 3.97113 679.794 4.34012 678.812 3.91308C678.456 3.75862 678.463 3.73792 675.347 3.72177C673.033 3.71016 670.723 3.61678 668.406 3.70461C668.054 3.71824 667.698 3.71571 667.346 3.66675C666.114 3.49512 665.153 3.48806 659.59 3.53551C657.296 3.55519 657.724 3.22557 655.608 3.32249C654.545 3.37095 651.441 3.20839 649.7 3.08673C648.857 2.77125 648.238 2.79095 648.346 2.53553C648.44 2.31595 657.876 2.34826 658.624 2.29879C658.583 2.12858 657.162 2.28859 656.863 2.12858C656.746 2.06497 645.271 2.09587 645.043 2.10142C642.979 2.14887 636.441 2.19581 637.939 1.8041C639.314 1.44419 644.368 1.99239 644.314 1.50982C644.307 1.45177 643.278 1.53758 642.663 1.54667L642.669 1.54717ZM680.283 11.6529C680.599 11.6721 680.842 11.8215 680.31 11.8578C679.925 11.8846 678.788 11.879 678.861 11.8245C679.096 11.6458 679.711 11.6176 680.283 11.6529ZM697.297 9.53534C696.794 10.0144 695.197 9.94219 695.184 9.75037C695.142 9.18401 697.637 9.21177 697.297 9.53534Z" fill="#A92631"/>
<path d="M97.2931 83.8475C97.2931 88.2826 97.1698 91.6705 96.9231 94.0113H13.1327C13.5027 101.65 15.3523 108.179 18.6817 113.6C22.0112 119.021 26.3887 123.148 31.8145 125.981C37.2402 128.692 43.1592 130.047 49.5714 130.047C57.9566 130.047 64.9854 128.014 70.6577 123.948C76.4534 119.883 80.276 114.401 82.1257 107.501H95.8133C93.3471 117.357 88.0447 125.427 79.9061 131.71C71.8908 137.87 61.7793 140.95 49.5714 140.95C40.0764 140.95 31.5678 138.855 24.0458 134.667C16.5238 130.355 10.6048 124.318 6.28891 116.557C2.0963 108.672 0 99.4936 0 89.0218C0 78.5499 2.0963 69.3717 6.28891 61.487C10.4815 53.6023 16.3388 47.5656 23.8608 43.3769C31.3829 39.1881 39.953 37.0938 49.5714 37.0938C59.1897 37.0938 67.5749 39.1881 74.727 43.3769C82.0024 47.5656 87.5514 53.2327 91.3741 60.3782C95.3201 67.4005 97.2931 75.2236 97.2931 83.8475ZM84.1604 83.4779C84.2837 75.9628 82.7423 69.5565 79.5362 64.2589C76.4534 58.9614 72.1991 54.9575 66.7734 52.2471C61.3477 49.5368 55.4287 48.1816 49.0165 48.1816C39.3981 48.1816 31.1979 51.2615 24.4158 57.4214C17.6336 63.5814 13.8726 72.2668 13.1327 83.4779H84.1604Z" fill="#2B2B2B"/>
<path d="M242.136 36.7242C253.974 36.7242 263.592 40.4817 270.991 47.9968C278.513 55.3887 282.274 66.1685 282.274 80.3363V139.471H269.511V81.8147C269.511 70.8501 266.86 62.4726 261.557 56.6823C256.255 50.8919 249.041 47.9968 239.916 47.9968C230.421 47.9968 222.838 51.1383 217.165 57.4214C211.493 63.7046 208.657 72.8212 208.657 84.7714V139.471H195.894V81.8147C195.894 70.8501 193.243 62.4726 187.94 56.6823C182.638 50.8919 175.362 47.9968 166.114 47.9968C156.619 47.9968 149.035 51.1383 143.363 57.4214C137.691 63.7046 134.855 72.8212 134.855 84.7714V139.471H121.907V38.5721H134.855V55.9431C138.061 49.66 142.623 44.9168 148.542 41.7137C154.461 38.3873 161.058 36.7242 168.334 36.7242C177.089 36.7242 184.734 38.8185 191.27 43.0073C197.929 47.196 202.738 53.3559 205.697 61.487C208.41 53.4791 213.034 47.3808 219.57 43.1921C226.229 38.8801 233.751 36.7242 242.136 36.7242Z" fill="#2B2B2B"/>
<path d="M319.784 60.9326C323.114 53.9103 328.231 48.1816 335.137 43.7465C342.165 39.3113 350.427 37.0938 359.922 37.0938C369.171 37.0938 377.433 39.2497 384.708 43.5617C391.983 47.7504 397.656 53.7871 401.725 61.6718C405.918 69.4333 408.014 78.4883 408.014 88.837C408.014 99.1856 405.918 108.302 401.725 116.187C397.656 124.072 391.922 130.17 384.523 134.482C377.248 138.794 369.047 140.95 359.922 140.95C350.304 140.95 341.98 138.794 334.952 134.482C328.046 130.047 322.99 124.318 319.784 117.296V139.471H307.022V2.72148H319.784V60.9326ZM394.881 88.837C394.881 80.4595 393.217 73.2524 389.887 67.2157C386.681 61.0558 382.242 56.3743 376.569 53.1711C370.897 49.968 364.485 48.3664 357.333 48.3664C350.427 48.3664 344.077 50.0296 338.281 53.3559C332.609 56.6823 328.108 61.4254 324.778 67.5853C321.449 73.7452 319.784 80.8907 319.784 89.0218C319.784 97.1529 321.449 104.298 324.778 110.458C328.108 116.618 332.609 121.361 338.281 124.688C344.077 128.014 350.427 129.677 357.333 129.677C364.485 129.677 370.897 128.076 376.569 124.872C382.242 121.546 386.681 116.803 389.887 110.643C393.217 104.36 394.881 97.0913 394.881 88.837Z" fill="#2B2B2B"/>
<path d="M445.711 56.4975C448.547 50.2144 452.863 45.348 458.659 41.8985C464.578 38.4489 471.792 36.7242 480.3 36.7242V50.2144H476.786C467.414 50.2144 459.892 52.7399 454.22 57.791C448.547 62.8422 445.711 71.2812 445.711 83.1083V139.471H432.763V38.5721H445.711V56.4975Z" fill="#2B2B2B"/>
<path d="M583.939 38.5721L524.009 186.964H510.506L530.113 138.917L488.68 38.5721H502.923L537.327 124.688L570.621 38.5721H583.939Z" fill="#2B2B2B"/>
<path d="M779.238 36.7242C791.323 36.7242 801.188 40.4817 808.833 47.9968C816.478 55.3887 820.301 66.1685 820.301 80.3363V139.471H807.538V81.8147C807.538 70.8501 804.764 62.4726 799.215 56.6823C793.789 50.8919 786.329 47.9968 776.833 47.9968C767.092 47.9968 759.323 51.0767 753.528 57.2367C747.732 63.3966 744.834 72.4516 744.834 84.4018V139.471H731.886V38.5721H744.834V55.7583C748.04 49.5984 752.664 44.9168 758.707 41.7137C764.749 38.3873 771.593 36.7242 779.238 36.7242Z" fill="#2B2B2B"/>
<path d="M853.869 19.538C851.279 19.538 849.06 18.614 847.21 16.7661C845.36 14.9181 844.435 12.6389 844.435 9.92856C844.435 7.2182 845.36 5.00064 847.21 3.27586C849.06 1.42789 851.279 0.503906 853.869 0.503906C856.458 0.503906 858.678 1.42789 860.528 3.27586C862.377 5.00064 863.302 7.2182 863.302 9.92856C863.302 12.6389 862.377 14.9181 860.528 16.7661C858.678 18.614 856.458 19.538 853.869 19.538ZM860.343 38.5721V139.471H847.395V38.5721H860.343Z" fill="#2B2B2B"/>
<path d="M884.669 89.0218C884.669 78.5499 886.765 69.4333 890.958 61.6718C895.15 53.7871 900.946 47.7504 908.345 43.5617C915.743 39.2497 924.19 37.0938 933.685 37.0938C946.14 37.0938 956.375 40.1737 964.39 46.3336C972.529 52.4935 977.769 60.871 980.112 71.466H966.24C964.513 64.1973 960.752 58.5302 954.957 54.4647C949.284 50.276 942.194 48.1816 933.685 48.1816C926.903 48.1816 920.799 49.7216 915.373 52.8015C909.948 55.8815 905.632 60.5014 902.426 66.6613C899.343 72.698 897.802 80.1515 897.802 89.0218C897.802 97.892 899.343 105.407 902.426 111.567C905.632 117.727 909.948 122.347 915.373 125.427C920.799 128.507 926.903 130.047 933.685 130.047C942.194 130.047 949.284 128.014 954.957 123.948C960.752 119.76 964.513 113.969 966.24 106.578H980.112C977.769 116.926 972.529 125.242 964.39 131.525C956.251 137.808 946.016 140.95 933.685 140.95C924.19 140.95 915.743 138.855 908.345 134.667C900.946 130.355 895.15 124.318 890.958 116.557C886.765 108.672 884.669 99.4936 884.669 89.0218Z" fill="#2B2B2B"/>
</svg>
