<svg width="125" height="33" viewBox="0 0 125 33" xmlns="http://www.w3.org/2000/svg"><title>kindlink-logo</title><defs><linearGradient x1="18.815%" y1="84.622%" x2="85.297%" y2="18.128%" id="a"><stop stop-color="#08B275" offset="0%"/><stop stop-color="#1768A6" offset="100%"/></linearGradient></defs><g fill="none" fill-rule="evenodd"><path d="M52.603 24.48h-4.02l-3.557-4.897h-1.444v4.897H40V6.438h3.582v10.284h1.495l3.144-4.614h4.021l-4.252 6.109 4.613 6.263zm3.944 0h-3.583V12.108h3.583V24.48zm.309-16.47c0 1.418-.98 2.037-2.114 2.037-1.108 0-2.087-.62-2.087-2.037 0-1.392.98-2.01 2.087-2.01 1.134 0 2.114.618 2.114 2.01zm4.794 5.67c.953-1.108 2.345-1.932 4.124-1.932 3.247 0 5.025 2.216 5.025 5.077v7.655h-3.582v-7.191c0-1.676-1.005-2.449-2.397-2.449-1.263 0-2.242.825-2.758 1.572v8.068H58.48V12.108h3.17v1.572zm20.31-7.242h3.556V24.48h-3.144v-1.805c-.8 1.109-2.216 2.166-4.485 2.166-3.943 0-6.057-3.17-6.057-6.547 0-3.376 2.114-6.546 6.057-6.546 1.959 0 3.273.799 4.072 1.675V6.438zm0 10.387v2.938a3.53 3.53 0 0 1-3.222 2.062c-2.036 0-3.248-1.598-3.248-3.53 0-1.934 1.212-3.532 3.248-3.532a3.53 3.53 0 0 1 3.221 2.062zm5.49-10.387h3.581V24.48H87.45V6.438zm9.123 18.042h-3.582V12.108h3.582V24.48zm.31-16.47c0 1.418-.98 2.037-2.114 2.037-1.108 0-2.088-.62-2.088-2.037 0-1.392.98-2.01 2.088-2.01 1.134 0 2.114.618 2.114 2.01zm4.793 5.67c.954-1.108 2.346-1.932 4.124-1.932 3.248 0 5.026 2.216 5.026 5.077v7.655h-3.582v-7.191c0-1.676-1.006-2.449-2.398-2.449-1.262 0-2.242.825-2.757 1.572v8.068h-3.583V12.108h3.17v1.572zm23.48 10.8h-4.02l-3.557-4.897h-1.443v4.897h-3.583V6.438h3.583v10.284h1.494l3.145-4.614h4.02l-4.252 6.109 4.613 6.263z" fill="#1768A6"/><path d="M8.314 0l.205.003a8.313 8.313 0 0 1 4.32 1.36 8.257 8.257 0 0 1 1.304 1.06l2.446 2.444 2.301-2.374.036-.037a8.055 8.055 0 0 1 .279-.27A8.184 8.184 0 0 1 23.418.113a8.243 8.243 0 0 1 7.76 2.923 8.273 8.273 0 0 1 1.307 2.253 8.222 8.222 0 0 1 .545 2.951v.137a8.459 8.459 0 0 1-.137 1.396 8.343 8.343 0 0 1-.658 2.038 8.278 8.278 0 0 1-1.63 2.315L28.23 16.5l2.392 2.39.036.037a8.283 8.283 0 0 1 2.357 6.306 8.186 8.186 0 0 1-1.042 3.563 8.297 8.297 0 0 1-2.788 2.932 8.236 8.236 0 0 1-6.934.873 8.2 8.2 0 0 1-3.362-2.094l-2.3-2.374c-.821.82-1.641 1.642-2.463 2.461l-.037.037-.056.053a8.156 8.156 0 0 1-.636.553 8.253 8.253 0 0 1-2.943 1.475 8.271 8.271 0 0 1-4.185.038 8.291 8.291 0 0 1-5.009-3.647 8.21 8.21 0 0 1-.966-2.215 8.26 8.26 0 0 1-.288-2.138c-.008-5.5-.008-11 0-16.5a7.516 7.516 0 0 1 .038-.767A8.28 8.28 0 0 1 8.287 0h.027zm-.045 2.31a6.004 6.004 0 0 0-3.636 1.249 5.972 5.972 0 0 0-2.316 4.698c-.008 5.495-.008 10.99 0 16.486a6.07 6.07 0 0 0 .13 1.222 6 6 0 0 0 .42 1.26 5.947 5.947 0 0 0 2.293 2.581 5.964 5.964 0 0 0 2.684.868 5.98 5.98 0 0 0 4.666-1.731l2.47-2.47c-1.368-1.41-2.739-2.82-4.104-4.234l-.037-.038a8.454 8.454 0 0 1-.617-.727 8.211 8.211 0 0 1-1.516-3.425 8.272 8.272 0 0 1-.136-1.938 8.303 8.303 0 0 1 .77-3.121 8.23 8.23 0 0 1 1.481-2.173l.072-.074 4.087-4.217c-.827-.828-1.655-1.656-2.484-2.482a5.88 5.88 0 0 0-.973-.782 5.965 5.965 0 0 0-3.18-.952H8.27zm9.954 24.19c.78.804 1.558 1.61 2.339 2.412l.04.04.066.066a5.914 5.914 0 0 0 1.968 1.269 5.915 5.915 0 0 0 6.11-1.114 6.004 6.004 0 0 0 1.24-1.557 5.762 5.762 0 0 0 .415-.938 6.108 6.108 0 0 0 .182-.652 5.892 5.892 0 0 0 .136-1.27l-.001-.106a5.594 5.594 0 0 0-.06-.77 6.171 6.171 0 0 0-.187-.856 5.901 5.901 0 0 0-.98-1.922 5.946 5.946 0 0 0-.495-.57l-.013-.013-.014-.014-2.373-2.372-8.373 8.367zm-5.669-14.152l-.053.055-.14.153a5.933 5.933 0 0 0-1.455 4.592 6.311 6.311 0 0 0 .134.764 5.93 5.93 0 0 0 1.461 2.684l.053.056 4.06 4.189 8.348-8.341-8.347-8.34-4.06 4.188zM24.763 2.309a6.336 6.336 0 0 0-.502.023 5.96 5.96 0 0 0-1.795.45 5.935 5.935 0 0 0-1.917 1.32L18.223 6.5l8.373 8.367c.795-.795 1.593-1.59 2.387-2.386a6.037 6.037 0 0 0 .971-1.284 6.095 6.095 0 0 0 .575-1.431 5.976 5.976 0 0 0 .189-1.416v-.107a5.83 5.83 0 0 0-.136-1.27 5.892 5.892 0 0 0-1.849-3.158 5.993 5.993 0 0 0-1.725-1.074 5.903 5.903 0 0 0-2.189-.431h-.056z" fill="url(#a)"/></g></svg>