<?xml version="1.0" encoding="UTF-8"?> <svg xmlns="http://www.w3.org/2000/svg" id="Layer_2" viewBox="0 0 197.6 43.93"><defs><style>.cls-1{fill:#2856fa;}.cls-2{fill:#02215a;}</style></defs><g id="Layer_1-2"><path class="cls-1" d="M43.93,0h-21.97c-.9,0-1.79.05-2.67.16C8.43,1.48,0,10.74,0,21.97c0,4,1.07,7.75,2.94,10.98.44.76.93,1.49,1.46,2.2L0,43.93h21.97c6.23,0,11.85-2.59,15.84-6.75,1.22-1.27,2.29-2.69,3.19-4.23,1.87-3.23,2.94-6.98,2.94-10.98,0-4.95-1.64-9.51-4.39-13.18L43.93,0ZM35.7,32.95h-13.73c-6.07,0-10.98-4.92-10.98-10.98,0-3.59,1.73-6.78,4.39-8.79,1.84-1.38,4.12-2.19,6.59-2.19,1.02,0,2.01.14,2.95.4,4.63,1.29,8.04,5.54,8.04,10.58,0,1.41-.27,2.76-.75,3.99l3.5,6.99Z"></path><circle class="cls-2" cx="134.71" cy="6.25" r="4.11"></circle><path class="cls-2" d="M83.81,36.35c-8.11-4.32-8.11-17.21,0-21.53,1.91-1.05,4.06-1.58,6.46-1.58,7.05-.13,12.61,5.26,12.49,12.35.12,7.08-5.44,12.48-12.49,12.35-2.4,0-4.55-.53-6.46-1.58ZM94.44,30.42c1.09-1.2,1.63-2.81,1.63-4.84.07-3.67-2.16-6.65-5.8-6.64-3.64,0-5.91,2.97-5.84,6.64-.07,3.68,2.21,6.65,5.84,6.64,1.69,0,3.08-.6,4.17-1.81Z"></path><path class="cls-2" d="M111.48,36.35c-8.23-4.31-8.22-17.22,0-21.53,5.47-3.03,14.28-1.85,16.75,4.52l-5.12,2.9c-1.19-2.2-2.89-3.3-5.12-3.3-1.72,0-3.15.59-4.28,1.78-2.26,2.17-2.26,7.54,0,9.72,1.13,1.19,2.55,1.78,4.28,1.78,2.26,0,3.97-1.1,5.12-3.3l5.12,2.94c-2.56,6.3-11.25,7.52-16.75,4.48Z"></path><rect class="cls-2" x="131.41" y="13.59" width="6.61" height="23.98"></rect><path class="cls-2" d="M195.08,15.89c1.68,1.77,2.52,4.42,2.52,7.96v13.73h-6.61v-12.66c0-1.9-.37-3.32-1.12-4.26-1.52-2.04-5.39-1.76-6.88.18-.9,1.06-1.35,2.62-1.35,4.7v12.03h-6.61v-12.66c0-3.77-1.44-5.66-4.32-5.66-1.52,0-2.74.53-3.64,1.58-.9,1.06-1.35,2.62-1.35,4.7v12.03h-6.61V13.59h6.31v2.76c3.59-4.37,11.69-4.22,14.65.8,3.22-4.6,11.28-5.34,15.01-1.27Z"></path><path class="cls-2" d="M73.76,33.32c-2.94,4.42-9.1,5.33-14.49,4.55-1.21-.17-2.38-.43-3.47-.76-2.19-.67-3.94-1.54-5.27-2.61l2.61-5.22c2.42,1.77,5.85,2.92,8.91,3.03.2,0,.39.01.59,0,1.95,0,3.39-.31,4.32-.91,1.56-.92,1.92-3.09.57-4.28-.55-.49-1.25-.89-2.11-1.18-.05-.02-.1-.04-.16-.05-2.38-.77-6.91-1.75-8.89-2.62-.06-.03-.13-.05-.19-.08-1.36-.57-2.53-1.45-3.52-2.64-2.07-2.42-2.01-7.18-.15-9.92,2.41-3.72,7.43-5.08,12.33-4.78,3.36.21,6.67,1.2,9.05,2.75l-2.6,5.2c-2.58-1.45-5.15-2.17-7.73-2.17-.6,0-1.15.03-1.66.1-1.1.14-1.97.43-2.6.89-1.68,1.1-1.91,3.64-.21,4.74.13.09.27.16.42.23,2.33,1.12,5.64,1.62,8.6,2.58,2.2.71,4.22,1.67,5.5,3.33,2.07,2.37,2.01,7.11.13,9.83Z"></path><path class="cls-2" d="M156.16,36.42c-3.13,2.32-9.18,1.93-11.65-.67-.18-.18-.34-.36-.5-.55-1.14-1.42-1.7-3.38-1.7-5.86V8.29h6.61v5.84h6.27l-2.67,5.35h-3.59v9.76c0,1.01.24,1.79.72,2.34.96,1.12,2.92,1,4.24.28l2.28,4.55Z"></path></g></svg> 