<?xml version="1.0" encoding="UTF-8"?> <svg xmlns="http://www.w3.org/2000/svg" viewBox="0 0 179.216 20.641"><title>proforecast-logo</title><path d="M52.733,88.761h5.819a11.727,11.727,0,0,1,2.408.245A5.939,5.939,0,0,1,63,89.825a4.22,4.22,0,0,1,1.406,1.54,5,5,0,0,1,.525,2.409,5.377,5.377,0,0,1-.562,2.64,4.022,4.022,0,0,1-1.516,1.553,6.347,6.347,0,0,1-2.213.746,17.026,17.026,0,0,1-2.628.2h-2.2v7.164h-3.08Zm4.939,7.507q.66,0,1.369-.049a4.225,4.225,0,0,0,1.308-.293,2.335,2.335,0,0,0,.978-.734,2.187,2.187,0,0,0,.379-1.369,2.162,2.162,0,0,0-.342-1.284,2.28,2.28,0,0,0-.881-.734,3.734,3.734,0,0,0-1.2-.33,11.741,11.741,0,0,0-1.271-.073h-2.2v4.866Z" transform="translate(-52.733 -87.649)" style="fill:#9dc423"></path><path d="M67.916,88.761h6.015a12.246,12.246,0,0,1,2.408.233,6.189,6.189,0,0,1,2.066.794A4.176,4.176,0,0,1,79.848,91.3a4.891,4.891,0,0,1,.537,2.421,4.82,4.82,0,0,1-1.039,3.154,4.455,4.455,0,0,1-2.971,1.54l4.6,7.653H77.256l-4.01-7.335H71v7.335H67.916ZM73.393,96.1q.66,0,1.32-.061a4.021,4.021,0,0,0,1.21-.293,2.062,2.062,0,0,0,.892-.709,2.248,2.248,0,0,0,.343-1.333,2.127,2.127,0,0,0-.318-1.222,1.983,1.983,0,0,0-.831-.7,3.821,3.821,0,0,0-1.137-.306,10.56,10.56,0,0,0-1.21-.073H71V96.1Z" transform="translate(-52.733 -87.649)" style="fill:#9dc423"></path><path d="M82.634,97.49a10.012,10.012,0,0,1,.685-3.777,8.472,8.472,0,0,1,1.895-2.9A8.328,8.328,0,0,1,88.1,88.969a10.133,10.133,0,0,1,3.679-.647,10.266,10.266,0,0,1,3.717.6A8.117,8.117,0,0,1,98.4,90.742a8.423,8.423,0,0,1,1.908,2.885A9.94,9.94,0,0,1,101,97.392a9.624,9.624,0,0,1-.684,3.693,8.482,8.482,0,0,1-1.908,2.86,8.7,8.7,0,0,1-2.909,1.87,10.3,10.3,0,0,1-3.717.7,10.112,10.112,0,0,1-3.679-.648,8.252,8.252,0,0,1-4.78-4.682A9.594,9.594,0,0,1,82.634,97.49Zm3.228-.195a7.427,7.427,0,0,0,.428,2.567,6.016,6.016,0,0,0,1.21,2.029,5.621,5.621,0,0,0,1.87,1.345,5.868,5.868,0,0,0,2.433.488,5.954,5.954,0,0,0,2.445-.488,5.589,5.589,0,0,0,1.882-1.345,6.018,6.018,0,0,0,1.211-2.029,7.45,7.45,0,0,0,.428-2.567,6.759,6.759,0,0,0-.428-2.421,5.981,5.981,0,0,0-1.211-1.968,5.539,5.539,0,0,0-1.882-1.32,6.084,6.084,0,0,0-2.445-.477,6,6,0,0,0-2.433.477,5.569,5.569,0,0,0-1.87,1.32,5.979,5.979,0,0,0-1.21,1.968A6.737,6.737,0,0,0,85.862,97.3Z" transform="translate(-52.733 -87.649)" style="fill:#9dc423"></path><path d="M104.175,88.761h11.173v2.788h-8.093V96.1h7.629v2.788h-7.629v7.188h-3.08Z" transform="translate(-52.733 -87.649)" style="fill:#9dc423"></path><path d="M140.043,88.761h6.015a12.246,12.246,0,0,1,2.408.233,6.189,6.189,0,0,1,2.066.794,4.184,4.184,0,0,1,1.443,1.516,4.891,4.891,0,0,1,.538,2.421,4.821,4.821,0,0,1-1.04,3.154,4.454,4.454,0,0,1-2.97,1.54l4.6,7.653h-3.716l-4.01-7.335h-2.249v7.335h-3.081ZM145.52,96.1c.44,0,.879-.02,1.32-.061a4.021,4.021,0,0,0,1.21-.293,2.062,2.062,0,0,0,.892-.709,2.248,2.248,0,0,0,.343-1.333,2.127,2.127,0,0,0-.318-1.222,1.977,1.977,0,0,0-.831-.7A3.837,3.837,0,0,0,147,91.475a10.564,10.564,0,0,0-1.211-.073h-2.664V96.1Z" transform="translate(-52.733 -87.649)" style="fill:#9dc423"></path><path d="M155.69,88.761h11.467v2.788h-8.386V95.8h7.946v2.788h-7.946v4.694H167.6v2.787H155.69Z" transform="translate(-52.733 -87.649)" style="fill:#9dc423"></path><path d="M182.732,92.82a5.144,5.144,0,0,0-1.846-1.369,4.988,4.988,0,0,0-1.8-.342,6,6,0,0,0-2.433.477,5.579,5.579,0,0,0-1.87,1.32,5.981,5.981,0,0,0-1.211,1.968,6.759,6.759,0,0,0-.428,2.421,7.45,7.45,0,0,0,.428,2.567,6.018,6.018,0,0,0,1.211,2.029,5.631,5.631,0,0,0,1.87,1.345,5.871,5.871,0,0,0,2.433.488,4.459,4.459,0,0,0,2.042-.5,5.581,5.581,0,0,0,1.846-1.6l2.543,1.809a6.929,6.929,0,0,1-2.861,2.348,8.935,8.935,0,0,1-3.595.733,10.112,10.112,0,0,1-3.679-.648,8.252,8.252,0,0,1-4.78-4.682,9.593,9.593,0,0,1-.684-3.692,10.012,10.012,0,0,1,.684-3.777,8.487,8.487,0,0,1,1.9-2.9,8.337,8.337,0,0,1,2.885-1.846,10.133,10.133,0,0,1,3.679-.647,8.436,8.436,0,0,1,3.265.623,7.62,7.62,0,0,1,2.8,2.115Z" transform="translate(-52.733 -87.649)" style="fill:#9dc423"></path><path d="M193.44,88.761h2.665l7.457,17.311h-3.52l-1.613-3.961h-7.506l-1.566,3.961H185.91Zm3.913,10.709-2.665-7.041-2.714,7.041Z" transform="translate(-52.733 -87.649)" style="fill:#9dc423"></path><path d="M214.223,92.478a2.847,2.847,0,0,0-1.309-1.039,4.571,4.571,0,0,0-1.724-.33,4.4,4.4,0,0,0-1.039.122,2.837,2.837,0,0,0-.9.391,2.052,2.052,0,0,0-.648.7,2.013,2.013,0,0,0-.245,1.015,1.583,1.583,0,0,0,.612,1.344,5.98,5.98,0,0,0,1.515.807q.9.343,1.981.66a8.09,8.09,0,0,1,1.98.881,4.9,4.9,0,0,1,1.516,1.491,4.436,4.436,0,0,1,.611,2.469,5.44,5.44,0,0,1-.513,2.434,4.961,4.961,0,0,1-1.381,1.723,5.976,5.976,0,0,1-2.018,1.027,8.436,8.436,0,0,1-2.42.342,9.07,9.07,0,0,1-3.1-.538,5.985,5.985,0,0,1-2.568-1.809l2.324-2.249a3.88,3.88,0,0,0,1.478,1.332,4.158,4.158,0,0,0,1.945.476,4.063,4.063,0,0,0,1.075-.146,3.337,3.337,0,0,0,.978-.44,2.3,2.3,0,0,0,.709-.746,1.993,1.993,0,0,0,.269-1.039,1.808,1.808,0,0,0-.612-1.467,5.426,5.426,0,0,0-1.515-.868q-.906-.354-1.981-.672a8.355,8.355,0,0,1-1.98-.868,4.818,4.818,0,0,1-1.516-1.467,4.364,4.364,0,0,1-.611-2.457,4.671,4.671,0,0,1,.55-2.323,5.033,5.033,0,0,1,1.442-1.626,6.333,6.333,0,0,1,2.042-.966,8.763,8.763,0,0,1,2.348-.317,8.555,8.555,0,0,1,2.652.415,6.146,6.146,0,0,1,2.311,1.369Z" transform="translate(-52.733 -87.649)" style="fill:#9dc423"></path><path d="M223.562,91.549h-5.305V88.761h13.692v2.788h-5.305v14.523h-3.082Z" transform="translate(-52.733 -87.649)" style="fill:#9dc423"></path><path d="M116.707,98.812h9.478v9.478a9.476,9.476,0,0,1-9.478-9.478" transform="translate(-52.733 -87.649)" style="fill:#67b1e3"></path><path d="M137.346,97.13a9.479,9.479,0,0,1-9.478,9.478V97.13l0,0h-9.478a9.478,9.478,0,0,1,16.18-6.7l0,0a9.432,9.432,0,0,1,2.777,6.7" transform="translate(-52.733 -87.649)" style="fill:#f29102"></path></svg> 