<?xml version="1.0" encoding="utf-8"?>
<!-- Generator: Adobe Illustrator 25.2.3, SVG Export Plug-In . SVG Version: 6.00 Build 0)  -->
<svg version="1.1" id="Layer_1" xmlns="http://www.w3.org/2000/svg" xmlns:xlink="http://www.w3.org/1999/xlink" x="0px" y="0px"
	 viewBox="0 0 414.09 245.52" style="enable-background:new 0 0 414.09 245.52;" xml:space="preserve">
<style type="text/css">
	.st0{fill:#FFFFFF;}
	.st1{fill:#FFFFFF;enable-background:new    ;}
</style>
<g>
	<g>
		<path class="st0" d="M90.28,117.53c0,0,13.69-27.3,13.51-43.24c-0.23-21.76-6.81-34.12-6.81-34.12s9.48,17.08,10.07,31.89
			c0.39,9.8,0.69,15.59-4.91,32.57c-3.27,9.92-7.74,17.53-7.74,17.53L90.28,117.53z"/>
		<path class="st0" d="M109.88,64.93c0,0,8.04,22.53,4.64,39.2c-3.53,17.28-9.28,30.43-9.28,30.43l4.13,6.71
			c0,0,13.41-30.43,10.31-46.93C116.59,77.82,109.88,64.93,109.88,64.93z"/>
		<path class="st0" d="M66.55,240.28c0-2.19,0.6-4.26,1.66-6.14c-1.8-2.22-3.58-4.57-4.4-6.07c-1.48-2.72-2.26-13.01,1.2-19.26
			c3.2-5.77,10.83-12.89,14.44-15.99c3.61-3.1,7.74-6.71,6.19-10.32c-1.55-3.61-11.35-16.5-15.99-25.27
			c-4.64-8.77-11.15-17.42-3.48-34.15c8.16-17.79,9.61-13.83,26.14-48.28c5.25-10.93,7.32-29.4-1.06-44.09
			C82.9,16.04,62.95,0.46,62.95,0.46s27.88,28.12,28.93,39.72c2.05,22.79-2.9,30.4-8.06,41.23c-5.16,10.83-13.89,22.93-18.48,30.81
			c-6.64,11.37-9.05,19.83-8.53,26.54c0.52,6.71,3.05,13.32,9.75,24.15C73.27,173.74,77.9,178.9,78.42,182
			c0.52,3.09,0,4.12-2.58,7.22c-2.58,3.09-17.94,16.14-20.11,23.72c-3.19,11.13-0.18,20.29,6.01,27c2.12,2.3,4.2,4.14,6.02,5.59
			C66.99,243.88,66.55,242.12,66.55,240.28z"/>
	</g>
	<path class="st0" d="M41.06,166.21c-2.07-3.2-5.45-5.04-8.97-5.29c2.78,0.52,5.37,2.13,7.02,4.7c3.2,4.95,1.78,11.55-3.18,14.75
		c-4.95,3.2-11.56,1.77-14.75-3.17c-0.77-1.19-1.26-2.47-1.51-3.78c0.14,1.87,0.74,3.74,1.83,5.42c3.49,5.4,10.69,6.95,16.09,3.46
		C42.99,178.82,44.54,171.61,41.06,166.21z"/>
	<path class="st0" d="M7.89,192.29c-1.73,0-3.23,0.96-4.02,2.37c0.7-0.68,1.65-1.1,2.7-1.1c2.14,0,3.87,1.73,3.87,3.87
		c0,2.13-1.74,3.87-3.87,3.87c-0.06,0-0.11-0.01-0.16-0.01c0.47,0.16,0.96,0.26,1.49,0.26c2.55,0,4.63-2.08,4.63-4.63
		C12.52,194.36,10.44,192.29,7.89,192.29z"/>
	<path class="st0" d="M42.42,165.48c0,0,3.75,4.24,2.67,11.84c-0.69,4.91-8.77,12.98-8.33,22.12c0.43,9.15,4.79,13.07,4.79,13.07
		l-5.74,12.25c0,0-7.4-14.06-5.22-24.52c2.14-10.27,9.38-16.95,11.9-21.04C45.97,173.55,42.42,165.48,42.42,165.48z"/>
	<path class="st0" d="M35.46,140.22c0,0,3.92-6.1,3.05-9.58c-0.87-3.48,16.11,4.79,16.11,4.79s-1.3,6.97,2.18,13.5
		c3.48,6.53,4.95,10.28,4.95,10.28s-7.56-10.71-12.35-14.63C44.6,140.66,35.46,140.22,35.46,140.22z"/>
	<path class="st0" d="M31.97,141.53c0,0-2.17-2.17-11.76,10.45c-5.8,7.64,0,6.97-6.97,19.16c-6.97,12.2-11.66,21.55-13.07,26.13
		C-1.56,202.93,31.97,141.53,31.97,141.53z"/>
	<polygon class="st0" points="27.18,141.96 33.72,138.04 17.6,130.21 	"/>
</g>
<g>
	<g>
		<path class="st0" d="M90.17,117.07c0,0,13.69-27.3,13.51-43.24c-0.23-21.76-6.81-34.12-6.81-34.12s9.48,17.08,10.07,31.9
			c0.39,9.8,0.69,15.59-4.91,32.57c-3.27,9.92-7.74,17.53-7.74,17.53L90.17,117.07z"/>
		<path class="st0" d="M109.76,64.46c0,0,8.04,22.53,4.64,39.2c-3.53,17.29-9.28,30.43-9.28,30.43l4.13,6.71
			c0,0,13.41-30.43,10.31-46.94C116.47,77.36,109.76,64.46,109.76,64.46z"/>
		<path class="st0" d="M66.44,239.82c0-2.18,0.6-4.26,1.66-6.14c-1.8-2.22-3.58-4.57-4.4-6.06c-1.48-2.72-2.26-13.01,1.2-19.26
			c3.2-5.78,10.83-12.89,14.44-15.99c3.61-3.1,7.74-6.7,6.19-10.32c-1.55-3.61-11.35-16.5-15.99-25.27
			c-4.64-8.77-11.15-17.42-3.48-34.15c8.16-17.79,9.61-13.83,26.14-48.29c5.25-10.92,7.32-29.4-1.06-44.09
			C82.78,15.58,62.83,0,62.83,0s27.88,28.12,28.93,39.72c2.05,22.79-2.9,30.4-8.06,41.23c-5.16,10.83-13.89,22.93-18.48,30.81
			c-6.64,11.37-9.05,19.83-8.54,26.54c0.52,6.7,3.05,13.32,9.75,24.15c6.71,10.83,11.34,15.99,11.86,19.08
			c0.52,3.09,0,4.12-2.58,7.22c-2.58,3.09-17.94,16.14-20.11,23.72c-3.19,11.13-0.18,20.3,6.01,27c2.12,2.3,4.2,4.14,6.02,5.58
			C66.88,243.42,66.44,241.66,66.44,239.82z"/>
	</g>
	<path class="st0" d="M40.94,165.75c-2.07-3.2-5.44-5.03-8.97-5.29c2.78,0.52,5.36,2.13,7.02,4.69c3.2,4.95,1.78,11.55-3.17,14.75
		c-4.95,3.2-11.56,1.77-14.75-3.18c-0.77-1.19-1.26-2.47-1.51-3.78c0.14,1.87,0.74,3.74,1.83,5.42c3.49,5.4,10.69,6.95,16.09,3.47
		C42.87,178.36,44.42,171.15,40.94,165.75z"/>
	<path class="st0" d="M7.78,191.83c-1.73,0-3.23,0.96-4.02,2.37c0.7-0.68,1.65-1.1,2.7-1.1c2.14,0,3.87,1.74,3.87,3.87
		c0,2.14-1.73,3.87-3.87,3.87c-0.06,0-0.11-0.01-0.17-0.01c0.47,0.16,0.96,0.26,1.49,0.26c2.55,0,4.63-2.08,4.63-4.64
		C12.4,193.9,10.33,191.83,7.78,191.83z"/>
	<path class="st0" d="M42.3,165.02c0,0,3.75,4.24,2.67,11.84c-0.69,4.91-8.77,12.98-8.33,22.12c0.43,9.15,4.79,13.07,4.79,13.07
		l-5.74,12.25c0,0-7.4-14.06-5.22-24.51c2.14-10.27,9.38-16.95,11.9-21.04C45.85,173.09,42.3,165.02,42.3,165.02z"/>
	<path class="st0" d="M35.34,139.76c0,0,3.92-6.1,3.05-9.58c-0.87-3.49,16.11,4.79,16.11,4.79s-1.31,6.97,2.18,13.5
		c3.48,6.53,4.95,10.28,4.95,10.28s-7.56-10.71-12.35-14.63C44.49,140.19,35.34,139.76,35.34,139.76z"/>
	<path class="st0" d="M31.86,141.07c0,0-2.17-2.17-11.76,10.45c-5.8,7.64,0,6.97-6.97,19.16c-6.97,12.2-11.66,21.55-13.07,26.13
		C-1.68,202.47,31.86,141.07,31.86,141.07z"/>
	<polygon class="st0" points="27.07,141.5 33.6,137.58 17.48,129.74 	"/>
</g>
<path class="st1" d="M142.89,185.21c0,11.37-7.1,18.28-15.06,18.28c-8.24,0-14.87-6.73-14.87-20.84c0-8.53,4.45-18.19,14.21-18.19
	C137.96,164.47,142.89,175.74,142.89,185.21z M107.93,216.28c0,3.7-0.66,4.45-4.64,5.3v1.52c2.37-0.28,4.83-0.57,7.2-0.57
	c2.65,0,5.3,0.29,7.77,0.57v-1.52c-3.32-0.47-4.64-1.23-4.64-4.83v-18.28h0.19c2.56,4.83,7.39,8.81,14.68,8.81
	c12.98,0,20.08-11.37,20.08-23.11c0-11.65-7.01-23.49-20.08-23.49c-6.25,0-11.65,3.03-14.68,8.33h-0.19c0-2.94,0-5.78,0.28-9.76
	c-0.66,0.76-6.82,3.22-10.61,3.79v1.52c2.46,0,4.64,0.47,4.64,2.94V216.28z"/>
<path class="st1" d="M161.36,178.87c0-7.1,6.73-14.4,14.68-14.4c8.62,0,13.36,6.35,13.26,14.4H161.36z M192.9,196.49
	c-3.32,3.88-7.39,6.54-14.59,6.54c-10.42,0-17.24-10.13-17.24-20.37h33.91c0-16.39-8.24-21.98-18.95-21.98
	c-12.12,0-20.65,10.61-20.65,22.16c0,12.98,8.24,24.44,21.98,24.44c5.68,0,11.08-1.33,15.54-5.21V196.49z"/>
<path class="st1" d="M210.05,175.27c0-6.54,4.17-11.27,10.7-11.27c7.2,0,11.75,7.48,11.75,13.83c0,5.49-3.98,10.7-10.42,10.7
	C213.83,188.53,209.95,180,210.05,175.27z M242.82,161.63c-2.56,0.28-5.11,0.47-8.71,0.47c-4.83,0-9-1.42-12.79-1.42
	c-9.95,0-16.48,7.96-16.48,14.97c0,6.16,2.46,9.57,3.88,11.65c-4.74,2.65-8.34,4.74-8.34,5.97c0,7.86,6.06,11.46,16.48,11.84
	l10.14,0.29c7.29,0.28,9.66,0.95,9.66,5.02c0,6.73-8.81,9.38-14.21,9.38c-5.21,0-11.37-3.51-11.37-9c0-1.52,0.38-3.41,1.33-5.4
	l-5.78,2.84c-0.38,1.71-0.76,3.22-0.76,4.45c0,4.45,4.17,10.42,16.58,10.42c7.67,0,19.42-3.41,19.42-13.73
	c0-7.67-7.67-9.09-15.82-9.09h-9.76c-4.55,0-10.23-1.42-10.23-5.4c0-2.37,2.75-4.83,4.74-5.87c2.84,2.08,6.44,3.31,10.33,3.31
	c8.34,0,16.58-6.82,16.58-16.1c0-3.88-1.23-7.01-3.98-9.85v-0.66c1.23,0.09,2.37,0.19,3.6,0.19c1.7,0,3.31-0.19,4.83-0.66
	L242.82,161.63z"/>
<path class="st1" d="M276.77,187.96c0,9.28-5.68,15.25-14.4,15.54c-5.68,0-9.76-3.22-9.76-9.19c0-6.06,2.94-8.24,9.19-8.9
	c5.78-0.66,11.27-1.23,14.97-2.37V187.96z M282.46,176.4c0-13.36-9.47-15.72-17.24-15.72c-4.45,0-9.38,1.23-13.07,3.5l-0.76,9h1.71
	c0.19-4.74,5.4-9.19,12.31-9.19c6.73,0,11.37,3.03,11.37,9.28v3.6c0,1.99-0.85,2.84-6.25,3.41l-8.34,0.85
	c-11.18,1.14-15.25,6.06-15.25,13.17c0,8.43,7.01,12.98,14.87,12.98c6.35,0,12.5-2.56,15.16-8.71h0.19v7.77
	c2.18-0.19,3.79-0.57,5.49-0.57c1.52,0,3.03,0.38,4.45,0.57v-1.52c-2.56,0-4.64-0.47-4.64-3.79V176.4z"/>
<path class="st1" d="M326.37,172.05h-1.8c-1.04-5.87-5.12-8.05-10.8-8.05c-5.4,0-12.88,1.99-12.88,8.62c0,5.3,3.88,6.35,11.65,8.43
	c12.41,3.31,15.63,5.4,15.63,12.22c0,10.51-10.23,14.02-19.04,14.02c-4.45,0-8.9-1.33-12.69-3.7l-0.95-10.13H297
	c1.23,6.35,6.35,10.51,12.88,10.51c5.49,0,13.07-2.84,13.07-9.38c0-5.49-3.98-6.35-11.37-8.24c-8.71-2.08-15.91-4.17-15.91-12.79
	c0-9.85,11.37-12.88,17.24-12.88c5.21,0,9.38,0.76,12.88,2.37L326.37,172.05z"/>
<path class="st1" d="M370.34,200.84c0,2.94,1.61,3.98,4.17,3.98v1.52c-1.61-0.19-3.22-0.57-4.83-0.57c-1.61,0-3.32,0.38-4.93,0.57
	v-7.01h-0.19c-2.46,5.21-7.48,7.96-13.73,7.96c-7.96,0-14.12-4.17-14.12-14.21V167.5c0-2.46-2.18-2.94-4.64-2.94v-1.52
	c3.79-0.57,9.95-3.03,10.61-3.79c-0.19,1.14-0.29,5.87-0.29,9.76v22.54c0,6.82,1.99,11.46,9.09,11.46c8.53,0,13.17-6.72,13.17-15.82
	v-19.7c0-2.46-2.18-2.94-4.83-2.94v-1.52c3.98-0.57,10.13-3.03,10.8-3.79c-0.19,1.14-0.29,5.87-0.29,9.76V200.84z"/>
<path class="st1" d="M412.29,172.05h-1.8c-1.04-5.87-5.12-8.05-10.8-8.05c-5.4,0-12.88,1.99-12.88,8.62c0,5.3,3.88,6.35,11.65,8.43
	c12.41,3.31,15.63,5.4,15.63,12.22c0,10.51-10.23,14.02-19.04,14.02c-4.45,0-8.9-1.33-12.69-3.7l-0.95-10.13h1.52
	c1.23,6.35,6.35,10.51,12.88,10.51c5.49,0,13.07-2.84,13.07-9.38c0-5.49-3.98-6.35-11.37-8.24c-8.71-2.08-15.91-4.17-15.91-12.79
	c0-9.85,11.37-12.88,17.24-12.88c5.21,0,9.38,0.76,12.88,2.37L412.29,172.05z"/>
</svg>
