<svg width="139" height="42" viewBox="0 0 139 42" fill="none" xmlns="http://www.w3.org/2000/svg">
<path d="M54.54 15.3203L59.2153 29.5137L63.8907 15.3203H68.8673L62.021 33.8179H56.3445L49.5312 15.3203H54.54Z" fill="#292A2C"/>
<path d="M70.6953 10.3781C70.6953 8.84167 71.8971 7.63892 73.5674 7.63892C75.2035 7.63892 76.4396 8.84189 76.4396 10.3781C76.4396 11.9143 75.2034 13.1161 73.5674 13.1161C71.8971 13.1162 70.6953 11.9144 70.6953 10.3781ZM71.1957 15.3203H75.8713V33.8179H71.196L71.1957 15.3203Z" fill="#292A2C"/>
<path d="M80.5005 19.1629H78.2969V15.3205H80.5005V10.7449H85.2091V15.3205H89.3494V19.163H85.2096V28.1127C85.2096 29.3489 85.7099 29.8849 87.1801 29.8849H89.3499V33.8258H86.4159C82.8715 33.8258 80.5055 32.3228 80.5055 28.0817L80.5005 19.1629Z" fill="#292A2C"/>
<path d="M99.6543 14.7192C102.627 14.7192 104.664 16.1227 105.766 17.6575V15.0205H110.475V33.8216H105.766V30.8154C104.664 32.4192 102.56 33.8215 99.6212 33.8215C94.9459 33.8215 91.2031 29.9813 91.2031 24.2039C91.2031 18.4264 94.9468 14.7192 99.6543 14.7192ZM100.857 18.8308C98.3528 18.8308 95.9837 20.7005 95.9837 24.207C95.9837 27.7135 98.3552 29.7164 100.857 29.7164C103.428 29.7164 105.766 27.7802 105.766 24.2734C105.766 20.7666 103.428 18.8306 100.857 18.8306L100.857 18.8308Z" fill="#292A2C"/>
<path d="M112.336 9.10889H117.011V33.8213H112.336V9.10889Z" fill="#292A2C"/>
<path d="M127.318 14.7192C130.291 14.7192 132.328 16.1227 133.43 17.6575V15.0205H138.139V33.8216H133.43V30.8154C132.323 32.4192 130.218 33.8215 127.285 33.8215C122.61 33.8215 118.867 29.9813 118.867 24.2039C118.867 18.4264 122.609 14.7192 127.318 14.7192ZM128.521 18.8306C126.017 18.8306 123.648 20.7002 123.648 24.2067C123.648 27.7132 126.019 29.7161 128.521 29.7161C131.092 29.7161 133.43 27.78 133.43 24.2732C133.43 20.7664 131.092 18.8306 128.521 18.8306Z" fill="#292A2C"/>
<path d="M20.8223 0H20.7329C20.1296 0 19.6406 0.489019 19.6406 1.09226V5.30989C19.6406 5.91313 20.1296 6.40215 20.7329 6.40215H20.8223C21.4255 6.40215 21.9146 5.91313 21.9146 5.30989V1.09226C21.9146 0.489019 21.4255 0 20.8223 0Z" fill="#292A2C"/>
<path d="M33.8875 6.06028L30.9052 9.0426C30.4786 9.46915 30.4786 10.1607 30.9052 10.5873L30.9684 10.6505C31.3949 11.0771 32.0865 11.0771 32.5131 10.6505L35.4954 7.66819C35.9219 7.24164 35.9219 6.55006 35.4954 6.12351L35.4322 6.06028C35.0056 5.63373 34.314 5.63373 33.8875 6.06028Z" fill="#292A2C"/>
<path d="M40.4427 19.645H36.2251C35.6218 19.645 35.1328 20.134 35.1328 20.7373V20.8267C35.1328 21.4299 35.6218 21.919 36.2251 21.919H40.4427C41.0459 21.919 41.535 21.4299 41.535 20.8267V20.7373C41.535 20.134 41.0459 19.645 40.4427 19.645Z" fill="#292A2C"/>
<path d="M30.9528 30.9051L30.8895 30.9684C30.463 31.3949 30.463 32.0865 30.8895 32.5131L33.8718 35.4954C34.2984 35.9219 34.99 35.9219 35.4165 35.4954L35.4798 35.4322C35.9063 35.0056 35.9063 34.314 35.4798 33.8875L32.4974 30.9051C32.0709 30.4786 31.3793 30.4786 30.9528 30.9051Z" fill="#292A2C"/>
<path d="M20.7989 35.1353H20.7094C20.1062 35.1353 19.6172 35.6243 19.6172 36.2275V40.4451C19.6172 41.0484 20.1062 41.5374 20.7094 41.5374H20.7989C21.4021 41.5374 21.8911 41.0484 21.8911 40.4451V36.2275C21.8911 35.6243 21.4021 35.1353 20.7989 35.1353Z" fill="#292A2C"/>
<path d="M9.0281 30.8872L6.04578 33.8695C5.61923 34.2961 5.61923 34.9876 6.04578 35.4142L6.10901 35.4774C6.53556 35.904 7.22714 35.904 7.65369 35.4774L10.636 32.4951C11.0626 32.0685 11.0626 31.377 10.636 30.9504L10.5728 30.8872C10.1462 30.4606 9.45465 30.4606 9.0281 30.8872Z" fill="#292A2C"/>
<path d="M5.30989 19.6196H1.09226C0.489019 19.6196 0 20.1086 0 20.7119V20.8013C0 21.4045 0.489019 21.8936 1.09226 21.8936H5.30989C5.91313 21.8936 6.40215 21.4045 6.40215 20.8013V20.7119C6.40215 20.1086 5.91313 19.6196 5.30989 19.6196Z" fill="#292A2C"/>
<path d="M6.12464 6.04211L6.0614 6.10534C5.63485 6.5319 5.63485 7.22347 6.0614 7.65003L9.04372 10.6323C9.47028 11.0589 10.1619 11.0589 10.5884 10.6323L10.6516 10.5691C11.0782 10.1426 11.0782 9.45098 10.6516 9.02443L7.66932 6.04211C7.24277 5.61556 6.55119 5.61556 6.12464 6.04211Z" fill="#292A2C"/>
<path d="M21.2996 33.8858C21.1488 34.0114 20.9587 34.0802 20.7624 34.0802C20.5662 34.0802 20.3761 34.0114 20.2253 33.8858L20.0645 33.753C15.6927 30.1199 12.5958 25.4458 11.1103 20.2209C9.95071 16.1482 10.1423 13.0467 10.1678 12.7067C10.1898 12.4224 10.3187 12.157 10.5285 11.9638C10.7383 11.7706 11.0135 11.6641 11.2987 11.6656C11.4836 11.6656 15.8244 11.6656 19.9991 7.82979C20.2076 7.63916 20.4798 7.53345 20.7623 7.53345C21.0447 7.53345 21.317 7.63916 21.5254 7.82979C25.6986 11.6677 30.0444 11.6677 30.2215 11.6677H30.2337C30.5175 11.6683 30.7907 11.776 30.9987 11.9692C31.2067 12.1624 31.3341 12.4269 31.3556 12.71C31.3822 13.049 31.5771 16.1503 30.413 20.2232C28.9277 25.4434 25.8308 30.1221 21.459 33.7551L21.2996 33.8858ZM12.3489 14.5576C12.5228 17.7464 13.6869 24.8453 20.1898 30.9507C20.3449 31.0964 20.5497 31.1775 20.7625 31.1775C20.9753 31.1775 21.1801 31.0964 21.3352 30.9507C27.8381 24.842 29.0023 17.7421 29.1761 14.5576C29.1873 14.351 29.122 14.1476 28.9926 13.9862C28.8633 13.8248 28.679 13.7167 28.475 13.6826C26.761 13.3936 24.0444 12.6048 21.2698 10.4649C21.1242 10.3529 20.9457 10.2922 20.762 10.2922C20.5783 10.2922 20.3997 10.3529 20.2541 10.4649C17.475 12.6047 14.7625 13.3935 13.0489 13.6826C12.845 13.7167 12.6608 13.8248 12.5316 13.9862C12.4024 14.1477 12.3374 14.3511 12.3489 14.5576Z" fill="#292A2C"/>
<path d="M24.0721 15.8426C21.9277 14.9178 20.7603 16.3217 20.7603 16.3217C20.7603 16.3217 19.5918 14.9173 17.4473 15.8426C15.3028 16.768 16.4771 20.2211 16.4771 20.2211C16.4771 20.2211 17.0585 22.4364 20.7603 26.0107C24.462 22.4364 25.0424 20.2211 25.0424 20.2211C25.0424 20.2211 26.2164 16.7683 24.0721 15.8426Z" fill="#292A2C"/>
</svg>
