<svg xmlns="http://www.w3.org/2000/svg" xmlns:xlink="http://www.w3.org/1999/xlink" width="143" height="40" viewBox="0 0 143 40">
  <defs>
    <linearGradient id="linear-gradient" y1="0.5" x2="1" y2="0.5" gradientUnits="objectBoundingBox">
      <stop offset="0.046" stop-color="#9ab6d2"/>
      <stop offset="0.252" stop-color="#a1b8d3"/>
      <stop offset="0.563" stop-color="#b6bed9"/>
      <stop offset="0.937" stop-color="#d7c9e1"/>
      <stop offset="0.99" stop-color="#ddcbe3"/>
    </linearGradient>
    <linearGradient id="linear-gradient-2" y1="0.5" x2="1" y2="0.5" gradientUnits="objectBoundingBox">
      <stop offset="0.046" stop-color="#324b9f"/>
      <stop offset="0.765" stop-color="#5696d0"/>
    </linearGradient>
    <linearGradient id="linear-gradient-8" x1="0.147" y1="0.822" x2="0.83" y2="0.114" xlink:href="#linear-gradient"/>
    <linearGradient id="linear-gradient-9" x1="0.5" y1="0.181" x2="0.5" y2="1.571" xlink:href="#linear-gradient-2"/>
    <linearGradient id="linear-gradient-10" x1="0.5" y1="-1.625" x2="0.5" y2="0.756" xlink:href="#linear-gradient-2"/>
    <linearGradient id="linear-gradient-11" x1="0.5" y1="-0.523" x2="0.5" y2="0.858" xlink:href="#linear-gradient-2"/>
    <clipPath id="clip-Logo">
      <rect width="143" height="40"/>
    </clipPath>
  </defs>
  <g id="Logo" clip-path="url(#clip-Logo)">
    <g id="Logo-2" data-name="Logo" transform="translate(-6.924 -6.159)">
      <path id="Path_60" data-name="Path 60" d="M7.1-15.433c-3.137,0-5.541,1.851-5.541,4.731,0,2.353,1.669,3.719,4.048,4.808l1.8.809c1.315.608,2.126.987,2.126,2.074,0,1.164-.91,1.851-2.378,1.851a4.9,4.9,0,0,1-4.1-2.434L.7-1.821A7.211,7.211,0,0,0,7.149,1.872c3.315,0,5.844-1.9,5.844-5.009,0-2.378-1.493-3.719-4.124-4.883l-1.9-.836c-1.214-.556-1.948-.962-1.948-1.923,0-1.113.962-1.619,2.074-1.619a3.726,3.726,0,0,1,3.185,1.924l2.328-1.8A6.022,6.022,0,0,0,7.1-15.433Zm15.381,4.2a6.534,6.534,0,0,0-4.729,1.85,6.534,6.534,0,0,0-1.976,4.677A6.534,6.534,0,0,0,17.732-.021a6.534,6.534,0,0,0,4.723,1.868A6.6,6.6,0,0,0,27.2-.015a6.6,6.6,0,0,0,2-4.691,6.589,6.589,0,0,0-2-4.669,6.589,6.589,0,0,0-4.727-1.859Zm0,3.112a3.267,3.267,0,0,1,2.355,1.028,3.267,3.267,0,0,1,.883,2.413,3.235,3.235,0,0,1-.892,2.39,3.235,3.235,0,0,1-2.347,1,3.191,3.191,0,0,1-2.361-.986,3.191,3.191,0,0,1-.877-2.4A3.234,3.234,0,0,1,20.112-7.1a3.234,3.234,0,0,1,2.367-1.018Zm13.511-9.285H32.576V1.569h3.416Zm12.624,6.453L45.456-3.846,42.3-10.955H38.7L44.9,1.872h1.139l6.2-12.827ZM66.175-5.415A5.683,5.683,0,0,0,64.486-9.6a5.683,5.683,0,0,0-4.206-1.634,6.46,6.46,0,0,0-4.658,1.893,6.46,6.46,0,0,0-1.889,4.66A6.55,6.55,0,0,0,55.757.066a6.55,6.55,0,0,0,4.835,1.806A7.623,7.623,0,0,0,65.6,0L64.185-2.328a5.518,5.518,0,0,1-3.491,1.265,3.376,3.376,0,0,1-3.542-2.48h8.805a8.773,8.773,0,0,0,.218-1.873ZM60.156-8.476a2.546,2.546,0,0,1,1.9.682,2.546,2.546,0,0,1,.807,1.849H57.143a3.106,3.106,0,0,1,3.013-2.531Zm11.13,5.642a2.323,2.323,0,0,0-1.689.671,2.323,2.323,0,0,0-.689,1.682,2.307,2.307,0,0,0,.684,1.687,2.307,2.307,0,0,0,1.694.666,2.287,2.287,0,0,0,1.668-.678,2.287,2.287,0,0,0,.66-1.675,2.3,2.3,0,0,0-.663-1.672A2.3,2.3,0,0,0,71.286-2.834Zm10.93-8.4a6.79,6.79,0,0,0-5.465,2.581l1.771,2.1a4.4,4.4,0,0,1,3.315-1.721,2.049,2.049,0,0,1,1.694.54,2.049,2.049,0,0,1,.634,1.661v.556H81.027c-2.885,0-4.731,1.367-4.731,3.644,0,2.126,1.594,3.745,4.326,3.745A5.134,5.134,0,0,0,84.44.354V1.569h3.137V-5.87c0-3.567-2.174-5.364-5.361-5.364Zm-.684,10.6c-1.063,0-1.8-.506-1.8-1.367,0-.835.633-1.265,1.742-1.265H84.16v.15a2.5,2.5,0,0,1-.785,1.8,2.5,2.5,0,0,1-1.843.681Zm11.74-17a2.118,2.118,0,0,0-1.539.6,2.118,2.118,0,0,0-.639,1.524A2.112,2.112,0,0,0,91.741-14a2.113,2.113,0,0,0,1.532.591A2.134,2.134,0,0,0,94.812-14a2.134,2.134,0,0,0,.661-1.511,2.139,2.139,0,0,0-.653-1.526,2.139,2.139,0,0,0-1.548-.6Zm1.721,6.68H91.577V1.569h3.416Z" transform="translate(50.852 31.561)" fill="#3d65af"/>
      <g id="Group_12" data-name="Group 12" transform="translate(9.924 9)">
        <path id="Path_49" data-name="Path 49" d="M11.515,11.075c.033,1.014.009,2.03.009,3.049,1.032.009,2.069.041,3.1-.012-.028-1.011-.009-2.022-.013-3.033.682-.044,1.367,0,2.049-.027V9.008c-.684,0-1.367-.007-2.049,0,.005.686-.015,1.371.009,2.056C13.583,11.051,12.547,11.024,11.515,11.075Z" transform="translate(-9.782 -9)" fill="url(#linear-gradient)"/>
        <path id="Path_50" data-name="Path 50" d="M18.907,14.134c1.693-.011,3.388,0,5.081-.005,0-1.7-.012-3.4.005-5.093-1.7-.017-3.4,0-5.1-.009C18.9,10.729,18.853,12.433,18.907,14.134Z" transform="translate(-9.127 -8.998)" fill="url(#linear-gradient-2)"/>
        <path id="Path_51" data-name="Path 51" d="M11.668,11.017c0-.575.009-1.15,0-1.726-.581-.01-1.163-.012-1.742,0v1.742C10.506,11.031,11.088,11.044,11.668,11.017Z" transform="translate(-9.924 -8.975)" fill="url(#linear-gradient)"/>
        <path id="Path_52" data-name="Path 52" d="M14.606,18.632c-1.025.027-2.052,0-3.078.012v3.088c1.021-.01,2.045-.012,3.068.007.034-1.031-.007-2.069.017-3.1,1.64.017,3.281.008,4.922.008.019-1.646,0-3.3.008-4.942-1.643,0-3.286.022-4.93-.007Q14.6,16.166,14.606,18.632Z" transform="translate(-9.781 -8.593)" fill="url(#linear-gradient-2)"/>
        <path id="Path_53" data-name="Path 53" d="M11.676,18.371q-.011-.862,0-1.724c-.585-.012-1.168.007-1.752-.017v1.75C10.507,18.389,11.1,18.4,11.676,18.371Z" transform="translate(-9.924 -8.335)" fill="url(#linear-gradient)"/>
        <path id="Path_54" data-name="Path 54" d="M41.578,20.4A16.956,16.956,0,0,0,25.527,9c0,2.263-.017,4.525,0,6.789q.45.011.9.035a10.218,10.218,0,0,1,7.648,4.607,10.472,10.472,0,0,1,1.584,6.612,11.434,11.434,0,0,1-.951,3.29c.418,1.167.854,2.328,1.289,3.49.5,1.336.98,2.684,1.5,4.015l.131.009a16.947,16.947,0,0,0,4.82-10.482A17.2,17.2,0,0,0,41.578,20.4Z" transform="translate(-8.537 -9)" fill="url(#linear-gradient-2)"/>
        <path id="Path_55" data-name="Path 55" d="M38.65,36.491c-1.3-.464-2.585-.951-3.879-1.423-1.154-.436-2.314-.859-3.472-1.289-.164.075-.327.151-.493.229h-.02a10.367,10.367,0,0,1-6.513.429,10.563,10.563,0,0,1-3.763-1.913,12.632,12.632,0,0,1-1.6-1.617,10.278,10.278,0,0,1-2.069-4.757,11.863,11.863,0,0,1-.121-1.56c-2.263,0-4.525.019-6.786,0a16.661,16.661,0,0,0,1.393,6.8,16.879,16.879,0,0,0,2.743,4.33,17.932,17.932,0,0,0,2.57,2.416,18.4,18.4,0,0,0,2.593,1.623,17.324,17.324,0,0,0,5.771,1.715,18.186,18.186,0,0,0,5.009-.168l-.054-.05a2.205,2.205,0,0,0,.72-.1,16.969,16.969,0,0,0,8.135-4.446l-.037-.091Z" transform="translate(-9.923 -7.668)" fill="url(#linear-gradient-2)"/>
        <path id="Path_56" data-name="Path 56" d="M31.033,19.659a1.082,1.082,0,0,0,.317-.544,5.943,5.943,0,0,0-.722.417,17.63,17.63,0,0,0-4.16,3.791l-.121.157a4.175,4.175,0,0,0-.3.4l-.155.2c-.358.511-.665,1.053-.98,1.591a3.125,3.125,0,0,0-1.8-1.815,1.7,1.7,0,0,0-1.266.167c-.273.181-.493.428-.749.629a7.357,7.357,0,0,1,1.618,1.581,7,7,0,0,1,1.005,2.759,1.723,1.723,0,0,0,.9-.109,4.058,4.058,0,0,0,1.363-.909,7.535,7.535,0,0,0,.762-1.755,16.519,16.519,0,0,1,1.541-3.332,14.528,14.528,0,0,1,2.757-3.225Z" transform="translate(-8.931 -8.125)" fill="url(#linear-gradient-8)"/>
        <g id="Group_11" data-name="Group 11" transform="translate(11.113 9.772)">
          <g id="Group_10" data-name="Group 10">
            <path id="Path_57" data-name="Path 57" d="M23.171,23.725a2.7,2.7,0,0,1,1.17.795c.372-1.175.71-2.361,1.116-3.525.252.754.485,1.51.74,2.261a17.126,17.126,0,0,1,2.013-2.135c-.362-1.037-.74-2.069-1.089-3.11-1-.01-2.008-.01-3.011-.01-.139-.034-.164.122-.206.218q-.77,2.167-1.556,4.326a11.936,11.936,0,0,1-.4,1.15A2.9,2.9,0,0,1,23.171,23.725Z" transform="translate(-19.967 -17.996)" fill="url(#linear-gradient-9)"/>
            <path id="Path_58" data-name="Path 58" d="M21.5,24.763q-.691,1.9-1.372,3.806c.98-.016,1.969.014,2.952-.014a4.108,4.108,0,0,0,.262-.862A4.693,4.693,0,0,0,21.5,24.763Z" transform="translate(-20.129 -17.394)" fill="url(#linear-gradient-10)"/>
            <path id="Path_59" data-name="Path 59" d="M28.328,22.234a4.5,4.5,0,0,0-.653,1.065,14.859,14.859,0,0,0-1.044,2.37c.271,1.052.634,2.082.944,3.125,1.023-.008,2.046,0,3.069,0q-.843-2.368-1.675-4.739Z" transform="translate(-19.551 -17.619)" fill="url(#linear-gradient-11)"/>
          </g>
        </g>
      </g>
    </g>
  </g>
</svg>
