<svg width="144" height="28" viewBox="0 0 144 28" fill="none" xmlns="http://www.w3.org/2000/svg">
<g clip-path="url(#clip0_544_3215)">
<path d="M140.997 20.9433H133.178V15.0995L137.106 11.29L140.997 15.0995V20.9433Z" fill="#7F56D9"/>
<path d="M11.8509 0.394212C10.657 0.370165 9.47278 0.611852 8.38385 1.10177C7.29493 1.5917 6.32859 2.3176 5.55479 3.22691V1.06148H0V27.5976H5.92642V19.1764C6.67232 20.0056 7.59387 20.658 8.62389 21.086C9.65391 21.5139 10.7665 21.7067 11.8804 21.6503C17.4993 21.6503 21.4966 16.9429 21.4966 11.2223C21.5055 6.57116 18.8705 0.394212 11.8509 0.394212ZM15.516 15.1294H7.65644V9.24616L11.5847 5.4367L15.5169 9.24517L15.516 15.1294Z" fill="black"/>
<path d="M37.6094 3.19984C36.9574 2.26926 36.0767 1.52219 35.0522 1.03055C34.0277 0.538916 32.8939 0.319272 31.7599 0.392768C26.4713 0.392768 21.8105 4.47032 21.8105 11.0208C21.8105 16.703 25.4727 21.6489 31.7599 21.6489C34.0902 21.6489 36.5537 20.751 37.6193 18.8162V20.955H43.5339V1.06103H37.6074L37.6094 3.19984ZM37.6094 11.3165C37.5451 12.2181 37.2608 13.0902 36.7814 13.8565C36.3572 14.5631 35.7494 15.1415 35.0226 15.5303C34.2958 15.9191 33.4773 16.1036 32.654 16.0643C32.0033 16.0622 31.3594 15.9318 30.7593 15.6804C30.1591 15.4291 29.6145 15.0618 29.1566 14.5995C28.6987 14.1373 28.3366 13.5893 28.0909 12.9868C27.8453 12.3844 27.721 11.7394 27.7251 11.0888V11.0514C27.6971 10.3915 27.8028 9.73283 28.0357 9.11485C28.2687 8.49686 28.6242 7.93234 29.0809 7.45519C29.5376 6.97804 30.086 6.59811 30.6933 6.33822C31.3005 6.07833 31.954 5.94385 32.6145 5.94285C33.5546 5.89923 34.4861 6.14012 35.2871 6.63405C36.0882 7.12798 36.7216 7.85198 37.1047 8.71148C37.5075 9.51924 37.681 10.4219 37.6065 11.3214L37.6094 11.3165Z" fill="black"/>
<path d="M58.4199 1.06152L54.6552 12.5875L50.6304 1.06152H44.3047L51.6585 19.9403L48.5041 27.5622H54.7913L64.7101 1.06152H58.4199Z" fill="black"/>
<path d="M79.2492 3.22832C78.5936 2.29925 77.711 1.5535 76.6855 1.06213C75.66 0.57075 74.5257 0.350117 73.3908 0.421247C68.1021 0.421247 63.4414 4.4988 63.4414 11.0207C63.4414 16.7029 67.1035 21.6488 73.3908 21.6488C75.7211 21.6488 78.1845 20.7509 79.2501 18.8161V20.9549H85.1766V1.06092H79.2501L79.2492 3.22832ZM79.2492 11.3164C79.1848 12.218 78.9005 13.0901 78.4211 13.8564C77.9966 14.5628 77.3886 15.1411 76.6616 15.5295C75.9347 15.9179 75.116 16.102 74.2927 16.0622C73.642 16.0602 72.9982 15.9297 72.398 15.6784C71.7979 15.427 71.2533 15.0597 70.7954 14.5975C70.3375 14.1352 69.9753 13.5872 69.7297 12.9848C69.4841 12.3823 69.3597 11.7373 69.3639 11.0868V11.0483C69.3359 10.3885 69.4415 9.72977 69.6745 9.11179C69.9074 8.4938 70.263 7.92928 70.7197 7.45213C71.1764 6.97498 71.7248 6.59505 72.332 6.33516C72.9392 6.07527 73.5928 5.94079 74.2533 5.93979C75.1933 5.89637 76.1244 6.13736 76.9253 6.63127C77.7261 7.12519 78.3594 7.84908 78.7424 8.70843C79.1451 9.51553 79.319 10.4175 79.2452 11.3164H79.2492Z" fill="black"/>
<path d="M97.0267 16.0333C94.2301 16.0333 92.3374 13.8945 92.3374 10.9909C92.3073 9.66059 92.7677 8.36575 93.6307 7.35289C94.0592 6.87571 94.5901 6.50166 95.1837 6.25876C95.7772 6.01587 96.4181 5.91043 97.0582 5.95034C97.9761 5.91527 98.8821 6.16667 99.6506 6.66966C100.419 7.17265 101.012 7.9023 101.347 8.75741H107.34C106.743 6.26645 105.25 4.08242 103.145 2.62236C101.04 1.16231 98.4716 0.528535 95.9291 0.842049C93.3866 1.15556 91.0487 2.39441 89.3618 4.32202C87.6748 6.24963 86.7571 8.73096 86.7838 11.2922C86.8104 13.8534 87.7796 16.3151 89.5063 18.2072C91.233 20.0993 93.5962 21.2893 96.1446 21.5498C98.6931 21.8104 101.248 21.1233 103.322 19.6197C105.396 18.1162 106.844 15.9016 107.388 13.3987H101.33C100.944 14.2064 100.333 14.8851 99.5697 15.3528C98.8066 15.8205 97.9244 16.0572 97.0296 16.0343L97.0267 16.0333Z" fill="black"/>
<path d="M124.054 1.06116V3.22954C123.398 2.29964 122.515 1.55326 121.489 1.06166C120.463 0.570066 119.328 0.349658 118.193 0.421482C112.895 0.421482 108.236 4.49903 108.236 11.0209C108.236 16.7031 111.898 21.649 118.185 21.649C120.516 21.649 122.978 20.7511 124.044 18.8163V20.9551H129.97V1.06116H124.054ZM124.054 11.3117C123.99 12.2133 123.705 13.0854 123.226 13.8517C122.801 14.5581 122.193 15.1362 121.466 15.5246C120.739 15.9131 119.921 16.0972 119.097 16.0575C118.447 16.0555 117.803 15.925 117.203 15.6737C116.603 15.4223 116.058 15.055 115.6 14.5928C115.142 14.1305 114.78 13.5825 114.534 12.9801C114.289 12.3776 114.164 11.7326 114.169 11.0821V11.0466C114.141 10.3868 114.246 9.7282 114.479 9.11028C114.712 8.49236 115.068 7.92788 115.524 7.45075C115.981 6.97361 116.529 6.59366 117.136 6.33371C117.743 6.07377 118.397 5.93918 119.057 5.93805C119.997 5.89443 120.929 6.13532 121.73 6.62925C122.531 7.12318 123.164 7.84718 123.547 8.70669C123.946 9.51611 124.12 10.418 124.05 11.3176L124.054 11.3117Z" fill="black"/>
</g>
<defs>
<clipPath id="clip0_544_3215">
<rect width="141" height="27.59" fill="white" transform="translate(0 0.200195)"/>
</clipPath>
</defs>
</svg>
